SymPub-Regular.ufo
<glyph name="periodcentered" format="2">
  <advance width="268"/>
  <unicode hex="00B7"/>
  <outline>
    <contour>
      <point x="72" y="353" type="curve" smooth="yes"/>
      <point x="72" y="305"/>
      <point x="99" y="285"/>
      <point x="133" y="285" type="curve" smooth="yes"/>
      <point x="167" y="285"/>
      <point x="196" y="305"/>
      <point x="196" y="353" type="curve" smooth="yes"/>
      <point x="196" y="402"/>
      <point x="167" y="420"/>
      <point x="133" y="420" type="curve" smooth="yes"/>
      <point x="99" y="420"/>
      <point x="72" y="402"/>
    </contour>
  </outline>
</glyph>
<glyph name="triangularbullet" format="2">
  <advance width="368"/>
  <unicode hex="2023"/>
  <outline>
    <contour>
      <point x="68" y="226" type="line"/>
      <point x="328" y="373" type="line"/>
      <point x="68" y="519" type="line"/>
    </contour>
  </outline>
</glyph>
<glyph name="leftCeiling" format="2">
  <advance width="404"/>
  <unicode hex="2308"/>
  <note>
uni2308
</note>
  <anchor x="202" y="0" name="center"/>
  <outline>
    <contour>
      <point x="51" y="-80" type="line"/>
      <point x="122" y="-80" type="line"/>
      <point x="122" y="730" type="line"/>
      <point x="353" y="730" type="line"/>
      <point x="353" y="794" type="line"/>
      <point x="51" y="794" type="line"/>
    </contour>
  </outline>
</glyph>
<glyph name="rightCeiling" format="2">
  <advance width="404"/>
  <unicode hex="2309"/>
  <note>
uni2309
</note>
  <anchor x="202" y="0" name="center"/>
  <outline>
    <contour>
      <point x="282" y="-80" type="line"/>
      <point x="353" y="-80" type="line"/>
      <point x="353" y="794" type="line"/>
      <point x="51" y="794" type="line"/>
      <point x="51" y="730" type="line"/>
      <point x="282" y="730" type="line"/>
    </contour>
  </outline>
</glyph>
<glyph name="leftFloor" format="2">
  <advance width="404"/>
  <unicode hex="230A"/>
  <note>
uni230A
</note>
  <anchor x="202" y="0" name="center"/>
  <outline>
    <contour>
      <point x="51" y="-80" type="line"/>
      <point x="353" y="-80" type="line"/>
      <point x="353" y="-16" type="line"/>
      <point x="123" y="-16" type="line"/>
      <point x="123" y="794" type="line"/>
      <point x="51" y="794" type="line"/>
    </contour>
  </outline>
</glyph>
<glyph name="rightFloor" format="2">
  <advance width="404"/>
  <unicode hex="230B"/>
  <note>
uni230B
</note>
  <anchor x="202" y="0" name="center"/>
  <outline>
    <contour>
      <point x="51" y="-80" type="line"/>
      <point x="353" y="-80" type="line"/>
      <point x="353" y="794" type="line"/>
      <point x="281" y="794" type="line"/>
      <point x="281" y="-16" type="line"/>
      <point x="51" y="-16" type="line"/>
    </contour>
  </outline>
</glyph>
<glyph name="topLeftCorner" format="2">
  <advance width="442"/>
  <unicode hex="231C"/>
  <note>
uni231C
</note>
  <anchor x="221" y="0" name="center"/>
  <outline>
    <contour>
      <point x="51" y="346" type="line"/>
      <point x="122" y="346" type="line"/>
      <point x="122" y="643" type="line"/>
      <point x="391" y="643" type="line"/>
      <point x="391" y="714" type="line"/>
      <point x="51" y="714" type="line"/>
    </contour>
  </outline>
</glyph>
<glyph name="bottomLeftCorner" format="2">
  <advance width="442"/>
  <unicode hex="231E"/>
  <note>
uni231E
</note>
  <anchor x="221" y="0" name="center"/>
  <outline>
    <contour>
      <point x="51" y="0" type="line"/>
      <point x="391" y="0" type="line"/>
      <point x="391" y="71" type="line"/>
      <point x="122" y="71" type="line"/>
      <point x="122" y="368" type="line"/>
      <point x="51" y="368" type="line"/>
    </contour>
  </outline>
</glyph>
<glyph name="bottomRightCorner" format="2">
  <advance width="442"/>
  <unicode hex="231F"/>
  <note>
uni231F
</note>
  <anchor x="221" y="0" name="center"/>
  <outline>
    <contour>
      <point x="51" y="0" type="line"/>
      <point x="391" y="0" type="line"/>
      <point x="391" y="368" type="line"/>
      <point x="320" y="368" type="line"/>
      <point x="320" y="71" type="line"/>
      <point x="51" y="71" type="line"/>
    </contour>
  </outline>
</glyph>
<glyph name="onecircle" format="2">
  <advance width="1000"/>
  <unicode hex="2460"/>
  <note>
uni2460
</note>
  <anchor x="500" y="0" name="center"/>
  <outline>
    <component base="_circledComp"/>
    <contour>
      <point x="475" y="144" type="line"/>
      <point x="545" y="144" type="line"/>
      <point x="545" y="572" type="line"/>
      <point x="473" y="572" type="line"/>
      <point x="346" y="480" type="line"/>
      <point x="380" y="431" type="line"/>
      <point x="428" y="466"/>
      <point x="455" y="486"/>
      <point x="462" y="493" type="curve" smooth="yes"/>
      <point x="468" y="499"/>
      <point x="474" y="504"/>
      <point x="479" y="509" type="curve"/>
      <point x="477" y="481"/>
      <point x="475" y="451"/>
      <point x="475" y="420" type="curve" smooth="yes"/>
    </contour>
  </outline>
</glyph>
<glyph name="fourcircle" format="2">
  <advance width="1000"/>
  <unicode hex="2463"/>
  <note>
uni2463
</note>
  <anchor x="500" y="0" name="center"/>
  <outline>
    <component base="_circledComp"/>
    <contour>
      <point x="501" y="144" type="line"/>
      <point x="571" y="144" type="line"/>
      <point x="571" y="241" type="line"/>
      <point x="631" y="241" type="line"/>
      <point x="631" y="299" type="line"/>
      <point x="571" y="299" type="line"/>
      <point x="571" y="572" type="line"/>
      <point x="500" y="572" type="line"/>
      <point x="309" y="291" type="line"/>
      <point x="309" y="241" type="line"/>
      <point x="501" y="241" type="line"/>
    </contour>
    <contour>
      <point x="378" y="299" type="line"/>
      <point x="489" y="471" type="line" smooth="yes"/>
      <point x="495" y="480"/>
      <point x="499" y="489"/>
      <point x="503" y="499" type="curve"/>
      <point x="504" y="499" type="line"/>
      <point x="502" y="466"/>
      <point x="501" y="431"/>
      <point x="501" y="398" type="curve" smooth="yes"/>
      <point x="501" y="299" type="line"/>
    </contour>
  </outline>
</glyph>
<glyph name="sevencircle" format="2">
  <advance width="1000"/>
  <unicode hex="2466"/>
  <note>
uni2466
</note>
  <anchor x="500" y="0" name="center"/>
  <outline>
    <component base="_circledComp"/>
    <contour>
      <point x="420" y="144" type="line"/>
      <point x="492" y="144" type="line"/>
      <point x="659" y="523" type="line"/>
      <point x="659" y="572" type="line"/>
      <point x="370" y="572" type="line"/>
      <point x="370" y="512" type="line"/>
      <point x="587" y="512" type="line"/>
    </contour>
  </outline>
</glyph>
<glyph name="elevencircle" format="2">
  <advance width="1000"/>
  <unicode hex="246A"/>
  <note>
uni246A
</note>
  <anchor x="500" y="0" name="center"/>
  <outline>
    <component base="_circledComp"/>
    <contour>
      <point x="607" y="144" type="line"/>
      <point x="675" y="144" type="line"/>
      <point x="675" y="572" type="line"/>
      <point x="603" y="572" type="line"/>
      <point x="489" y="489" type="line"/>
      <point x="523" y="440" type="line"/>
      <point x="547" y="458"/>
      <point x="567" y="474"/>
      <point x="582" y="485" type="curve" smooth="yes"/>
      <point x="595" y="495"/>
      <point x="604" y="503"/>
      <point x="609" y="509" type="curve"/>
      <point x="608" y="495"/>
      <point x="607" y="481"/>
      <point x="607" y="467" type="curve" smooth="yes"/>
    </contour>
    <contour>
      <point x="368" y="144" type="line"/>
      <point x="436" y="144" type="line"/>
      <point x="436" y="572" type="line"/>
      <point x="364" y="572" type="line"/>
      <point x="250" y="489" type="line"/>
      <point x="284" y="440" type="line"/>
      <point x="308" y="458"/>
      <point x="326" y="472"/>
      <point x="340" y="483" type="curve" smooth="yes"/>
      <point x="354" y="494"/>
      <point x="364" y="503"/>
      <point x="370" y="509" type="curve"/>
      <point x="370" y="495"/>
      <point x="368" y="481"/>
      <point x="368" y="467" type="curve" smooth="yes"/>
    </contour>
  </outline>
</glyph>
<glyph name="thirteencircle" format="2">
  <advance width="1000"/>
  <unicode hex="246C"/>
  <note>
uni246C
</note>
  <anchor x="500" y="0" name="center"/>
  <outline>
    <component base="_circledComp"/>
    <contour>
      <point x="594" y="135" type="curve" smooth="yes"/>
      <point x="685" y="135"/>
      <point x="748" y="176"/>
      <point x="748" y="266" type="curve" smooth="yes"/>
      <point x="748" y="328"/>
      <point x="708" y="363"/>
      <point x="636" y="372" type="curve"/>
      <point x="640" y="367" type="line"/>
      <point x="692" y="372"/>
      <point x="735" y="415"/>
      <point x="735" y="470" type="curve" smooth="yes"/>
      <point x="735" y="544"/>
      <point x="681" y="580"/>
      <point x="605" y="580" type="curve" smooth="yes"/>
      <point x="560" y="580"/>
      <point x="517" y="563"/>
      <point x="477" y="531" type="curve"/>
      <point x="509" y="485" type="line"/>
      <point x="542" y="508"/>
      <point x="566" y="523"/>
      <point x="602" y="523" type="curve" smooth="yes"/>
      <point x="637" y="523"/>
      <point x="666" y="505"/>
      <point x="666" y="462" type="curve" smooth="yes"/>
      <point x="666" y="416"/>
      <point x="638" y="392"/>
      <point x="583" y="392" type="curve" smooth="yes"/>
      <point x="539" y="392" type="line"/>
      <point x="539" y="337" type="line"/>
      <point x="583" y="337" type="line" smooth="yes"/>
      <point x="647" y="337"/>
      <point x="679" y="314"/>
      <point x="679" y="268" type="curve" smooth="yes"/>
      <point x="679" y="217"/>
      <point x="649" y="192"/>
      <point x="588" y="192" type="curve" smooth="yes"/>
      <point x="558" y="192"/>
      <point x="523" y="203"/>
      <point x="483" y="226" type="curve"/>
      <point x="483" y="163" type="line"/>
      <point x="517" y="144"/>
      <point x="554" y="135"/>
    </contour>
    <contour>
      <point x="356" y="144" type="line"/>
      <point x="424" y="144" type="line"/>
      <point x="424" y="572" type="line"/>
      <point x="352" y="572" type="line"/>
      <point x="238" y="489" type="line"/>
      <point x="272" y="440" type="line"/>
      <point x="297" y="459"/>
      <point x="317" y="474"/>
      <point x="332" y="486" type="curve" smooth="yes"/>
      <point x="344" y="496"/>
      <point x="353" y="503"/>
      <point x="358" y="509" type="curve"/>
      <point x="357" y="495"/>
      <point x="356" y="481"/>
      <point x="356" y="467" type="curve" smooth="yes"/>
    </contour>
  </outline>
</glyph>
<glyph name="seventeencircle" format="2">
  <advance width="1000"/>
  <unicode hex="2470"/>
  <note>
uni2470
</note>
  <anchor x="500" y="0" name="center"/>
  <outline>
    <component base="_circledComp"/>
    <contour>
      <point x="508" y="144" type="line"/>
      <point x="577" y="144" type="line"/>
      <point x="737" y="524" type="line"/>
      <point x="737" y="573" type="line"/>
      <point x="468" y="573" type="line"/>
      <point x="468" y="513" type="line"/>
      <point x="665" y="513" type="line"/>
    </contour>
    <contour>
      <point x="348" y="144" type="line"/>
      <point x="416" y="144" type="line"/>
      <point x="416" y="572" type="line"/>
      <point x="344" y="572" type="line"/>
      <point x="230" y="489" type="line"/>
      <point x="264" y="440" type="line"/>
      <point x="289" y="458"/>
      <point x="309" y="474"/>
      <point x="324" y="486" type="curve" smooth="yes"/>
      <point x="336" y="496"/>
      <point x="345" y="503"/>
      <point x="350" y="509" type="curve"/>
      <point x="350" y="495"/>
      <point x="348" y="481"/>
      <point x="348" y="467" type="curve" smooth="yes"/>
    </contour>
  </outline>
</glyph>
<glyph name="elevenblackcircle" format="2">
  <advance width="1000"/>
  <unicode hex="24EB"/>
  <note>
uni24EB
</note>
  <anchor x="500" y="0" name="center"/>
  <outline>
    <component base="_blackCircledComp"/>
    <contour>
      <point x="607" y="144" type="line"/>
      <point x="607" y="467" type="line" smooth="yes"/>
      <point x="607" y="481"/>
      <point x="608" y="495"/>
      <point x="609" y="509" type="curve"/>
      <point x="605" y="505"/>
      <point x="600" y="500"/>
      <point x="593" y="495" type="curve" smooth="yes"/>
      <point x="577" y="483"/>
      <point x="555" y="464"/>
      <point x="523" y="440" type="curve"/>
      <point x="489" y="489" type="line"/>
      <point x="603" y="572" type="line"/>
      <point x="675" y="572" type="line"/>
      <point x="675" y="144" type="line"/>
    </contour>
    <contour>
      <point x="368" y="144" type="line"/>
      <point x="368" y="467" type="line" smooth="yes"/>
      <point x="368" y="481"/>
      <point x="370" y="495"/>
      <point x="370" y="509" type="curve"/>
      <point x="364" y="503"/>
      <point x="358" y="498"/>
      <point x="352" y="493" type="curve"/>
      <point x="336" y="480"/>
      <point x="314" y="462"/>
      <point x="284" y="440" type="curve"/>
      <point x="250" y="489" type="line"/>
      <point x="364" y="572" type="line"/>
      <point x="436" y="572" type="line"/>
      <point x="436" y="144" type="line"/>
    </contour>
  </outline>
</glyph>
<glyph name="circlednumrev12" format="2">
  <advance width="1000"/>
  <unicode hex="24EC"/>
  <anchor x="500" y="357" name="C"/>
  <anchor x="360" y="357" name="L"/>
  <anchor x="640" y="357" name="R"/>
  <anchor x="620" y="357" name="_L"/>
  <anchor x="370" y="357" name="_R"/>
  <anchor x="500" y="0" name="center"/>
  <outline>
    <contour>
      <point x="500" y="-55" type="curve" smooth="yes"/>
      <point x="728" y="-55"/>
      <point x="912" y="129"/>
      <point x="912" y="357" type="curve" smooth="yes"/>
      <point x="912" y="584"/>
      <point x="728" y="769"/>
      <point x="500" y="769" type="curve" smooth="yes"/>
      <point x="272" y="769"/>
      <point x="88" y="584"/>
      <point x="88" y="357" type="curve" smooth="yes"/>
      <point x="88" y="129"/>
      <point x="272" y="-55"/>
    </contour>
    <contour>
      <point x="258" y="144" type="line"/>
      <point x="258" y="204" type="line"/>
      <point x="338" y="204" type="line"/>
      <point x="338" y="467" type="line" smooth="yes"/>
      <point x="338" y="481"/>
      <point x="339" y="495"/>
      <point x="340" y="509" type="curve"/>
      <point x="335" y="503"/>
      <point x="327" y="495"/>
      <point x="315" y="485" type="curve" smooth="yes"/>
      <point x="300" y="474"/>
      <point x="292" y="458"/>
      <point x="269" y="440" type="curve"/>
      <point x="237" y="489" type="line"/>
      <point x="334" y="572" type="line"/>
      <point x="402" y="572" type="line"/>
      <point x="402" y="204" type="line"/>
      <point x="482" y="204" type="line"/>
      <point x="482" y="144" type="line"/>
    </contour>
    <contour>
      <point x="507" y="143" type="line"/>
      <point x="507" y="197" type="line"/>
      <point x="605" y="309" type="line" smooth="yes"/>
      <point x="658" y="370"/>
      <point x="689" y="406"/>
      <point x="689" y="460" type="curve" smooth="yes"/>
      <point x="689" y="498"/>
      <point x="666" y="522"/>
      <point x="631" y="522" type="curve" smooth="yes"/>
      <point x="601" y="522"/>
      <point x="572" y="508"/>
      <point x="541" y="479" type="curve"/>
      <point x="510" y="525" type="line"/>
      <point x="548" y="562"/>
      <point x="590" y="580"/>
      <point x="634" y="580" type="curve" smooth="yes"/>
      <point x="709" y="580"/>
      <point x="754" y="536"/>
      <point x="754" y="462" type="curve" smooth="yes"/>
      <point x="754" y="398"/>
      <point x="710" y="348"/>
      <point x="637" y="265" type="curve" smooth="yes"/>
      <point x="569" y="189" type="line"/>
      <point x="562" y="205" type="line"/>
      <point x="753" y="205" type="line"/>
      <point x="753" y="143" type="line"/>
    </contour>
  </outline>
</glyph>
<glyph name="thirteenblackcircle" format="2">
  <advance width="1000"/>
  <unicode hex="24ED"/>
  <note>
uni24ED
</note>
  <anchor x="500" y="0" name="center"/>
  <outline>
    <component base="_blackCircledComp"/>
    <contour>
      <point x="588" y="135" type="curve" smooth="yes"/>
      <point x="547" y="135"/>
      <point x="510" y="144"/>
      <point x="477" y="163" type="curve"/>
      <point x="477" y="226" type="line"/>
      <point x="517" y="203"/>
      <point x="552" y="192"/>
      <point x="582" y="192" type="curve" smooth="yes"/>
      <point x="643" y="192"/>
      <point x="673" y="217"/>
      <point x="673" y="268" type="curve" smooth="yes"/>
      <point x="673" y="314"/>
      <point x="641" y="337"/>
      <point x="577" y="337" type="curve" smooth="yes"/>
      <point x="533" y="337" type="line"/>
      <point x="533" y="392" type="line"/>
      <point x="577" y="392" type="line" smooth="yes"/>
      <point x="632" y="392"/>
      <point x="660" y="416"/>
      <point x="660" y="462" type="curve" smooth="yes"/>
      <point x="660" y="505"/>
      <point x="631" y="523"/>
      <point x="596" y="523" type="curve" smooth="yes"/>
      <point x="560" y="523"/>
      <point x="536" y="508"/>
      <point x="503" y="485" type="curve"/>
      <point x="471" y="531" type="line"/>
      <point x="511" y="563"/>
      <point x="554" y="580"/>
      <point x="599" y="580" type="curve" smooth="yes"/>
      <point x="675" y="580"/>
      <point x="729" y="544"/>
      <point x="729" y="470" type="curve" smooth="yes"/>
      <point x="729" y="419"/>
      <point x="694" y="381"/>
      <point x="647" y="370" type="curve"/>
      <point x="647" y="369" type="line"/>
      <point x="710" y="357"/>
      <point x="742" y="323"/>
      <point x="742" y="266" type="curve" smooth="yes"/>
      <point x="742" y="176"/>
      <point x="678" y="135"/>
    </contour>
    <contour>
      <point x="350" y="144" type="line"/>
      <point x="350" y="467" type="line"/>
      <point x="351" y="481"/>
      <point x="352" y="495"/>
      <point x="352" y="509" type="curve"/>
      <point x="347" y="504"/>
      <point x="340" y="498"/>
      <point x="331" y="490" type="curve" smooth="yes"/>
      <point x="316" y="478"/>
      <point x="294" y="461"/>
      <point x="266" y="440" type="curve"/>
      <point x="232" y="489" type="line"/>
      <point x="346" y="572" type="line"/>
      <point x="418" y="572" type="line"/>
      <point x="418" y="144" type="line"/>
    </contour>
  </outline>
</glyph>
<glyph name="circlednumrev15" format="2">
  <advance width="1000"/>
  <unicode hex="24EF"/>
  <anchor x="500" y="357" name="C"/>
  <anchor x="360" y="357" name="L"/>
  <anchor x="640" y="357" name="R"/>
  <anchor x="650" y="357" name="_L"/>
  <anchor x="370" y="357" name="_R"/>
  <anchor x="500" y="0" name="center"/>
  <outline>
    <contour>
      <point x="500" y="-55" type="curve" smooth="yes"/>
      <point x="728" y="-55"/>
      <point x="912" y="129"/>
      <point x="912" y="357" type="curve" smooth="yes"/>
      <point x="912" y="584"/>
      <point x="728" y="769"/>
      <point x="500" y="769" type="curve" smooth="yes"/>
      <point x="272" y="769"/>
      <point x="88" y="584"/>
      <point x="88" y="357" type="curve" smooth="yes"/>
      <point x="88" y="129"/>
      <point x="272" y="-55"/>
    </contour>
    <contour>
      <point x="258" y="144" type="line"/>
      <point x="258" y="204" type="line"/>
      <point x="338" y="204" type="line"/>
      <point x="338" y="467" type="line" smooth="yes"/>
      <point x="338" y="481"/>
      <point x="339" y="495"/>
      <point x="340" y="509" type="curve"/>
      <point x="335" y="503"/>
      <point x="327" y="495"/>
      <point x="315" y="485" type="curve" smooth="yes"/>
      <point x="300" y="474"/>
      <point x="292" y="458"/>
      <point x="269" y="440" type="curve"/>
      <point x="237" y="489" type="line"/>
      <point x="334" y="572" type="line"/>
      <point x="402" y="572" type="line"/>
      <point x="402" y="204" type="line"/>
      <point x="482" y="204" type="line"/>
      <point x="482" y="144" type="line"/>
    </contour>
    <contour>
      <point x="632" y="136" type="curve" smooth="yes"/>
      <point x="586" y="136"/>
      <point x="551" y="145"/>
      <point x="527" y="161" type="curve"/>
      <point x="527" y="228" type="line"/>
      <point x="558" y="205"/>
      <point x="600" y="193"/>
      <point x="629" y="193" type="curve" smooth="yes"/>
      <point x="683" y="193"/>
      <point x="711" y="221"/>
      <point x="711" y="276" type="curve" smooth="yes"/>
      <point x="711" y="327"/>
      <point x="679" y="356"/>
      <point x="628" y="356" type="curve" smooth="yes"/>
      <point x="610" y="356"/>
      <point x="588" y="352"/>
      <point x="562" y="344" type="curve"/>
      <point x="537" y="364" type="line"/>
      <point x="551" y="573" type="line"/>
      <point x="757" y="573" type="line"/>
      <point x="757" y="518" type="line"/>
      <point x="602" y="518" type="line"/>
      <point x="594" y="407" type="line"/>
      <point x="608" y="412"/>
      <point x="625" y="414"/>
      <point x="645" y="414" type="curve" smooth="yes"/>
      <point x="725" y="414"/>
      <point x="777" y="360"/>
      <point x="777" y="282" type="curve" smooth="yes"/>
      <point x="777" y="185"/>
      <point x="723" y="136"/>
    </contour>
  </outline>
</glyph>
<glyph name="circlednumrev17" format="2">
  <advance width="1000"/>
  <unicode hex="24F1"/>
  <anchor x="500" y="357" name="C"/>
  <anchor x="360" y="357" name="L"/>
  <anchor x="640" y="357" name="R"/>
  <anchor x="620" y="357" name="_L"/>
  <anchor x="370" y="357" name="_R"/>
  <anchor x="500" y="0" name="center"/>
  <outline>
    <contour>
      <point x="500" y="-55" type="curve" smooth="yes"/>
      <point x="728" y="-55"/>
      <point x="912" y="129"/>
      <point x="912" y="357" type="curve" smooth="yes"/>
      <point x="912" y="584"/>
      <point x="728" y="769"/>
      <point x="500" y="769" type="curve" smooth="yes"/>
      <point x="272" y="769"/>
      <point x="88" y="584"/>
      <point x="88" y="357" type="curve" smooth="yes"/>
      <point x="88" y="129"/>
      <point x="272" y="-55"/>
    </contour>
    <contour>
      <point x="258" y="144" type="line"/>
      <point x="258" y="204" type="line"/>
      <point x="338" y="204" type="line"/>
      <point x="338" y="467" type="line" smooth="yes"/>
      <point x="338" y="481"/>
      <point x="339" y="495"/>
      <point x="340" y="509" type="curve"/>
      <point x="335" y="503"/>
      <point x="327" y="495"/>
      <point x="315" y="485" type="curve" smooth="yes"/>
      <point x="300" y="474"/>
      <point x="292" y="458"/>
      <point x="269" y="440" type="curve"/>
      <point x="237" y="489" type="line"/>
      <point x="334" y="572" type="line"/>
      <point x="402" y="572" type="line"/>
      <point x="402" y="204" type="line"/>
      <point x="482" y="204" type="line"/>
      <point x="482" y="144" type="line"/>
    </contour>
    <contour>
      <point x="544" y="144" type="line"/>
      <point x="691" y="513" type="line"/>
      <point x="516" y="513" type="line"/>
      <point x="516" y="573" type="line"/>
      <point x="759" y="573" type="line"/>
      <point x="759" y="524" type="line"/>
      <point x="609" y="144" type="line"/>
    </contour>
  </outline>
</glyph>
<glyph name="seventeenblackcircle" format="2">
  <advance width="1000"/>
  <unicode hex="24F1"/>
  <note>
uni24F1
</note>
  <anchor x="500" y="0" name="center"/>
  <outline>
    <component base="_blackCircledComp"/>
    <contour>
      <point x="520" y="144" type="line"/>
      <point x="677" y="513" type="line"/>
      <point x="480" y="513" type="line"/>
      <point x="480" y="573" type="line"/>
      <point x="749" y="573" type="line"/>
      <point x="749" y="524" type="line"/>
      <point x="589" y="144" type="line"/>
    </contour>
    <contour>
      <point x="360" y="144" type="line"/>
      <point x="360" y="467" type="line"/>
      <point x="360" y="481"/>
      <point x="361" y="495"/>
      <point x="362" y="509" type="curve"/>
      <point x="357" y="504"/>
      <point x="349" y="497"/>
      <point x="338" y="489" type="curve" smooth="yes"/>
      <point x="322" y="477"/>
      <point x="303" y="460"/>
      <point x="276" y="440" type="curve"/>
      <point x="242" y="489" type="line"/>
      <point x="356" y="572" type="line"/>
      <point x="428" y="572" type="line"/>
      <point x="428" y="144" type="line"/>
    </contour>
  </outline>
</glyph>
<glyph name="circlednumrev20" format="2">
  <advance width="1000"/>
  <unicode hex="24F4"/>
  <anchor x="500" y="357" name="C"/>
  <anchor x="360" y="357" name="L"/>
  <anchor x="640" y="357" name="R"/>
  <anchor x="660" y="357" name="_L"/>
  <anchor x="380" y="357" name="_R"/>
  <anchor x="500" y="0" name="center"/>
  <outline>
    <contour>
      <point x="500" y="-55" type="curve" smooth="yes"/>
      <point x="728" y="-55"/>
      <point x="912" y="129"/>
      <point x="912" y="357" type="curve" smooth="yes"/>
      <point x="912" y="584"/>
      <point x="728" y="769"/>
      <point x="500" y="769" type="curve" smooth="yes"/>
      <point x="272" y="769"/>
      <point x="88" y="584"/>
      <point x="88" y="357" type="curve" smooth="yes"/>
      <point x="88" y="129"/>
      <point x="272" y="-55"/>
    </contour>
    <contour>
      <point x="247" y="143" type="line"/>
      <point x="247" y="197" type="line"/>
      <point x="345" y="309" type="line" smooth="yes"/>
      <point x="398" y="370"/>
      <point x="429" y="406"/>
      <point x="429" y="460" type="curve" smooth="yes"/>
      <point x="429" y="498"/>
      <point x="406" y="522"/>
      <point x="371" y="522" type="curve" smooth="yes"/>
      <point x="341" y="522"/>
      <point x="312" y="508"/>
      <point x="281" y="479" type="curve"/>
      <point x="250" y="525" type="line"/>
      <point x="288" y="562"/>
      <point x="330" y="580"/>
      <point x="374" y="580" type="curve" smooth="yes"/>
      <point x="449" y="580"/>
      <point x="494" y="536"/>
      <point x="494" y="462" type="curve" smooth="yes"/>
      <point x="494" y="398"/>
      <point x="450" y="348"/>
      <point x="377" y="265" type="curve" smooth="yes"/>
      <point x="309" y="189" type="line"/>
      <point x="302" y="205" type="line"/>
      <point x="493" y="205" type="line"/>
      <point x="493" y="143" type="line"/>
    </contour>
    <contour>
      <point x="650" y="135" type="curve" smooth="yes"/>
      <point x="564" y="135"/>
      <point x="518" y="209"/>
      <point x="518" y="359" type="curve" smooth="yes"/>
      <point x="518" y="506"/>
      <point x="564" y="580"/>
      <point x="650" y="580" type="curve" smooth="yes"/>
      <point x="736" y="580"/>
      <point x="782" y="506"/>
      <point x="782" y="359" type="curve" smooth="yes"/>
      <point x="782" y="209"/>
      <point x="736" y="135"/>
    </contour>
    <contour>
      <point x="650" y="194" type="curve" smooth="yes"/>
      <point x="693" y="194"/>
      <point x="718" y="249"/>
      <point x="718" y="359" type="curve" smooth="yes"/>
      <point x="718" y="456"/>
      <point x="687" y="522"/>
      <point x="650" y="522" type="curve" smooth="yes"/>
      <point x="595" y="522"/>
      <point x="583" y="441"/>
      <point x="583" y="358" type="curve" smooth="yes"/>
      <point x="583" y="272"/>
      <point x="596" y="194"/>
    </contour>
  </outline>
</glyph>
<glyph name="twentyblackcircle" format="2">
  <advance width="1000"/>
  <unicode hex="24F4"/>
  <note>
uni24F4
</note>
  <anchor x="500" y="0" name="center"/>
  <outline>
    <component base="_blackCircledComp"/>
    <contour>
      <point x="228" y="143" type="line"/>
      <point x="228" y="197" type="line"/>
      <point x="343" y="323" type="line" smooth="yes"/>
      <point x="412" y="399"/>
      <point x="422" y="429"/>
      <point x="422" y="462" type="curve" smooth="yes"/>
      <point x="422" y="498"/>
      <point x="397" y="522"/>
      <point x="360" y="522" type="curve" smooth="yes"/>
      <point x="329" y="522"/>
      <point x="297" y="508"/>
      <point x="264" y="479" type="curve"/>
      <point x="231" y="525" type="line"/>
      <point x="272" y="562"/>
      <point x="316" y="580"/>
      <point x="363" y="580" type="curve" smooth="yes"/>
      <point x="442" y="580"/>
      <point x="491" y="536"/>
      <point x="491" y="462" type="curve" smooth="yes"/>
      <point x="491" y="397"/>
      <point x="448" y="351"/>
      <point x="382" y="282" type="curve" smooth="yes"/>
      <point x="309" y="205" type="line"/>
      <point x="490" y="205" type="line"/>
      <point x="490" y="143" type="line"/>
    </contour>
    <contour>
      <point x="650" y="135" type="curve" smooth="yes"/>
      <point x="559" y="135"/>
      <point x="513" y="209"/>
      <point x="513" y="359" type="curve" smooth="yes"/>
      <point x="513" y="500"/>
      <point x="552" y="580"/>
      <point x="650" y="580" type="curve" smooth="yes"/>
      <point x="742" y="580"/>
      <point x="788" y="506"/>
      <point x="788" y="359" type="curve" smooth="yes"/>
      <point x="788" y="209"/>
      <point x="742" y="135"/>
    </contour>
    <contour>
      <point x="650" y="194" type="curve" smooth="yes"/>
      <point x="697" y="194"/>
      <point x="720" y="249"/>
      <point x="720" y="359" type="curve" smooth="yes"/>
      <point x="720" y="468"/>
      <point x="697" y="522"/>
      <point x="650" y="522" type="curve" smooth="yes"/>
      <point x="592" y="522"/>
      <point x="582" y="443"/>
      <point x="582" y="358" type="curve" smooth="yes"/>
      <point x="582" y="274"/>
      <point x="592" y="194"/>
    </contour>
  </outline>
</glyph>
<glyph name="zeroblackcircle" format="2">
  <advance width="1000"/>
  <unicode hex="24FF"/>
  <anchor x="500" y="0" name="center"/>
  <outline>
    <component base="_blackCircledComp"/>
    <contour>
      <point x="500" y="95" type="curve" smooth="yes"/>
      <point x="397" y="95"/>
      <point x="324" y="195"/>
      <point x="324" y="357" type="curve" smooth="yes"/>
      <point x="324" y="519"/>
      <point x="397" y="619"/>
      <point x="500" y="619" type="curve" smooth="yes"/>
      <point x="603" y="619"/>
      <point x="676" y="519"/>
      <point x="676" y="357" type="curve" smooth="yes"/>
      <point x="676" y="195"/>
      <point x="603" y="95"/>
    </contour>
    <contour>
      <point x="500" y="131" type="curve" smooth="yes"/>
      <point x="582" y="131"/>
      <point x="602" y="238"/>
      <point x="602" y="357" type="curve" smooth="yes"/>
      <point x="602" y="476"/>
      <point x="582" y="583"/>
      <point x="500" y="583" type="curve" smooth="yes"/>
      <point x="418" y="583"/>
      <point x="398" y="476"/>
      <point x="398" y="357" type="curve" smooth="yes"/>
      <point x="398" y="238"/>
      <point x="418" y="131"/>
    </contour>
  </outline>
</glyph>
<glyph name="circlednumrev1" format="2">
  <advance width="1000"/>
  <unicode hex="2776"/>
  <anchor x="500" y="357" name="C"/>
  <anchor x="360" y="357" name="L"/>
  <anchor x="640" y="357" name="R"/>
  <anchor x="500" y="0" name="center"/>
  <outline>
    <contour>
      <point x="500" y="-55" type="curve" smooth="yes"/>
      <point x="728" y="-55"/>
      <point x="912" y="129"/>
      <point x="912" y="357" type="curve" smooth="yes"/>
      <point x="912" y="584"/>
      <point x="728" y="769"/>
      <point x="500" y="769" type="curve" smooth="yes"/>
      <point x="272" y="769"/>
      <point x="88" y="584"/>
      <point x="88" y="357" type="curve" smooth="yes"/>
      <point x="88" y="129"/>
      <point x="272" y="-55"/>
    </contour>
    <contour>
      <point x="352" y="144" type="line"/>
      <point x="352" y="204" type="line"/>
      <point x="465" y="204" type="line"/>
      <point x="465" y="420" type="line" smooth="yes"/>
      <point x="465" y="451"/>
      <point x="467" y="481"/>
      <point x="469" y="509" type="curve"/>
      <point x="464" y="504"/>
      <point x="458" y="499"/>
      <point x="452" y="493" type="curve" smooth="yes"/>
      <point x="445" y="486"/>
      <point x="418" y="466"/>
      <point x="370" y="431" type="curve"/>
      <point x="336" y="480" type="line"/>
      <point x="463" y="572" type="line"/>
      <point x="535" y="572" type="line"/>
      <point x="535" y="204" type="line"/>
      <point x="648" y="204" type="line"/>
      <point x="648" y="144" type="line"/>
    </contour>
  </outline>
</glyph>
<glyph name="oneblackcircle" format="2">
  <advance width="1000"/>
  <unicode hex="2776"/>
  <note>
uni2776
</note>
  <anchor x="500" y="0" name="center"/>
  <outline>
    <component base="_blackCircledComp"/>
    <contour>
      <point x="366" y="105" type="line"/>
      <point x="366" y="141" type="line"/>
      <point x="448" y="141"/>
      <point x="472" y="151"/>
      <point x="472" y="201" type="curve" smooth="yes"/>
      <point x="472" y="530" type="line"/>
      <point x="376" y="530" type="line"/>
      <point x="376" y="563" type="line"/>
      <point x="414" y="573"/>
      <point x="453" y="589"/>
      <point x="491" y="611" type="curve"/>
      <point x="542" y="611" type="line"/>
      <point x="542" y="201" type="line" smooth="yes"/>
      <point x="542" y="151"/>
      <point x="565" y="141"/>
      <point x="647" y="141" type="curve"/>
      <point x="647" y="105" type="line"/>
    </contour>
  </outline>
</glyph>
<glyph name="circlednumrev2" format="2">
  <advance width="1000"/>
  <unicode hex="2777"/>
  <anchor x="500" y="357" name="C"/>
  <anchor x="360" y="357" name="L"/>
  <anchor x="640" y="357" name="R"/>
  <anchor x="500" y="0" name="center"/>
  <outline>
    <contour>
      <point x="500" y="-55" type="curve" smooth="yes"/>
      <point x="728" y="-55"/>
      <point x="912" y="129"/>
      <point x="912" y="357" type="curve" smooth="yes"/>
      <point x="912" y="584"/>
      <point x="728" y="769"/>
      <point x="500" y="769" type="curve" smooth="yes"/>
      <point x="272" y="769"/>
      <point x="88" y="584"/>
      <point x="88" y="357" type="curve" smooth="yes"/>
      <point x="88" y="129"/>
      <point x="272" y="-55"/>
    </contour>
    <contour>
      <point x="362" y="143" type="line"/>
      <point x="362" y="197" type="line"/>
      <point x="475" y="309" type="line" smooth="yes"/>
      <point x="549" y="383"/>
      <point x="569" y="410"/>
      <point x="569" y="458" type="curve" smooth="yes"/>
      <point x="569" y="501"/>
      <point x="543" y="522"/>
      <point x="504" y="522" type="curve" smooth="yes"/>
      <point x="472" y="522"/>
      <point x="437" y="508"/>
      <point x="401" y="479" type="curve"/>
      <point x="367" y="525" type="line"/>
      <point x="410" y="562"/>
      <point x="456" y="580"/>
      <point x="505" y="580" type="curve" smooth="yes"/>
      <point x="589" y="580"/>
      <point x="638" y="536"/>
      <point x="638" y="462" type="curve" smooth="yes"/>
      <point x="638" y="394"/>
      <point x="594" y="348"/>
      <point x="526" y="282" type="curve" smooth="yes"/>
      <point x="429" y="188" type="line"/>
      <point x="422" y="203" type="line"/>
      <point x="638" y="203" type="line"/>
      <point x="638" y="143" type="line"/>
    </contour>
  </outline>
</glyph>
<glyph name="twoblackcircle" format="2">
  <advance width="1000"/>
  <unicode hex="2777"/>
  <note>
uni2777
</note>
  <anchor x="500" y="0" name="center"/>
  <outline>
    <component base="_blackCircledComp"/>
    <contour>
      <point x="324" y="105" type="line"/>
      <point x="324" y="165" type="line"/>
      <point x="351" y="196"/>
      <point x="392" y="233"/>
      <point x="435" y="271" type="curve" smooth="yes"/>
      <point x="548" y="370"/>
      <point x="590" y="435"/>
      <point x="590" y="492" type="curve" smooth="yes"/>
      <point x="590" y="548"/>
      <point x="549" y="582"/>
      <point x="494" y="582" type="curve" smooth="yes"/>
      <point x="455" y="582"/>
      <point x="430" y="563"/>
      <point x="420" y="547" type="curve"/>
      <point x="434" y="532"/>
      <point x="441" y="516"/>
      <point x="441" y="496" type="curve" smooth="yes"/>
      <point x="441" y="462"/>
      <point x="420" y="438"/>
      <point x="385" y="438" type="curve" smooth="yes"/>
      <point x="350" y="438"/>
      <point x="329" y="463"/>
      <point x="329" y="502" type="curve" smooth="yes"/>
      <point x="329" y="570"/>
      <point x="396" y="619"/>
      <point x="496" y="619" type="curve" smooth="yes"/>
      <point x="603" y="619"/>
      <point x="665" y="569"/>
      <point x="665" y="487" type="curve" smooth="yes"/>
      <point x="665" y="421"/>
      <point x="625" y="362"/>
      <point x="515" y="275" type="curve" smooth="yes"/>
      <point x="466" y="236"/>
      <point x="419" y="201"/>
      <point x="395" y="175" type="curve"/>
      <point x="562" y="175" type="line" smooth="yes"/>
      <point x="621" y="175"/>
      <point x="634" y="184"/>
      <point x="634" y="249" type="curve" smooth="yes"/>
      <point x="634" y="256" type="line"/>
      <point x="672" y="256" type="line"/>
      <point x="668" y="235"/>
      <point x="666" y="178"/>
      <point x="664" y="105" type="curve"/>
    </contour>
  </outline>
</glyph>
<glyph name="circlednumrev4" format="2">
  <advance width="1000"/>
  <unicode hex="2779"/>
  <anchor x="500" y="357" name="C"/>
  <anchor x="360" y="357" name="L"/>
  <anchor x="640" y="357" name="R"/>
  <anchor x="500" y="0" name="center"/>
  <outline>
    <contour>
      <point x="500" y="-55" type="curve" smooth="yes"/>
      <point x="728" y="-55"/>
      <point x="912" y="129"/>
      <point x="912" y="357" type="curve" smooth="yes"/>
      <point x="912" y="584"/>
      <point x="728" y="769"/>
      <point x="500" y="769" type="curve" smooth="yes"/>
      <point x="272" y="769"/>
      <point x="88" y="584"/>
      <point x="88" y="357" type="curve" smooth="yes"/>
      <point x="88" y="129"/>
      <point x="272" y="-55"/>
    </contour>
    <contour>
      <point x="518" y="144" type="line"/>
      <point x="518" y="241" type="line"/>
      <point x="326" y="241" type="line"/>
      <point x="326" y="291" type="line"/>
      <point x="517" y="572" type="line"/>
      <point x="588" y="572" type="line"/>
      <point x="588" y="299" type="line"/>
      <point x="648" y="299" type="line"/>
      <point x="648" y="241" type="line"/>
      <point x="588" y="241" type="line"/>
      <point x="588" y="144" type="line"/>
    </contour>
    <contour>
      <point x="395" y="299" type="line"/>
      <point x="518" y="299" type="line"/>
      <point x="518" y="398" type="line" smooth="yes"/>
      <point x="518" y="431"/>
      <point x="519" y="466"/>
      <point x="521" y="499" type="curve"/>
      <point x="520" y="499" type="line"/>
      <point x="516" y="489"/>
      <point x="512" y="480"/>
      <point x="506" y="471" type="curve" smooth="yes"/>
    </contour>
  </outline>
</glyph>
<glyph name="fourblackcircle" format="2">
  <advance width="1000"/>
  <unicode hex="2779"/>
  <note>
uni2779
</note>
  <anchor x="499" y="0" name="center"/>
  <outline>
    <component base="_blackCircledComp" xOffset="-1"/>
    <contour>
      <point x="420" y="105" type="line"/>
      <point x="420" y="141" type="line"/>
      <point x="487" y="141"/>
      <point x="513" y="160"/>
      <point x="513" y="203" type="curve" smooth="yes"/>
      <point x="513" y="251" type="line"/>
      <point x="287" y="251" type="line"/>
      <point x="287" y="308" type="line"/>
      <point x="521" y="611" type="line"/>
      <point x="583" y="611" type="line"/>
      <point x="583" y="297" type="line"/>
      <point x="677" y="297" type="line"/>
      <point x="677" y="251" type="line"/>
      <point x="583" y="251" type="line"/>
      <point x="583" y="204" type="line" smooth="yes"/>
      <point x="583" y="163"/>
      <point x="611" y="141"/>
      <point x="668" y="141" type="curve"/>
      <point x="668" y="105" type="line"/>
    </contour>
    <contour>
      <point x="322" y="297" type="line"/>
      <point x="513" y="297" type="line"/>
      <point x="513" y="542" type="line"/>
    </contour>
  </outline>
</glyph>
<glyph name="sevenblackcircle" format="2">
  <advance width="1000"/>
  <unicode hex="277C"/>
  <note>
uni277C
</note>
  <anchor x="500" y="0" name="center"/>
  <outline>
    <component base="_blackCircledComp"/>
    <contour>
      <point x="469" y="95" type="curve" smooth="yes"/>
      <point x="439" y="95"/>
      <point x="424" y="115"/>
      <point x="424" y="148" type="curve" smooth="yes"/>
      <point x="424" y="235"/>
      <point x="516" y="390"/>
      <point x="614" y="541" type="curve"/>
      <point x="452" y="541" type="line" smooth="yes"/>
      <point x="414" y="541"/>
      <point x="394" y="522"/>
      <point x="392" y="496" type="curve" smooth="yes"/>
      <point x="391" y="482" type="line"/>
      <point x="355" y="482" type="line"/>
      <point x="360" y="611" type="line"/>
      <point x="377" y="619" type="line"/>
      <point x="387" y="614"/>
      <point x="400" y="611"/>
      <point x="421" y="611" type="curve" smooth="yes"/>
      <point x="663" y="611" type="line"/>
      <point x="663" y="558" type="line"/>
      <point x="554" y="390"/>
      <point x="531" y="305"/>
      <point x="523" y="204" type="curve" smooth="yes"/>
      <point x="517" y="126"/>
      <point x="505" y="95"/>
    </contour>
  </outline>
</glyph>
<glyph name="circlednumrev10" format="2">
  <advance width="1000"/>
  <unicode hex="277F"/>
  <anchor x="500" y="357" name="C"/>
  <anchor x="360" y="357" name="L"/>
  <anchor x="640" y="357" name="R"/>
  <anchor x="660" y="357" name="_L"/>
  <anchor x="370" y="357" name="_R"/>
  <anchor x="500" y="0" name="center"/>
  <outline>
    <contour>
      <point x="500" y="-55" type="curve" smooth="yes"/>
      <point x="728" y="-55"/>
      <point x="912" y="129"/>
      <point x="912" y="357" type="curve" smooth="yes"/>
      <point x="912" y="584"/>
      <point x="728" y="769"/>
      <point x="500" y="769" type="curve" smooth="yes"/>
      <point x="272" y="769"/>
      <point x="88" y="584"/>
      <point x="88" y="357" type="curve" smooth="yes"/>
      <point x="88" y="129"/>
      <point x="272" y="-55"/>
    </contour>
    <contour>
      <point x="258" y="144" type="line"/>
      <point x="258" y="204" type="line"/>
      <point x="338" y="204" type="line"/>
      <point x="338" y="467" type="line" smooth="yes"/>
      <point x="338" y="481"/>
      <point x="339" y="495"/>
      <point x="340" y="509" type="curve"/>
      <point x="335" y="503"/>
      <point x="327" y="495"/>
      <point x="315" y="485" type="curve" smooth="yes"/>
      <point x="300" y="474"/>
      <point x="292" y="458"/>
      <point x="269" y="440" type="curve"/>
      <point x="237" y="489" type="line"/>
      <point x="334" y="572" type="line"/>
      <point x="402" y="572" type="line"/>
      <point x="402" y="204" type="line"/>
      <point x="482" y="204" type="line"/>
      <point x="482" y="144" type="line"/>
    </contour>
    <contour>
      <point x="650" y="135" type="curve" smooth="yes"/>
      <point x="564" y="135"/>
      <point x="518" y="209"/>
      <point x="518" y="359" type="curve" smooth="yes"/>
      <point x="518" y="506"/>
      <point x="564" y="580"/>
      <point x="650" y="580" type="curve" smooth="yes"/>
      <point x="736" y="580"/>
      <point x="782" y="506"/>
      <point x="782" y="359" type="curve" smooth="yes"/>
      <point x="782" y="209"/>
      <point x="736" y="135"/>
    </contour>
    <contour>
      <point x="650" y="194" type="curve" smooth="yes"/>
      <point x="693" y="194"/>
      <point x="718" y="249"/>
      <point x="718" y="359" type="curve" smooth="yes"/>
      <point x="718" y="456"/>
      <point x="687" y="522"/>
      <point x="650" y="522" type="curve" smooth="yes"/>
      <point x="595" y="522"/>
      <point x="583" y="441"/>
      <point x="583" y="358" type="curve" smooth="yes"/>
      <point x="583" y="272"/>
      <point x="596" y="194"/>
    </contour>
  </outline>
</glyph>
<glyph name="tenblackcircle" format="2">
  <advance width="1000"/>
  <unicode hex="277F"/>
  <note>
uni277F
</note>
  <anchor x="500" y="0" name="center"/>
  <outline>
    <component base="_blackCircledComp"/>
    <contour>
      <point x="638" y="95" type="curve" smooth="yes"/>
      <point x="541" y="95"/>
      <point x="472" y="195"/>
      <point x="472" y="357" type="curve" smooth="yes"/>
      <point x="472" y="519"/>
      <point x="541" y="619"/>
      <point x="638" y="619" type="curve" smooth="yes"/>
      <point x="735" y="619"/>
      <point x="804" y="519"/>
      <point x="804" y="357" type="curve" smooth="yes"/>
      <point x="804" y="195"/>
      <point x="735" y="95"/>
    </contour>
    <contour>
      <point x="246" y="105" type="line"/>
      <point x="246" y="141" type="line"/>
      <point x="305" y="141"/>
      <point x="322" y="151"/>
      <point x="322" y="201" type="curve" smooth="yes"/>
      <point x="322" y="530" type="line"/>
      <point x="256" y="530" type="line"/>
      <point x="256" y="563" type="line"/>
      <point x="290" y="573"/>
      <point x="313" y="589"/>
      <point x="341" y="611" type="curve"/>
      <point x="392" y="611" type="line"/>
      <point x="392" y="201" type="line" smooth="yes"/>
      <point x="392" y="151"/>
      <point x="408" y="141"/>
      <point x="467" y="141" type="curve"/>
      <point x="467" y="105" type="line"/>
    </contour>
    <contour>
      <point x="638" y="131" type="curve" smooth="yes"/>
      <point x="712" y="131"/>
      <point x="730" y="238"/>
      <point x="730" y="357" type="curve" smooth="yes"/>
      <point x="730" y="476"/>
      <point x="712" y="583"/>
      <point x="638" y="583" type="curve" smooth="yes"/>
      <point x="564" y="583"/>
      <point x="546" y="476"/>
      <point x="546" y="357" type="curve" smooth="yes"/>
      <point x="546" y="238"/>
      <point x="564" y="131"/>
    </contour>
  </outline>
</glyph>
<glyph name="refasc" format="2">
  <advance width="326"/>
  <unicode hex="E0B1"/>
  <outline>
    <contour>
      <point x="389" y="677" type="curve" smooth="yes"/>
      <point x="389" y="709"/>
      <point x="360" y="737"/>
      <point x="303" y="737" type="curve" smooth="yes"/>
      <point x="238" y="737"/>
      <point x="172" y="701"/>
      <point x="133" y="626" type="curve" smooth="yes"/>
      <point x="108" y="578"/>
      <point x="99" y="542"/>
      <point x="99" y="476" type="curve"/>
      <point x="35" y="458" type="line"/>
      <point x="35" y="423" type="line"/>
      <point x="99" y="423" type="line"/>
      <point x="99" y="64" type="line" smooth="yes"/>
      <point x="99" y="52"/>
      <point x="90" y="42"/>
      <point x="78" y="42" type="curve" smooth="yes"/>
      <point x="29" y="39" type="line"/>
      <point x="29" y="0" type="line"/>
      <point x="272" y="0" type="line"/>
      <point x="272" y="39" type="line"/>
      <point x="213" y="42" type="line" smooth="yes"/>
      <point x="201" y="42"/>
      <point x="192" y="52"/>
      <point x="192" y="64" type="curve" smooth="yes"/>
      <point x="192" y="423" type="line"/>
      <point x="316" y="423" type="line"/>
      <point x="316" y="474" type="line"/>
      <point x="192" y="474" type="line"/>
      <point x="192" y="538" type="line" smooth="yes"/>
      <point x="192" y="632"/>
      <point x="222" y="673"/>
      <point x="251" y="688" type="curve"/>
      <point x="343" y="623" type="line"/>
      <point x="350" y="625"/>
      <point x="389" y="636"/>
    </contour>
  </outline>
</glyph>
<glyph name="_circlenum" format="2">
  <advance width="1000"/>
  <anchor x="500" y="357" name="C"/>
  <anchor x="360" y="357" name="L"/>
  <anchor x="640" y="357" name="R"/>
  <outline>
    <contour>
      <point x="500" y="-55" type="curve" smooth="yes"/>
      <point x="728" y="-55"/>
      <point x="912" y="129"/>
      <point x="912" y="357" type="curve" smooth="yes"/>
      <point x="912" y="585"/>
      <point x="728" y="769"/>
      <point x="500" y="769" type="curve" smooth="yes"/>
      <point x="272" y="769"/>
      <point x="88" y="585"/>
      <point x="88" y="357" type="curve" smooth="yes"/>
      <point x="88" y="129"/>
      <point x="272" y="-55"/>
    </contour>
    <contour>
      <point x="500" y="1" type="curve" smooth="yes"/>
      <point x="303" y="1"/>
      <point x="144" y="160"/>
      <point x="144" y="357" type="curve" smooth="yes"/>
      <point x="144" y="554"/>
      <point x="303" y="713"/>
      <point x="500" y="713" type="curve" smooth="yes"/>
      <point x="697" y="713"/>
      <point x="856" y="554"/>
      <point x="856" y="357" type="curve" smooth="yes"/>
      <point x="856" y="160"/>
      <point x="697" y="1"/>
    </contour>
  </outline>
</glyph>
<glyph name="_eightdouble" format="2">
  <advance width="1000"/>
  <anchor x="510" y="357" name="_L"/>
  <anchor x="490" y="357" name="_R"/>
  <outline>
    <contour>
      <point x="501" y="135" type="curve" smooth="yes"/>
      <point x="582" y="135"/>
      <point x="637" y="183"/>
      <point x="637" y="258" type="curve" smooth="yes"/>
      <point x="637" y="307"/>
      <point x="609" y="345"/>
      <point x="553" y="370" type="curve"/>
      <point x="600" y="396"/>
      <point x="623" y="430"/>
      <point x="623" y="471" type="curve" smooth="yes"/>
      <point x="623" y="537"/>
      <point x="573" y="580"/>
      <point x="501" y="580" type="curve" smooth="yes"/>
      <point x="427" y="580"/>
      <point x="376" y="536"/>
      <point x="376" y="468" type="curve" smooth="yes"/>
      <point x="376" y="417"/>
      <point x="398" y="394"/>
      <point x="438" y="367" type="curve"/>
      <point x="388" y="340"/>
      <point x="363" y="303"/>
      <point x="363" y="255" type="curve" smooth="yes"/>
      <point x="363" y="179"/>
      <point x="411" y="135"/>
    </contour>
    <contour>
      <point x="499" y="191" type="curve" smooth="yes"/>
      <point x="452" y="191"/>
      <point x="429" y="216"/>
      <point x="429" y="255" type="curve" smooth="yes"/>
      <point x="429" y="291"/>
      <point x="448" y="319"/>
      <point x="487" y="340" type="curve"/>
      <point x="501" y="334" type="line" smooth="yes"/>
      <point x="551" y="313"/>
      <point x="572" y="289"/>
      <point x="572" y="255" type="curve" smooth="yes"/>
      <point x="572" y="216"/>
      <point x="547" y="191"/>
    </contour>
    <contour>
      <point x="502" y="397" type="curve"/>
      <point x="462" y="416"/>
      <point x="441" y="440"/>
      <point x="441" y="469" type="curve" smooth="yes"/>
      <point x="441" y="504"/>
      <point x="464" y="525"/>
      <point x="500" y="525" type="curve" smooth="yes"/>
      <point x="535" y="525"/>
      <point x="559" y="504"/>
      <point x="559" y="469" type="curve" smooth="yes"/>
      <point x="559" y="438"/>
      <point x="540" y="414"/>
    </contour>
  </outline>
</glyph>
<glyph name="_fivedouble" format="2">
  <advance width="1000"/>
  <anchor x="500" y="357" name="_L"/>
  <anchor x="490" y="357" name="_R"/>
  <outline>
    <contour>
      <point x="482" y="136" type="curve" smooth="yes"/>
      <point x="573" y="136"/>
      <point x="627" y="185"/>
      <point x="627" y="282" type="curve" smooth="yes"/>
      <point x="627" y="360"/>
      <point x="575" y="414"/>
      <point x="495" y="414" type="curve" smooth="yes"/>
      <point x="475" y="414"/>
      <point x="458" y="412"/>
      <point x="444" y="407" type="curve"/>
      <point x="452" y="518" type="line"/>
      <point x="607" y="518" type="line"/>
      <point x="607" y="573" type="line"/>
      <point x="401" y="573" type="line"/>
      <point x="387" y="364" type="line"/>
      <point x="412" y="344" type="line"/>
      <point x="438" y="352"/>
      <point x="460" y="356"/>
      <point x="478" y="356" type="curve" smooth="yes"/>
      <point x="529" y="356"/>
      <point x="561" y="327"/>
      <point x="561" y="276" type="curve" smooth="yes"/>
      <point x="561" y="221"/>
      <point x="533" y="193"/>
      <point x="479" y="193" type="curve" smooth="yes"/>
      <point x="450" y="193"/>
      <point x="408" y="205"/>
      <point x="377" y="228" type="curve"/>
      <point x="377" y="161" type="line"/>
      <point x="401" y="145"/>
      <point x="436" y="136"/>
    </contour>
  </outline>
</glyph>
<glyph name="_four" format="2">
  <advance width="1000"/>
  <anchor x="500" y="357" name="_C"/>
  <outline>
    <contour>
      <point x="501" y="144" type="line"/>
      <point x="571" y="144" type="line"/>
      <point x="571" y="241" type="line"/>
      <point x="631" y="241" type="line"/>
      <point x="631" y="299" type="line"/>
      <point x="571" y="299" type="line"/>
      <point x="571" y="572" type="line"/>
      <point x="500" y="572" type="line"/>
      <point x="309" y="291" type="line"/>
      <point x="309" y="241" type="line"/>
      <point x="501" y="241" type="line"/>
    </contour>
    <contour>
      <point x="378" y="299" type="line"/>
      <point x="489" y="471" type="line" smooth="yes"/>
      <point x="495" y="480"/>
      <point x="499" y="489"/>
      <point x="503" y="499" type="curve"/>
      <point x="504" y="499" type="line"/>
      <point x="502" y="466"/>
      <point x="501" y="431"/>
      <point x="501" y="398" type="curve" smooth="yes"/>
      <point x="501" y="299" type="line"/>
    </contour>
  </outline>
</glyph>
<glyph name="_fourdouble" format="2">
  <advance width="1000"/>
  <anchor x="510" y="357" name="_L"/>
  <anchor x="490" y="357" name="_R"/>
  <outline>
    <contour>
      <point x="521" y="144" type="line"/>
      <point x="589" y="144" type="line"/>
      <point x="589" y="241" type="line"/>
      <point x="649" y="241" type="line"/>
      <point x="649" y="299" type="line"/>
      <point x="589" y="299" type="line"/>
      <point x="589" y="572" type="line"/>
      <point x="520" y="572" type="line"/>
      <point x="346" y="291" type="line"/>
      <point x="346" y="241" type="line"/>
      <point x="521" y="241" type="line"/>
    </contour>
    <contour>
      <point x="409" y="299" type="line"/>
      <point x="491" y="439" type="line" smooth="yes"/>
      <point x="511" y="473"/>
      <point x="522" y="496"/>
      <point x="528" y="507" type="curve"/>
      <point x="525" y="513" type="line"/>
      <point x="524" y="480"/>
      <point x="521" y="439"/>
      <point x="521" y="398" type="curve" smooth="yes"/>
      <point x="521" y="299" type="line"/>
    </contour>
  </outline>
</glyph>
<glyph name="_nine" format="2">
  <advance width="1000"/>
  <anchor x="500" y="357" name="_C"/>
  <outline>
    <contour>
      <point x="449" y="135" type="curve" smooth="yes"/>
      <point x="588" y="135"/>
      <point x="658" y="220"/>
      <point x="658" y="389" type="curve" smooth="yes"/>
      <point x="658" y="507"/>
      <point x="599" y="579"/>
      <point x="500" y="579" type="curve" smooth="yes"/>
      <point x="410" y="579"/>
      <point x="352" y="519"/>
      <point x="352" y="432" type="curve" smooth="yes"/>
      <point x="352" y="348"/>
      <point x="403" y="297"/>
      <point x="487" y="297" type="curve" smooth="yes"/>
      <point x="533" y="297"/>
      <point x="566" y="313"/>
      <point x="589" y="346" type="curve"/>
      <point x="594" y="346" type="line"/>
      <point x="588" y="237"/>
      <point x="537" y="192"/>
      <point x="453" y="192" type="curve" smooth="yes"/>
      <point x="424" y="192"/>
      <point x="402" y="195"/>
      <point x="387" y="202" type="curve"/>
      <point x="387" y="142" type="line"/>
      <point x="404" y="137"/>
      <point x="425" y="135"/>
    </contour>
    <contour>
      <point x="498" y="352" type="curve" smooth="yes"/>
      <point x="445" y="352"/>
      <point x="419" y="384"/>
      <point x="419" y="435" type="curve" smooth="yes"/>
      <point x="419" y="492"/>
      <point x="453" y="522"/>
      <point x="500" y="522" type="curve" smooth="yes"/>
      <point x="563" y="522"/>
      <point x="590" y="477"/>
      <point x="590" y="422" type="curve" smooth="yes"/>
      <point x="590" y="387"/>
      <point x="554" y="352"/>
    </contour>
  </outline>
</glyph>
<glyph name="_ninedouble" format="2">
  <advance width="1000"/>
  <anchor x="510" y="357" name="_L"/>
  <anchor x="490" y="357" name="_R"/>
  <outline>
    <contour>
      <point x="447" y="135" type="curve" smooth="yes"/>
      <point x="577" y="135"/>
      <point x="640" y="219"/>
      <point x="640" y="387" type="curve" smooth="yes"/>
      <point x="640" y="516"/>
      <point x="579" y="579"/>
      <point x="495" y="579" type="curve" smooth="yes"/>
      <point x="413" y="579"/>
      <point x="360" y="519"/>
      <point x="360" y="429" type="curve" smooth="yes"/>
      <point x="360" y="344"/>
      <point x="406" y="295"/>
      <point x="476" y="295" type="curve" smooth="yes"/>
      <point x="522" y="295"/>
      <point x="554" y="312"/>
      <point x="573" y="345" type="curve"/>
      <point x="577" y="345" type="line"/>
      <point x="571" y="240"/>
      <point x="531" y="192"/>
      <point x="449" y="192" type="curve" smooth="yes"/>
      <point x="428" y="192"/>
      <point x="408" y="195"/>
      <point x="392" y="201" type="curve"/>
      <point x="392" y="142" type="line"/>
      <point x="409" y="137"/>
      <point x="428" y="135"/>
    </contour>
    <contour>
      <point x="495" y="350" type="curve" smooth="yes"/>
      <point x="449" y="350"/>
      <point x="425" y="380"/>
      <point x="425" y="431" type="curve" smooth="yes"/>
      <point x="425" y="492"/>
      <point x="453" y="522"/>
      <point x="497" y="522" type="curve" smooth="yes"/>
      <point x="542" y="522"/>
      <point x="574" y="478"/>
      <point x="574" y="421" type="curve" smooth="yes"/>
      <point x="574" y="386"/>
      <point x="546" y="350"/>
    </contour>
  </outline>
</glyph>
<glyph name="_one" format="2">
  <advance width="1000"/>
  <anchor x="500" y="357" name="_C"/>
  <outline>
    <contour>
      <point x="465" y="144" type="line"/>
      <point x="535" y="144" type="line"/>
      <point x="535" y="572" type="line"/>
      <point x="463" y="572" type="line"/>
      <point x="336" y="480" type="line"/>
      <point x="370" y="431" type="line"/>
      <point x="418" y="466"/>
      <point x="445" y="486"/>
      <point x="452" y="493" type="curve" smooth="yes"/>
      <point x="458" y="499"/>
      <point x="464" y="504"/>
      <point x="469" y="509" type="curve"/>
      <point x="467" y="481"/>
      <point x="465" y="451"/>
      <point x="465" y="420" type="curve" smooth="yes"/>
    </contour>
    <contour>
      <point x="352" y="144" type="line"/>
      <point x="648" y="144" type="line"/>
      <point x="648" y="204" type="line"/>
      <point x="352" y="204" type="line"/>
    </contour>
  </outline>
</glyph>
<glyph name="_onedouble" format="2">
  <advance width="1000"/>
  <anchor x="632" y="357" name="_L"/>
  <anchor x="612" y="357" name="_R"/>
  <outline>
    <contour>
      <point x="607" y="144" type="line"/>
      <point x="675" y="144" type="line"/>
      <point x="675" y="572" type="line"/>
      <point x="603" y="572" type="line"/>
      <point x="489" y="489" type="line"/>
      <point x="523" y="440" type="line"/>
      <point x="547" y="458"/>
      <point x="567" y="474"/>
      <point x="582" y="485" type="curve" smooth="yes"/>
      <point x="595" y="495"/>
      <point x="604" y="503"/>
      <point x="609" y="509" type="curve"/>
      <point x="608" y="495"/>
      <point x="607" y="481"/>
      <point x="607" y="467" type="curve" smooth="yes"/>
    </contour>
  </outline>
</glyph>
<glyph name="_seven" format="2">
  <advance width="1000"/>
  <anchor x="500" y="357" name="_C"/>
  <outline>
    <contour>
      <point x="419" y="144" type="line"/>
      <point x="491" y="144" type="line"/>
      <point x="658" y="523" type="line"/>
      <point x="658" y="572" type="line"/>
      <point x="369" y="572" type="line"/>
      <point x="369" y="512" type="line"/>
      <point x="586" y="512" type="line"/>
    </contour>
  </outline>
</glyph>
<glyph name="_sevendouble" format="2">
  <advance width="1000"/>
  <anchor x="490" y="357" name="_L"/>
  <anchor x="510" y="357" name="_R"/>
  <outline>
    <contour>
      <point x="414" y="144" type="line"/>
      <point x="479" y="144" type="line"/>
      <point x="629" y="524" type="line"/>
      <point x="629" y="573" type="line"/>
      <point x="386" y="573" type="line"/>
      <point x="386" y="513" type="line"/>
      <point x="561" y="513" type="line"/>
    </contour>
  </outline>
</glyph>
<glyph name="_sixdouble" format="2">
  <advance width="1000"/>
  <anchor x="510" y="357" name="_L"/>
  <anchor x="490" y="357" name="_R"/>
  <outline>
    <contour>
      <point x="505" y="135" type="curve" smooth="yes"/>
      <point x="585" y="135"/>
      <point x="640" y="201"/>
      <point x="640" y="285" type="curve" smooth="yes"/>
      <point x="640" y="371"/>
      <point x="595" y="419"/>
      <point x="524" y="419" type="curve" smooth="yes"/>
      <point x="478" y="419"/>
      <point x="446" y="402"/>
      <point x="427" y="369" type="curve"/>
      <point x="423" y="369" type="line"/>
      <point x="430" y="476"/>
      <point x="471" y="522"/>
      <point x="551" y="522" type="curve" smooth="yes"/>
      <point x="572" y="522"/>
      <point x="591" y="519"/>
      <point x="608" y="513" type="curve"/>
      <point x="608" y="572" type="line"/>
      <point x="591" y="577"/>
      <point x="572" y="579"/>
      <point x="553" y="579" type="curve" smooth="yes"/>
      <point x="424" y="579"/>
      <point x="360" y="495"/>
      <point x="360" y="327" type="curve" smooth="yes"/>
      <point x="360" y="208"/>
      <point x="411" y="135"/>
    </contour>
    <contour>
      <point x="503" y="192" type="curve" smooth="yes"/>
      <point x="458" y="192"/>
      <point x="426" y="236"/>
      <point x="426" y="293" type="curve" smooth="yes"/>
      <point x="426" y="328"/>
      <point x="454" y="364"/>
      <point x="505" y="364" type="curve" smooth="yes"/>
      <point x="552" y="364"/>
      <point x="575" y="333"/>
      <point x="575" y="283" type="curve" smooth="yes"/>
      <point x="575" y="221"/>
      <point x="547" y="192"/>
    </contour>
  </outline>
</glyph>
<glyph name="_threedouble" format="2">
  <advance width="1000"/>
  <anchor x="510" y="357" name="_L"/>
  <anchor x="490" y="357" name="_R"/>
  <outline>
    <contour>
      <point x="498" y="135" type="curve" smooth="yes"/>
      <point x="589" y="135"/>
      <point x="652" y="176"/>
      <point x="652" y="266" type="curve" smooth="yes"/>
      <point x="652" y="328"/>
      <point x="612" y="363"/>
      <point x="540" y="372" type="curve"/>
      <point x="544" y="367" type="line"/>
      <point x="596" y="372"/>
      <point x="639" y="415"/>
      <point x="639" y="470" type="curve" smooth="yes"/>
      <point x="639" y="544"/>
      <point x="585" y="580"/>
      <point x="509" y="580" type="curve" smooth="yes"/>
      <point x="464" y="580"/>
      <point x="421" y="563"/>
      <point x="381" y="531" type="curve"/>
      <point x="413" y="485" type="line"/>
      <point x="446" y="508"/>
      <point x="470" y="523"/>
      <point x="506" y="523" type="curve" smooth="yes"/>
      <point x="541" y="523"/>
      <point x="570" y="505"/>
      <point x="570" y="462" type="curve" smooth="yes"/>
      <point x="570" y="416"/>
      <point x="542" y="392"/>
      <point x="487" y="392" type="curve" smooth="yes"/>
      <point x="443" y="392" type="line"/>
      <point x="443" y="337" type="line"/>
      <point x="487" y="337" type="line" smooth="yes"/>
      <point x="551" y="337"/>
      <point x="583" y="314"/>
      <point x="583" y="268" type="curve" smooth="yes"/>
      <point x="583" y="217"/>
      <point x="553" y="192"/>
      <point x="492" y="192" type="curve" smooth="yes"/>
      <point x="462" y="192"/>
      <point x="427" y="203"/>
      <point x="387" y="226" type="curve"/>
      <point x="387" y="163" type="line"/>
      <point x="421" y="144"/>
      <point x="458" y="135"/>
    </contour>
  </outline>
</glyph>
<glyph name="_two" format="2">
  <advance width="1000"/>
  <anchor x="500" y="357" name="_C"/>
  <outline>
    <contour>
      <point x="362" y="143" type="line"/>
      <point x="638" y="143" type="line"/>
      <point x="638" y="203" type="line"/>
      <point x="422" y="203" type="line"/>
      <point x="429" y="188" type="line"/>
      <point x="526" y="282" type="line" smooth="yes"/>
      <point x="594" y="348"/>
      <point x="638" y="394"/>
      <point x="638" y="462" type="curve" smooth="yes"/>
      <point x="638" y="536"/>
      <point x="589" y="580"/>
      <point x="505" y="580" type="curve" smooth="yes"/>
      <point x="456" y="580"/>
      <point x="410" y="562"/>
      <point x="367" y="525" type="curve"/>
      <point x="401" y="479" type="line"/>
      <point x="437" y="508"/>
      <point x="472" y="522"/>
      <point x="504" y="522" type="curve" smooth="yes"/>
      <point x="543" y="522"/>
      <point x="569" y="501"/>
      <point x="569" y="458" type="curve" smooth="yes"/>
      <point x="569" y="410"/>
      <point x="549" y="383"/>
      <point x="475" y="309" type="curve" smooth="yes"/>
      <point x="362" y="197" type="line"/>
    </contour>
  </outline>
</glyph>
<glyph name="_twodouble" format="2">
  <advance width="1000"/>
  <anchor x="632" y="357" name="_L"/>
  <anchor x="612" y="357" name="_R"/>
  <outline>
    <contour>
      <point x="466" y="143" type="line"/>
      <point x="728" y="143" type="line"/>
      <point x="728" y="205" type="line"/>
      <point x="525" y="205" type="line"/>
      <point x="532" y="189" type="line"/>
      <point x="604" y="265" type="line" smooth="yes"/>
      <point x="682" y="348"/>
      <point x="729" y="398"/>
      <point x="729" y="462" type="curve" smooth="yes"/>
      <point x="729" y="536"/>
      <point x="681" y="580"/>
      <point x="601" y="580" type="curve" smooth="yes"/>
      <point x="554" y="580"/>
      <point x="510" y="562"/>
      <point x="469" y="525" type="curve"/>
      <point x="502" y="479" type="line"/>
      <point x="535" y="508"/>
      <point x="566" y="522"/>
      <point x="598" y="522" type="curve" smooth="yes"/>
      <point x="635" y="522"/>
      <point x="660" y="498"/>
      <point x="660" y="460" type="curve" smooth="yes"/>
      <point x="660" y="406"/>
      <point x="627" y="370"/>
      <point x="570" y="309" type="curve" smooth="yes"/>
      <point x="466" y="197" type="line"/>
    </contour>
  </outline>
</glyph>
<glyph name="_zero" format="2">
  <advance width="1000"/>
  <anchor x="500" y="351" name="_C"/>
  <outline>
    <contour>
      <point x="500" y="135" type="curve" smooth="yes"/>
      <point x="588" y="135"/>
      <point x="661" y="190"/>
      <point x="661" y="357" type="curve" smooth="yes"/>
      <point x="661" y="524"/>
      <point x="588" y="580"/>
      <point x="500" y="580" type="curve" smooth="yes"/>
      <point x="412" y="580"/>
      <point x="339" y="524"/>
      <point x="339" y="357" type="curve" smooth="yes"/>
      <point x="339" y="190"/>
      <point x="412" y="135"/>
    </contour>
    <contour>
      <point x="500" y="191" type="curve" smooth="yes"/>
      <point x="443" y="191"/>
      <point x="406" y="238"/>
      <point x="406" y="357" type="curve" smooth="yes"/>
      <point x="406" y="476"/>
      <point x="441" y="524"/>
      <point x="500" y="524" type="curve" smooth="yes"/>
      <point x="559" y="524"/>
      <point x="594" y="476"/>
      <point x="594" y="357" type="curve" smooth="yes"/>
      <point x="594" y="238"/>
      <point x="559" y="191"/>
    </contour>
  </outline>
</glyph>
<glyph name="_zerodouble" format="2">
  <advance width="1000"/>
  <anchor x="510" y="357" name="_L"/>
  <anchor x="490" y="357" name="_R"/>
  <outline>
    <contour>
      <point x="500" y="135" type="curve" smooth="yes"/>
      <point x="586" y="135"/>
      <point x="632" y="209"/>
      <point x="632" y="359" type="curve" smooth="yes"/>
      <point x="632" y="506"/>
      <point x="586" y="580"/>
      <point x="500" y="580" type="curve" smooth="yes"/>
      <point x="414" y="580"/>
      <point x="368" y="506"/>
      <point x="368" y="359" type="curve" smooth="yes"/>
      <point x="368" y="209"/>
      <point x="414" y="135"/>
    </contour>
    <contour>
      <point x="500" y="194" type="curve" smooth="yes"/>
      <point x="446" y="194"/>
      <point x="433" y="272"/>
      <point x="433" y="358" type="curve" smooth="yes"/>
      <point x="433" y="441"/>
      <point x="445" y="522"/>
      <point x="500" y="522" type="curve" smooth="yes"/>
      <point x="537" y="522"/>
      <point x="568" y="456"/>
      <point x="568" y="359" type="curve" smooth="yes"/>
      <point x="568" y="249"/>
      <point x="543" y="194"/>
    </contour>
  </outline>
</glyph>
<glyph name="circledblack19" format="2">
  <advance width="1000"/>
  <anchor x="500" y="357" name="C"/>
  <anchor x="360" y="357" name="L"/>
  <anchor x="640" y="357" name="R"/>
  <anchor x="660" y="357" name="_L"/>
  <anchor x="370" y="357" name="_R"/>
  <anchor x="500" y="0" name="center"/>
  <outline>
    <contour>
      <point x="500" y="-55" type="curve" smooth="yes"/>
      <point x="728" y="-55"/>
      <point x="912" y="129"/>
      <point x="912" y="357" type="curve" smooth="yes"/>
      <point x="912" y="584"/>
      <point x="728" y="769"/>
      <point x="500" y="769" type="curve" smooth="yes"/>
      <point x="272" y="769"/>
      <point x="88" y="584"/>
      <point x="88" y="357" type="curve" smooth="yes"/>
      <point x="88" y="129"/>
      <point x="272" y="-55"/>
    </contour>
    <contour>
      <point x="258" y="144" type="line"/>
      <point x="258" y="204" type="line"/>
      <point x="338" y="204" type="line"/>
      <point x="338" y="467" type="line" smooth="yes"/>
      <point x="338" y="481"/>
      <point x="339" y="495"/>
      <point x="340" y="509" type="curve"/>
      <point x="335" y="503"/>
      <point x="327" y="495"/>
      <point x="315" y="485" type="curve" smooth="yes"/>
      <point x="300" y="474"/>
      <point x="292" y="458"/>
      <point x="269" y="440" type="curve"/>
      <point x="237" y="489" type="line"/>
      <point x="334" y="572" type="line"/>
      <point x="402" y="572" type="line"/>
      <point x="402" y="204" type="line"/>
      <point x="482" y="204" type="line"/>
      <point x="482" y="144" type="line"/>
    </contour>
    <contour>
      <point x="600" y="135" type="curve" smooth="yes"/>
      <point x="582" y="135"/>
      <point x="564" y="137"/>
      <point x="548" y="142" type="curve"/>
      <point x="548" y="201" type="line"/>
      <point x="564" y="195"/>
      <point x="582" y="192"/>
      <point x="602" y="192" type="curve" smooth="yes"/>
      <point x="679" y="192"/>
      <point x="717" y="240"/>
      <point x="722" y="345" type="curve"/>
      <point x="719" y="345" type="line"/>
      <point x="701" y="312"/>
      <point x="671" y="295"/>
      <point x="627" y="295" type="curve" smooth="yes"/>
      <point x="562" y="295"/>
      <point x="518" y="344"/>
      <point x="518" y="429" type="curve" smooth="yes"/>
      <point x="518" y="519"/>
      <point x="568" y="579"/>
      <point x="645" y="579" type="curve" smooth="yes"/>
      <point x="724" y="579"/>
      <point x="782" y="516"/>
      <point x="782" y="387" type="curve" smooth="yes"/>
      <point x="782" y="219"/>
      <point x="722" y="135"/>
    </contour>
    <contour>
      <point x="645" y="350" type="curve" smooth="yes"/>
      <point x="693" y="350"/>
      <point x="720" y="386"/>
      <point x="720" y="421" type="curve" smooth="yes"/>
      <point x="720" y="478"/>
      <point x="689" y="522"/>
      <point x="647" y="522" type="curve" smooth="yes"/>
      <point x="606" y="522"/>
      <point x="580" y="492"/>
      <point x="580" y="431" type="curve" smooth="yes"/>
      <point x="580" y="380"/>
      <point x="602" y="350"/>
    </contour>
  </outline>
</glyph>
<glyph name="circledblack22" format="2">
  <advance width="1000"/>
  <anchor x="500" y="357" name="C"/>
  <anchor x="360" y="357" name="L"/>
  <anchor x="640" y="357" name="R"/>
  <anchor x="620" y="357" name="_L"/>
  <anchor x="380" y="357" name="_R"/>
  <anchor x="500" y="0" name="center"/>
  <outline>
    <contour>
      <point x="500" y="-55" type="curve" smooth="yes"/>
      <point x="728" y="-55"/>
      <point x="912" y="129"/>
      <point x="912" y="357" type="curve" smooth="yes"/>
      <point x="912" y="584"/>
      <point x="728" y="769"/>
      <point x="500" y="769" type="curve" smooth="yes"/>
      <point x="272" y="769"/>
      <point x="88" y="584"/>
      <point x="88" y="357" type="curve" smooth="yes"/>
      <point x="88" y="129"/>
      <point x="272" y="-55"/>
    </contour>
    <contour>
      <point x="247" y="143" type="line"/>
      <point x="247" y="197" type="line"/>
      <point x="345" y="309" type="line" smooth="yes"/>
      <point x="398" y="370"/>
      <point x="429" y="406"/>
      <point x="429" y="460" type="curve" smooth="yes"/>
      <point x="429" y="498"/>
      <point x="406" y="522"/>
      <point x="371" y="522" type="curve" smooth="yes"/>
      <point x="341" y="522"/>
      <point x="312" y="508"/>
      <point x="281" y="479" type="curve"/>
      <point x="250" y="525" type="line"/>
      <point x="288" y="562"/>
      <point x="330" y="580"/>
      <point x="374" y="580" type="curve" smooth="yes"/>
      <point x="449" y="580"/>
      <point x="494" y="536"/>
      <point x="494" y="462" type="curve" smooth="yes"/>
      <point x="494" y="398"/>
      <point x="450" y="348"/>
      <point x="377" y="265" type="curve" smooth="yes"/>
      <point x="309" y="189" type="line"/>
      <point x="302" y="205" type="line"/>
      <point x="493" y="205" type="line"/>
      <point x="493" y="143" type="line"/>
    </contour>
    <contour>
      <point x="507" y="143" type="line"/>
      <point x="507" y="197" type="line"/>
      <point x="605" y="309" type="line" smooth="yes"/>
      <point x="658" y="370"/>
      <point x="689" y="406"/>
      <point x="689" y="460" type="curve" smooth="yes"/>
      <point x="689" y="498"/>
      <point x="666" y="522"/>
      <point x="631" y="522" type="curve" smooth="yes"/>
      <point x="601" y="522"/>
      <point x="572" y="508"/>
      <point x="541" y="479" type="curve"/>
      <point x="510" y="525" type="line"/>
      <point x="548" y="562"/>
      <point x="590" y="580"/>
      <point x="634" y="580" type="curve" smooth="yes"/>
      <point x="709" y="580"/>
      <point x="754" y="536"/>
      <point x="754" y="462" type="curve" smooth="yes"/>
      <point x="754" y="398"/>
      <point x="710" y="348"/>
      <point x="637" y="265" type="curve" smooth="yes"/>
      <point x="569" y="189" type="line"/>
      <point x="562" y="205" type="line"/>
      <point x="753" y="205" type="line"/>
      <point x="753" y="143" type="line"/>
    </contour>
  </outline>
</glyph>
<glyph name="circledblack28" format="2">
  <advance width="1000"/>
  <anchor x="500" y="357" name="C"/>
  <anchor x="360" y="357" name="L"/>
  <anchor x="640" y="357" name="R"/>
  <anchor x="646" y="357" name="_L"/>
  <anchor x="380" y="357" name="_R"/>
  <anchor x="500" y="0" name="center"/>
  <outline>
    <contour>
      <point x="500" y="-55" type="curve" smooth="yes"/>
      <point x="728" y="-55"/>
      <point x="912" y="129"/>
      <point x="912" y="357" type="curve" smooth="yes"/>
      <point x="912" y="584"/>
      <point x="728" y="769"/>
      <point x="500" y="769" type="curve" smooth="yes"/>
      <point x="272" y="769"/>
      <point x="88" y="584"/>
      <point x="88" y="357" type="curve" smooth="yes"/>
      <point x="88" y="129"/>
      <point x="272" y="-55"/>
    </contour>
    <contour>
      <point x="247" y="143" type="line"/>
      <point x="247" y="197" type="line"/>
      <point x="345" y="309" type="line" smooth="yes"/>
      <point x="398" y="370"/>
      <point x="429" y="406"/>
      <point x="429" y="460" type="curve" smooth="yes"/>
      <point x="429" y="498"/>
      <point x="406" y="522"/>
      <point x="371" y="522" type="curve" smooth="yes"/>
      <point x="341" y="522"/>
      <point x="312" y="508"/>
      <point x="281" y="479" type="curve"/>
      <point x="250" y="525" type="line"/>
      <point x="288" y="562"/>
      <point x="330" y="580"/>
      <point x="374" y="580" type="curve" smooth="yes"/>
      <point x="449" y="580"/>
      <point x="494" y="536"/>
      <point x="494" y="462" type="curve" smooth="yes"/>
      <point x="494" y="398"/>
      <point x="450" y="348"/>
      <point x="377" y="265" type="curve" smooth="yes"/>
      <point x="309" y="189" type="line"/>
      <point x="302" y="205" type="line"/>
      <point x="493" y="205" type="line"/>
      <point x="493" y="143" type="line"/>
    </contour>
    <contour>
      <point x="644" y="135" type="curve" smooth="yes"/>
      <point x="559" y="135"/>
      <point x="514" y="179"/>
      <point x="514" y="255" type="curve" smooth="yes"/>
      <point x="514" y="303"/>
      <point x="538" y="340"/>
      <point x="585" y="367" type="curve"/>
      <point x="547" y="394"/>
      <point x="526" y="417"/>
      <point x="526" y="468" type="curve" smooth="yes"/>
      <point x="526" y="536"/>
      <point x="574" y="580"/>
      <point x="644" y="580" type="curve" smooth="yes"/>
      <point x="712" y="580"/>
      <point x="759" y="537"/>
      <point x="759" y="471" type="curve" smooth="yes"/>
      <point x="759" y="430"/>
      <point x="737" y="396"/>
      <point x="693" y="370" type="curve"/>
      <point x="745" y="345"/>
      <point x="772" y="307"/>
      <point x="772" y="258" type="curve" smooth="yes"/>
      <point x="772" y="183"/>
      <point x="720" y="135"/>
    </contour>
    <contour>
      <point x="642" y="191" type="curve" smooth="yes"/>
      <point x="687" y="191"/>
      <point x="711" y="216"/>
      <point x="711" y="255" type="curve" smooth="yes"/>
      <point x="711" y="289"/>
      <point x="691" y="313"/>
      <point x="644" y="334" type="curve" smooth="yes"/>
      <point x="631" y="340" type="line"/>
      <point x="594" y="319"/>
      <point x="576" y="291"/>
      <point x="576" y="255" type="curve" smooth="yes"/>
      <point x="576" y="216"/>
      <point x="598" y="191"/>
    </contour>
    <contour>
      <point x="645" y="397" type="curve"/>
      <point x="681" y="414"/>
      <point x="698" y="438"/>
      <point x="698" y="469" type="curve" smooth="yes"/>
      <point x="698" y="504"/>
      <point x="676" y="525"/>
      <point x="643" y="525" type="curve" smooth="yes"/>
      <point x="609" y="525"/>
      <point x="588" y="504"/>
      <point x="588" y="469" type="curve" smooth="yes"/>
      <point x="588" y="440"/>
      <point x="607" y="416"/>
    </contour>
  </outline>
</glyph>
<glyph name="circledblack43" format="2">
  <advance width="1000"/>
  <anchor x="500" y="357" name="C"/>
  <anchor x="360" y="357" name="L"/>
  <anchor x="640" y="357" name="R"/>
  <anchor x="650" y="357" name="_L"/>
  <anchor x="340" y="357" name="_R"/>
  <anchor x="500" y="0" name="center"/>
  <outline>
    <contour>
      <point x="500" y="-55" type="curve" smooth="yes"/>
      <point x="728" y="-55"/>
      <point x="912" y="129"/>
      <point x="912" y="357" type="curve" smooth="yes"/>
      <point x="912" y="584"/>
      <point x="728" y="769"/>
      <point x="500" y="769" type="curve" smooth="yes"/>
      <point x="272" y="769"/>
      <point x="88" y="584"/>
      <point x="88" y="357" type="curve" smooth="yes"/>
      <point x="88" y="129"/>
      <point x="272" y="-55"/>
    </contour>
    <contour>
      <point x="370" y="144" type="line"/>
      <point x="370" y="241" type="line"/>
      <point x="205" y="241" type="line"/>
      <point x="205" y="291" type="line"/>
      <point x="369" y="572" type="line"/>
      <point x="434" y="572" type="line"/>
      <point x="434" y="299" type="line"/>
      <point x="490" y="299" type="line"/>
      <point x="490" y="241" type="line"/>
      <point x="434" y="241" type="line"/>
      <point x="434" y="144" type="line"/>
    </contour>
    <contour>
      <point x="264" y="299" type="line"/>
      <point x="370" y="299" type="line"/>
      <point x="370" y="398" type="line" smooth="yes"/>
      <point x="370" y="439"/>
      <point x="373" y="480"/>
      <point x="374" y="513" type="curve"/>
      <point x="376" y="507" type="line"/>
      <point x="371" y="496"/>
      <point x="360" y="473"/>
      <point x="342" y="439" type="curve" smooth="yes"/>
    </contour>
    <contour>
      <point x="628" y="135" type="curve" smooth="yes"/>
      <point x="591" y="135"/>
      <point x="556" y="144"/>
      <point x="524" y="163" type="curve"/>
      <point x="524" y="226" type="line"/>
      <point x="561" y="203"/>
      <point x="594" y="192"/>
      <point x="622" y="192" type="curve" smooth="yes"/>
      <point x="680" y="192"/>
      <point x="708" y="217"/>
      <point x="708" y="268" type="curve" smooth="yes"/>
      <point x="708" y="314"/>
      <point x="678" y="337"/>
      <point x="618" y="337" type="curve" smooth="yes"/>
      <point x="576" y="337" type="line"/>
      <point x="576" y="392" type="line"/>
      <point x="618" y="392" type="line" smooth="yes"/>
      <point x="669" y="392"/>
      <point x="696" y="416"/>
      <point x="696" y="462" type="curve" smooth="yes"/>
      <point x="696" y="505"/>
      <point x="669" y="523"/>
      <point x="636" y="523" type="curve" smooth="yes"/>
      <point x="602" y="523"/>
      <point x="579" y="508"/>
      <point x="548" y="485" type="curve"/>
      <point x="518" y="531" type="line"/>
      <point x="556" y="563"/>
      <point x="596" y="580"/>
      <point x="638" y="580" type="curve" smooth="yes"/>
      <point x="710" y="580"/>
      <point x="761" y="544"/>
      <point x="761" y="470" type="curve" smooth="yes"/>
      <point x="761" y="415"/>
      <point x="720" y="372"/>
      <point x="671" y="367" type="curve"/>
      <point x="668" y="372" type="line"/>
      <point x="735" y="363"/>
      <point x="773" y="328"/>
      <point x="773" y="266" type="curve" smooth="yes"/>
      <point x="773" y="176"/>
      <point x="714" y="135"/>
    </contour>
  </outline>
</glyph>
<glyph name="circledblack47" format="2">
  <advance width="1000"/>
  <anchor x="500" y="357" name="C"/>
  <anchor x="360" y="357" name="L"/>
  <anchor x="640" y="357" name="R"/>
  <anchor x="620" y="357" name="_L"/>
  <anchor x="340" y="357" name="_R"/>
  <anchor x="500" y="0" name="center"/>
  <outline>
    <contour>
      <point x="500" y="-55" type="curve" smooth="yes"/>
      <point x="728" y="-55"/>
      <point x="912" y="129"/>
      <point x="912" y="357" type="curve" smooth="yes"/>
      <point x="912" y="584"/>
      <point x="728" y="769"/>
      <point x="500" y="769" type="curve" smooth="yes"/>
      <point x="272" y="769"/>
      <point x="88" y="584"/>
      <point x="88" y="357" type="curve" smooth="yes"/>
      <point x="88" y="129"/>
      <point x="272" y="-55"/>
    </contour>
    <contour>
      <point x="370" y="144" type="line"/>
      <point x="370" y="241" type="line"/>
      <point x="205" y="241" type="line"/>
      <point x="205" y="291" type="line"/>
      <point x="369" y="572" type="line"/>
      <point x="434" y="572" type="line"/>
      <point x="434" y="299" type="line"/>
      <point x="490" y="299" type="line"/>
      <point x="490" y="241" type="line"/>
      <point x="434" y="241" type="line"/>
      <point x="434" y="144" type="line"/>
    </contour>
    <contour>
      <point x="264" y="299" type="line"/>
      <point x="370" y="299" type="line"/>
      <point x="370" y="398" type="line" smooth="yes"/>
      <point x="370" y="439"/>
      <point x="373" y="480"/>
      <point x="374" y="513" type="curve"/>
      <point x="376" y="507" type="line"/>
      <point x="371" y="496"/>
      <point x="360" y="473"/>
      <point x="342" y="439" type="curve" smooth="yes"/>
    </contour>
    <contour>
      <point x="544" y="144" type="line"/>
      <point x="691" y="513" type="line"/>
      <point x="516" y="513" type="line"/>
      <point x="516" y="573" type="line"/>
      <point x="759" y="573" type="line"/>
      <point x="759" y="524" type="line"/>
      <point x="609" y="144" type="line"/>
    </contour>
  </outline>
</glyph>
<glyph name="circledblack5" format="2">
  <advance width="1000"/>
  <anchor x="500" y="357" name="C"/>
  <anchor x="360" y="357" name="L"/>
  <anchor x="640" y="357" name="R"/>
  <anchor x="500" y="0" name="center"/>
  <outline>
    <contour>
      <point x="500" y="-55" type="curve" smooth="yes"/>
      <point x="728" y="-55"/>
      <point x="912" y="129"/>
      <point x="912" y="357" type="curve" smooth="yes"/>
      <point x="912" y="584"/>
      <point x="728" y="769"/>
      <point x="500" y="769" type="curve" smooth="yes"/>
      <point x="272" y="769"/>
      <point x="88" y="584"/>
      <point x="88" y="357" type="curve" smooth="yes"/>
      <point x="88" y="129"/>
      <point x="272" y="-55"/>
    </contour>
    <contour>
      <point x="490" y="136" type="curve" smooth="yes"/>
      <point x="436" y="136"/>
      <point x="396" y="145"/>
      <point x="369" y="161" type="curve"/>
      <point x="369" y="228" type="line"/>
      <point x="404" y="205"/>
      <point x="453" y="193"/>
      <point x="488" y="193" type="curve" smooth="yes"/>
      <point x="552" y="193"/>
      <point x="584" y="221"/>
      <point x="584" y="276" type="curve" smooth="yes"/>
      <point x="584" y="327"/>
      <point x="549" y="356"/>
      <point x="486" y="356" type="curve" smooth="yes"/>
      <point x="465" y="356"/>
      <point x="439" y="352"/>
      <point x="409" y="344" type="curve"/>
      <point x="379" y="364" type="line"/>
      <point x="394" y="573" type="line"/>
      <point x="633" y="573" type="line"/>
      <point x="633" y="518" type="line"/>
      <point x="451" y="518" type="line"/>
      <point x="442" y="408" type="line"/>
      <point x="466" y="412"/>
      <point x="485" y="414"/>
      <point x="499" y="414" type="curve" smooth="yes"/>
      <point x="593" y="414"/>
      <point x="653" y="360"/>
      <point x="653" y="282" type="curve" smooth="yes"/>
      <point x="653" y="188"/>
      <point x="598" y="136"/>
    </contour>
  </outline>
</glyph>
<glyph name="circledblack52" format="2">
  <advance width="1000"/>
  <anchor x="500" y="357" name="C"/>
  <anchor x="360" y="357" name="L"/>
  <anchor x="640" y="357" name="R"/>
  <anchor x="620" y="357" name="_L"/>
  <anchor x="350" y="357" name="_R"/>
  <anchor x="500" y="0" name="center"/>
  <outline>
    <contour>
      <point x="500" y="-55" type="curve" smooth="yes"/>
      <point x="728" y="-55"/>
      <point x="912" y="129"/>
      <point x="912" y="357" type="curve" smooth="yes"/>
      <point x="912" y="584"/>
      <point x="728" y="769"/>
      <point x="500" y="769" type="curve" smooth="yes"/>
      <point x="272" y="769"/>
      <point x="88" y="584"/>
      <point x="88" y="357" type="curve" smooth="yes"/>
      <point x="88" y="129"/>
      <point x="272" y="-55"/>
    </contour>
    <contour>
      <point x="342" y="136" type="curve" smooth="yes"/>
      <point x="296" y="136"/>
      <point x="261" y="145"/>
      <point x="237" y="161" type="curve"/>
      <point x="237" y="228" type="line"/>
      <point x="268" y="205"/>
      <point x="310" y="193"/>
      <point x="339" y="193" type="curve" smooth="yes"/>
      <point x="393" y="193"/>
      <point x="421" y="221"/>
      <point x="421" y="276" type="curve" smooth="yes"/>
      <point x="421" y="327"/>
      <point x="389" y="356"/>
      <point x="338" y="356" type="curve" smooth="yes"/>
      <point x="320" y="356"/>
      <point x="298" y="352"/>
      <point x="272" y="344" type="curve"/>
      <point x="247" y="364" type="line"/>
      <point x="261" y="573" type="line"/>
      <point x="467" y="573" type="line"/>
      <point x="467" y="518" type="line"/>
      <point x="312" y="518" type="line"/>
      <point x="304" y="407" type="line"/>
      <point x="318" y="412"/>
      <point x="335" y="414"/>
      <point x="355" y="414" type="curve" smooth="yes"/>
      <point x="435" y="414"/>
      <point x="487" y="360"/>
      <point x="487" y="282" type="curve" smooth="yes"/>
      <point x="487" y="185"/>
      <point x="433" y="136"/>
    </contour>
    <contour>
      <point x="507" y="143" type="line"/>
      <point x="507" y="197" type="line"/>
      <point x="605" y="309" type="line" smooth="yes"/>
      <point x="658" y="370"/>
      <point x="689" y="406"/>
      <point x="689" y="460" type="curve" smooth="yes"/>
      <point x="689" y="498"/>
      <point x="666" y="522"/>
      <point x="631" y="522" type="curve" smooth="yes"/>
      <point x="601" y="522"/>
      <point x="572" y="508"/>
      <point x="541" y="479" type="curve"/>
      <point x="510" y="525" type="line"/>
      <point x="548" y="562"/>
      <point x="590" y="580"/>
      <point x="634" y="580" type="curve" smooth="yes"/>
      <point x="709" y="580"/>
      <point x="754" y="536"/>
      <point x="754" y="462" type="curve" smooth="yes"/>
      <point x="754" y="398"/>
      <point x="710" y="348"/>
      <point x="637" y="265" type="curve" smooth="yes"/>
      <point x="569" y="189" type="line"/>
      <point x="562" y="205" type="line"/>
      <point x="753" y="205" type="line"/>
      <point x="753" y="143" type="line"/>
    </contour>
  </outline>
</glyph>
<glyph name="circledblack54" format="2">
  <advance width="1000"/>
  <anchor x="500" y="357" name="C"/>
  <anchor x="360" y="357" name="L"/>
  <anchor x="640" y="357" name="R"/>
  <anchor x="660" y="357" name="_L"/>
  <anchor x="350" y="357" name="_R"/>
  <anchor x="500" y="0" name="center"/>
  <outline>
    <contour>
      <point x="500" y="-55" type="curve" smooth="yes"/>
      <point x="728" y="-55"/>
      <point x="912" y="129"/>
      <point x="912" y="357" type="curve" smooth="yes"/>
      <point x="912" y="584"/>
      <point x="728" y="769"/>
      <point x="500" y="769" type="curve" smooth="yes"/>
      <point x="272" y="769"/>
      <point x="88" y="584"/>
      <point x="88" y="357" type="curve" smooth="yes"/>
      <point x="88" y="129"/>
      <point x="272" y="-55"/>
    </contour>
    <contour>
      <point x="342" y="136" type="curve" smooth="yes"/>
      <point x="296" y="136"/>
      <point x="261" y="145"/>
      <point x="237" y="161" type="curve"/>
      <point x="237" y="228" type="line"/>
      <point x="268" y="205"/>
      <point x="310" y="193"/>
      <point x="339" y="193" type="curve" smooth="yes"/>
      <point x="393" y="193"/>
      <point x="421" y="221"/>
      <point x="421" y="276" type="curve" smooth="yes"/>
      <point x="421" y="327"/>
      <point x="389" y="356"/>
      <point x="338" y="356" type="curve" smooth="yes"/>
      <point x="320" y="356"/>
      <point x="298" y="352"/>
      <point x="272" y="344" type="curve"/>
      <point x="247" y="364" type="line"/>
      <point x="261" y="573" type="line"/>
      <point x="467" y="573" type="line"/>
      <point x="467" y="518" type="line"/>
      <point x="312" y="518" type="line"/>
      <point x="304" y="407" type="line"/>
      <point x="318" y="412"/>
      <point x="335" y="414"/>
      <point x="355" y="414" type="curve" smooth="yes"/>
      <point x="435" y="414"/>
      <point x="487" y="360"/>
      <point x="487" y="282" type="curve" smooth="yes"/>
      <point x="487" y="185"/>
      <point x="433" y="136"/>
    </contour>
    <contour>
      <point x="670" y="144" type="line"/>
      <point x="670" y="241" type="line"/>
      <point x="505" y="241" type="line"/>
      <point x="505" y="291" type="line"/>
      <point x="669" y="572" type="line"/>
      <point x="734" y="572" type="line"/>
      <point x="734" y="299" type="line"/>
      <point x="790" y="299" type="line"/>
      <point x="790" y="241" type="line"/>
      <point x="734" y="241" type="line"/>
      <point x="734" y="144" type="line"/>
    </contour>
    <contour>
      <point x="564" y="299" type="line"/>
      <point x="670" y="299" type="line"/>
      <point x="670" y="398" type="line" smooth="yes"/>
      <point x="670" y="439"/>
      <point x="673" y="480"/>
      <point x="674" y="513" type="curve"/>
      <point x="676" y="507" type="line"/>
      <point x="671" y="496"/>
      <point x="660" y="473"/>
      <point x="642" y="439" type="curve" smooth="yes"/>
    </contour>
  </outline>
</glyph>
<glyph name="circledblack55" format="2">
  <advance width="1000"/>
  <anchor x="500" y="357" name="C"/>
  <anchor x="360" y="357" name="L"/>
  <anchor x="640" y="357" name="R"/>
  <anchor x="650" y="357" name="_L"/>
  <anchor x="350" y="357" name="_R"/>
  <anchor x="500" y="0" name="center"/>
  <outline>
    <contour>
      <point x="500" y="-55" type="curve" smooth="yes"/>
      <point x="728" y="-55"/>
      <point x="912" y="129"/>
      <point x="912" y="357" type="curve" smooth="yes"/>
      <point x="912" y="584"/>
      <point x="728" y="769"/>
      <point x="500" y="769" type="curve" smooth="yes"/>
      <point x="272" y="769"/>
      <point x="88" y="584"/>
      <point x="88" y="357" type="curve" smooth="yes"/>
      <point x="88" y="129"/>
      <point x="272" y="-55"/>
    </contour>
    <contour>
      <point x="342" y="136" type="curve" smooth="yes"/>
      <point x="296" y="136"/>
      <point x="261" y="145"/>
      <point x="237" y="161" type="curve"/>
      <point x="237" y="228" type="line"/>
      <point x="268" y="205"/>
      <point x="310" y="193"/>
      <point x="339" y="193" type="curve" smooth="yes"/>
      <point x="393" y="193"/>
      <point x="421" y="221"/>
      <point x="421" y="276" type="curve" smooth="yes"/>
      <point x="421" y="327"/>
      <point x="389" y="356"/>
      <point x="338" y="356" type="curve" smooth="yes"/>
      <point x="320" y="356"/>
      <point x="298" y="352"/>
      <point x="272" y="344" type="curve"/>
      <point x="247" y="364" type="line"/>
      <point x="261" y="573" type="line"/>
      <point x="467" y="573" type="line"/>
      <point x="467" y="518" type="line"/>
      <point x="312" y="518" type="line"/>
      <point x="304" y="407" type="line"/>
      <point x="318" y="412"/>
      <point x="335" y="414"/>
      <point x="355" y="414" type="curve" smooth="yes"/>
      <point x="435" y="414"/>
      <point x="487" y="360"/>
      <point x="487" y="282" type="curve" smooth="yes"/>
      <point x="487" y="185"/>
      <point x="433" y="136"/>
    </contour>
    <contour>
      <point x="632" y="136" type="curve" smooth="yes"/>
      <point x="586" y="136"/>
      <point x="551" y="145"/>
      <point x="527" y="161" type="curve"/>
      <point x="527" y="228" type="line"/>
      <point x="558" y="205"/>
      <point x="600" y="193"/>
      <point x="629" y="193" type="curve" smooth="yes"/>
      <point x="683" y="193"/>
      <point x="711" y="221"/>
      <point x="711" y="276" type="curve" smooth="yes"/>
      <point x="711" y="327"/>
      <point x="679" y="356"/>
      <point x="628" y="356" type="curve" smooth="yes"/>
      <point x="610" y="356"/>
      <point x="588" y="352"/>
      <point x="562" y="344" type="curve"/>
      <point x="537" y="364" type="line"/>
      <point x="551" y="573" type="line"/>
      <point x="757" y="573" type="line"/>
      <point x="757" y="518" type="line"/>
      <point x="602" y="518" type="line"/>
      <point x="594" y="407" type="line"/>
      <point x="608" y="412"/>
      <point x="625" y="414"/>
      <point x="645" y="414" type="curve" smooth="yes"/>
      <point x="725" y="414"/>
      <point x="777" y="360"/>
      <point x="777" y="282" type="curve" smooth="yes"/>
      <point x="777" y="185"/>
      <point x="723" y="136"/>
    </contour>
  </outline>
</glyph>
<glyph name="circledblack56" format="2">
  <advance width="1000"/>
  <anchor x="500" y="357" name="C"/>
  <anchor x="360" y="357" name="L"/>
  <anchor x="640" y="357" name="R"/>
  <anchor x="660" y="357" name="_L"/>
  <anchor x="350" y="357" name="_R"/>
  <anchor x="500" y="0" name="center"/>
  <outline>
    <contour>
      <point x="500" y="-55" type="curve" smooth="yes"/>
      <point x="728" y="-55"/>
      <point x="912" y="129"/>
      <point x="912" y="357" type="curve" smooth="yes"/>
      <point x="912" y="584"/>
      <point x="728" y="769"/>
      <point x="500" y="769" type="curve" smooth="yes"/>
      <point x="272" y="769"/>
      <point x="88" y="584"/>
      <point x="88" y="357" type="curve" smooth="yes"/>
      <point x="88" y="129"/>
      <point x="272" y="-55"/>
    </contour>
    <contour>
      <point x="342" y="136" type="curve" smooth="yes"/>
      <point x="296" y="136"/>
      <point x="261" y="145"/>
      <point x="237" y="161" type="curve"/>
      <point x="237" y="228" type="line"/>
      <point x="268" y="205"/>
      <point x="310" y="193"/>
      <point x="339" y="193" type="curve" smooth="yes"/>
      <point x="393" y="193"/>
      <point x="421" y="221"/>
      <point x="421" y="276" type="curve" smooth="yes"/>
      <point x="421" y="327"/>
      <point x="389" y="356"/>
      <point x="338" y="356" type="curve" smooth="yes"/>
      <point x="320" y="356"/>
      <point x="298" y="352"/>
      <point x="272" y="344" type="curve"/>
      <point x="247" y="364" type="line"/>
      <point x="261" y="573" type="line"/>
      <point x="467" y="573" type="line"/>
      <point x="467" y="518" type="line"/>
      <point x="312" y="518" type="line"/>
      <point x="304" y="407" type="line"/>
      <point x="318" y="412"/>
      <point x="335" y="414"/>
      <point x="355" y="414" type="curve" smooth="yes"/>
      <point x="435" y="414"/>
      <point x="487" y="360"/>
      <point x="487" y="282" type="curve" smooth="yes"/>
      <point x="487" y="185"/>
      <point x="433" y="136"/>
    </contour>
    <contour>
      <point x="655" y="135" type="curve" smooth="yes"/>
      <point x="566" y="135"/>
      <point x="518" y="208"/>
      <point x="518" y="327" type="curve" smooth="yes"/>
      <point x="518" y="495"/>
      <point x="579" y="579"/>
      <point x="700" y="579" type="curve" smooth="yes"/>
      <point x="718" y="579"/>
      <point x="736" y="577"/>
      <point x="752" y="572" type="curve"/>
      <point x="752" y="513" type="line"/>
      <point x="736" y="519"/>
      <point x="718" y="522"/>
      <point x="698" y="522" type="curve" smooth="yes"/>
      <point x="623" y="522"/>
      <point x="584" y="476"/>
      <point x="578" y="369" type="curve"/>
      <point x="581" y="369" type="line"/>
      <point x="599" y="402"/>
      <point x="629" y="419"/>
      <point x="673" y="419" type="curve" smooth="yes"/>
      <point x="739" y="419"/>
      <point x="782" y="371"/>
      <point x="782" y="285" type="curve" smooth="yes"/>
      <point x="782" y="201"/>
      <point x="730" y="135"/>
    </contour>
    <contour>
      <point x="653" y="192" type="curve" smooth="yes"/>
      <point x="694" y="192"/>
      <point x="721" y="221"/>
      <point x="721" y="283" type="curve" smooth="yes"/>
      <point x="721" y="333"/>
      <point x="699" y="364"/>
      <point x="655" y="364" type="curve" smooth="yes"/>
      <point x="607" y="364"/>
      <point x="580" y="328"/>
      <point x="580" y="293" type="curve" smooth="yes"/>
      <point x="580" y="236"/>
      <point x="611" y="192"/>
    </contour>
  </outline>
</glyph>
<glyph name="circledblack58" format="2">
  <advance width="1000"/>
  <anchor x="500" y="357" name="C"/>
  <anchor x="360" y="357" name="L"/>
  <anchor x="640" y="357" name="R"/>
  <anchor x="646" y="357" name="_L"/>
  <anchor x="350" y="357" name="_R"/>
  <anchor x="500" y="0" name="center"/>
  <outline>
    <contour>
      <point x="500" y="-55" type="curve" smooth="yes"/>
      <point x="728" y="-55"/>
      <point x="912" y="129"/>
      <point x="912" y="357" type="curve" smooth="yes"/>
      <point x="912" y="584"/>
      <point x="728" y="769"/>
      <point x="500" y="769" type="curve" smooth="yes"/>
      <point x="272" y="769"/>
      <point x="88" y="584"/>
      <point x="88" y="357" type="curve" smooth="yes"/>
      <point x="88" y="129"/>
      <point x="272" y="-55"/>
    </contour>
    <contour>
      <point x="342" y="136" type="curve" smooth="yes"/>
      <point x="296" y="136"/>
      <point x="261" y="145"/>
      <point x="237" y="161" type="curve"/>
      <point x="237" y="228" type="line"/>
      <point x="268" y="205"/>
      <point x="310" y="193"/>
      <point x="339" y="193" type="curve" smooth="yes"/>
      <point x="393" y="193"/>
      <point x="421" y="221"/>
      <point x="421" y="276" type="curve" smooth="yes"/>
      <point x="421" y="327"/>
      <point x="389" y="356"/>
      <point x="338" y="356" type="curve" smooth="yes"/>
      <point x="320" y="356"/>
      <point x="298" y="352"/>
      <point x="272" y="344" type="curve"/>
      <point x="247" y="364" type="line"/>
      <point x="261" y="573" type="line"/>
      <point x="467" y="573" type="line"/>
      <point x="467" y="518" type="line"/>
      <point x="312" y="518" type="line"/>
      <point x="304" y="407" type="line"/>
      <point x="318" y="412"/>
      <point x="335" y="414"/>
      <point x="355" y="414" type="curve" smooth="yes"/>
      <point x="435" y="414"/>
      <point x="487" y="360"/>
      <point x="487" y="282" type="curve" smooth="yes"/>
      <point x="487" y="185"/>
      <point x="433" y="136"/>
    </contour>
    <contour>
      <point x="644" y="135" type="curve" smooth="yes"/>
      <point x="559" y="135"/>
      <point x="514" y="179"/>
      <point x="514" y="255" type="curve" smooth="yes"/>
      <point x="514" y="303"/>
      <point x="538" y="340"/>
      <point x="585" y="367" type="curve"/>
      <point x="547" y="394"/>
      <point x="526" y="417"/>
      <point x="526" y="468" type="curve" smooth="yes"/>
      <point x="526" y="536"/>
      <point x="574" y="580"/>
      <point x="644" y="580" type="curve" smooth="yes"/>
      <point x="712" y="580"/>
      <point x="759" y="537"/>
      <point x="759" y="471" type="curve" smooth="yes"/>
      <point x="759" y="430"/>
      <point x="737" y="396"/>
      <point x="693" y="370" type="curve"/>
      <point x="745" y="345"/>
      <point x="772" y="307"/>
      <point x="772" y="258" type="curve" smooth="yes"/>
      <point x="772" y="183"/>
      <point x="720" y="135"/>
    </contour>
    <contour>
      <point x="642" y="191" type="curve" smooth="yes"/>
      <point x="687" y="191"/>
      <point x="711" y="216"/>
      <point x="711" y="255" type="curve" smooth="yes"/>
      <point x="711" y="289"/>
      <point x="691" y="313"/>
      <point x="644" y="334" type="curve" smooth="yes"/>
      <point x="631" y="340" type="line"/>
      <point x="594" y="319"/>
      <point x="576" y="291"/>
      <point x="576" y="255" type="curve" smooth="yes"/>
      <point x="576" y="216"/>
      <point x="598" y="191"/>
    </contour>
    <contour>
      <point x="645" y="397" type="curve"/>
      <point x="681" y="414"/>
      <point x="698" y="438"/>
      <point x="698" y="469" type="curve" smooth="yes"/>
      <point x="698" y="504"/>
      <point x="676" y="525"/>
      <point x="643" y="525" type="curve" smooth="yes"/>
      <point x="609" y="525"/>
      <point x="588" y="504"/>
      <point x="588" y="469" type="curve" smooth="yes"/>
      <point x="588" y="440"/>
      <point x="607" y="416"/>
    </contour>
  </outline>
</glyph>
<glyph name="circledblack68" format="2">
  <advance width="1000"/>
  <anchor x="500" y="357" name="C"/>
  <anchor x="360" y="357" name="L"/>
  <anchor x="640" y="357" name="R"/>
  <anchor x="646" y="357" name="_L"/>
  <anchor x="340" y="357" name="_R"/>
  <anchor x="500" y="0" name="center"/>
  <outline>
    <contour>
      <point x="500" y="-55" type="curve" smooth="yes"/>
      <point x="728" y="-55"/>
      <point x="912" y="129"/>
      <point x="912" y="357" type="curve" smooth="yes"/>
      <point x="912" y="584"/>
      <point x="728" y="769"/>
      <point x="500" y="769" type="curve" smooth="yes"/>
      <point x="272" y="769"/>
      <point x="88" y="584"/>
      <point x="88" y="357" type="curve" smooth="yes"/>
      <point x="88" y="129"/>
      <point x="272" y="-55"/>
    </contour>
    <contour>
      <point x="355" y="135" type="curve" smooth="yes"/>
      <point x="266" y="135"/>
      <point x="218" y="208"/>
      <point x="218" y="327" type="curve" smooth="yes"/>
      <point x="218" y="495"/>
      <point x="279" y="579"/>
      <point x="400" y="579" type="curve" smooth="yes"/>
      <point x="418" y="579"/>
      <point x="436" y="577"/>
      <point x="452" y="572" type="curve"/>
      <point x="452" y="513" type="line"/>
      <point x="436" y="519"/>
      <point x="418" y="522"/>
      <point x="398" y="522" type="curve" smooth="yes"/>
      <point x="323" y="522"/>
      <point x="284" y="476"/>
      <point x="278" y="369" type="curve"/>
      <point x="281" y="369" type="line"/>
      <point x="299" y="402"/>
      <point x="329" y="419"/>
      <point x="373" y="419" type="curve" smooth="yes"/>
      <point x="439" y="419"/>
      <point x="482" y="371"/>
      <point x="482" y="285" type="curve" smooth="yes"/>
      <point x="482" y="201"/>
      <point x="430" y="135"/>
    </contour>
    <contour>
      <point x="353" y="192" type="curve" smooth="yes"/>
      <point x="394" y="192"/>
      <point x="421" y="221"/>
      <point x="421" y="283" type="curve" smooth="yes"/>
      <point x="421" y="333"/>
      <point x="399" y="364"/>
      <point x="355" y="364" type="curve" smooth="yes"/>
      <point x="307" y="364"/>
      <point x="280" y="328"/>
      <point x="280" y="293" type="curve" smooth="yes"/>
      <point x="280" y="236"/>
      <point x="311" y="192"/>
    </contour>
    <contour>
      <point x="644" y="135" type="curve" smooth="yes"/>
      <point x="559" y="135"/>
      <point x="514" y="179"/>
      <point x="514" y="255" type="curve" smooth="yes"/>
      <point x="514" y="303"/>
      <point x="538" y="340"/>
      <point x="585" y="367" type="curve"/>
      <point x="547" y="394"/>
      <point x="526" y="417"/>
      <point x="526" y="468" type="curve" smooth="yes"/>
      <point x="526" y="536"/>
      <point x="574" y="580"/>
      <point x="644" y="580" type="curve" smooth="yes"/>
      <point x="712" y="580"/>
      <point x="759" y="537"/>
      <point x="759" y="471" type="curve" smooth="yes"/>
      <point x="759" y="430"/>
      <point x="737" y="396"/>
      <point x="693" y="370" type="curve"/>
      <point x="745" y="345"/>
      <point x="772" y="307"/>
      <point x="772" y="258" type="curve" smooth="yes"/>
      <point x="772" y="183"/>
      <point x="720" y="135"/>
    </contour>
    <contour>
      <point x="642" y="191" type="curve" smooth="yes"/>
      <point x="687" y="191"/>
      <point x="711" y="216"/>
      <point x="711" y="255" type="curve" smooth="yes"/>
      <point x="711" y="289"/>
      <point x="691" y="313"/>
      <point x="644" y="334" type="curve" smooth="yes"/>
      <point x="631" y="340" type="line"/>
      <point x="594" y="319"/>
      <point x="576" y="291"/>
      <point x="576" y="255" type="curve" smooth="yes"/>
      <point x="576" y="216"/>
      <point x="598" y="191"/>
    </contour>
    <contour>
      <point x="645" y="397" type="curve"/>
      <point x="681" y="414"/>
      <point x="698" y="438"/>
      <point x="698" y="469" type="curve" smooth="yes"/>
      <point x="698" y="504"/>
      <point x="676" y="525"/>
      <point x="643" y="525" type="curve" smooth="yes"/>
      <point x="609" y="525"/>
      <point x="588" y="504"/>
      <point x="588" y="469" type="curve" smooth="yes"/>
      <point x="588" y="440"/>
      <point x="607" y="416"/>
    </contour>
  </outline>
</glyph>
<glyph name="circledblack70" format="2">
  <advance width="1000"/>
  <anchor x="500" y="357" name="C"/>
  <anchor x="360" y="357" name="L"/>
  <anchor x="640" y="357" name="R"/>
  <anchor x="660" y="357" name="_L"/>
  <anchor x="380" y="357" name="_R"/>
  <anchor x="500" y="0" name="center"/>
  <outline>
    <contour>
      <point x="500" y="-55" type="curve" smooth="yes"/>
      <point x="728" y="-55"/>
      <point x="912" y="129"/>
      <point x="912" y="357" type="curve" smooth="yes"/>
      <point x="912" y="584"/>
      <point x="728" y="769"/>
      <point x="500" y="769" type="curve" smooth="yes"/>
      <point x="272" y="769"/>
      <point x="88" y="584"/>
      <point x="88" y="357" type="curve" smooth="yes"/>
      <point x="88" y="129"/>
      <point x="272" y="-55"/>
    </contour>
    <contour>
      <point x="284" y="144" type="line"/>
      <point x="431" y="513" type="line"/>
      <point x="256" y="513" type="line"/>
      <point x="256" y="573" type="line"/>
      <point x="499" y="573" type="line"/>
      <point x="499" y="524" type="line"/>
      <point x="349" y="144" type="line"/>
    </contour>
    <contour>
      <point x="650" y="135" type="curve" smooth="yes"/>
      <point x="564" y="135"/>
      <point x="518" y="209"/>
      <point x="518" y="359" type="curve" smooth="yes"/>
      <point x="518" y="506"/>
      <point x="564" y="580"/>
      <point x="650" y="580" type="curve" smooth="yes"/>
      <point x="736" y="580"/>
      <point x="782" y="506"/>
      <point x="782" y="359" type="curve" smooth="yes"/>
      <point x="782" y="209"/>
      <point x="736" y="135"/>
    </contour>
    <contour>
      <point x="650" y="194" type="curve" smooth="yes"/>
      <point x="693" y="194"/>
      <point x="718" y="249"/>
      <point x="718" y="359" type="curve" smooth="yes"/>
      <point x="718" y="456"/>
      <point x="687" y="522"/>
      <point x="650" y="522" type="curve" smooth="yes"/>
      <point x="595" y="522"/>
      <point x="583" y="441"/>
      <point x="583" y="358" type="curve" smooth="yes"/>
      <point x="583" y="272"/>
      <point x="596" y="194"/>
    </contour>
  </outline>
</glyph>
<glyph name="circledblack71" format="2">
  <advance width="1000"/>
  <anchor x="500" y="357" name="C"/>
  <anchor x="360" y="357" name="L"/>
  <anchor x="640" y="357" name="R"/>
  <anchor x="630" y="357" name="_L"/>
  <anchor x="380" y="357" name="_R"/>
  <anchor x="500" y="0" name="center"/>
  <outline>
    <contour>
      <point x="500" y="-55" type="curve" smooth="yes"/>
      <point x="728" y="-55"/>
      <point x="912" y="129"/>
      <point x="912" y="357" type="curve" smooth="yes"/>
      <point x="912" y="584"/>
      <point x="728" y="769"/>
      <point x="500" y="769" type="curve" smooth="yes"/>
      <point x="272" y="769"/>
      <point x="88" y="584"/>
      <point x="88" y="357" type="curve" smooth="yes"/>
      <point x="88" y="129"/>
      <point x="272" y="-55"/>
    </contour>
    <contour>
      <point x="284" y="144" type="line"/>
      <point x="431" y="513" type="line"/>
      <point x="256" y="513" type="line"/>
      <point x="256" y="573" type="line"/>
      <point x="499" y="573" type="line"/>
      <point x="499" y="524" type="line"/>
      <point x="349" y="144" type="line"/>
    </contour>
    <contour>
      <point x="528" y="144" type="line"/>
      <point x="528" y="204" type="line"/>
      <point x="608" y="204" type="line"/>
      <point x="608" y="467" type="line" smooth="yes"/>
      <point x="608" y="481"/>
      <point x="609" y="495"/>
      <point x="610" y="509" type="curve"/>
      <point x="605" y="503"/>
      <point x="597" y="495"/>
      <point x="585" y="485" type="curve" smooth="yes"/>
      <point x="570" y="474"/>
      <point x="562" y="458"/>
      <point x="539" y="440" type="curve"/>
      <point x="507" y="489" type="line"/>
      <point x="604" y="572" type="line"/>
      <point x="672" y="572" type="line"/>
      <point x="672" y="204" type="line"/>
      <point x="752" y="204" type="line"/>
      <point x="752" y="144" type="line"/>
    </contour>
  </outline>
</glyph>
<glyph name="circledblack8" format="2">
  <advance width="1000"/>
  <anchor x="500" y="357" name="C"/>
  <anchor x="360" y="357" name="L"/>
  <anchor x="640" y="357" name="R"/>
  <anchor x="500" y="0" name="center"/>
  <outline>
    <contour>
      <point x="500" y="-55" type="curve" smooth="yes"/>
      <point x="728" y="-55"/>
      <point x="912" y="129"/>
      <point x="912" y="357" type="curve" smooth="yes"/>
      <point x="912" y="584"/>
      <point x="728" y="769"/>
      <point x="500" y="769" type="curve" smooth="yes"/>
      <point x="272" y="769"/>
      <point x="88" y="584"/>
      <point x="88" y="357" type="curve" smooth="yes"/>
      <point x="88" y="129"/>
      <point x="272" y="-55"/>
    </contour>
    <contour>
      <point x="501" y="135" type="curve" smooth="yes"/>
      <point x="405" y="135"/>
      <point x="353" y="179"/>
      <point x="353" y="255" type="curve" smooth="yes"/>
      <point x="353" y="303"/>
      <point x="378" y="340"/>
      <point x="428" y="367" type="curve"/>
      <point x="388" y="394"/>
      <point x="366" y="417"/>
      <point x="366" y="468" type="curve" smooth="yes"/>
      <point x="366" y="536"/>
      <point x="423" y="580"/>
      <point x="501" y="580" type="curve" smooth="yes"/>
      <point x="580" y="580"/>
      <point x="633" y="538"/>
      <point x="633" y="471" type="curve" smooth="yes"/>
      <point x="633" y="430"/>
      <point x="609" y="396"/>
      <point x="563" y="370" type="curve"/>
      <point x="619" y="345"/>
      <point x="647" y="307"/>
      <point x="647" y="258" type="curve" smooth="yes"/>
      <point x="647" y="183"/>
      <point x="588" y="135"/>
    </contour>
    <contour>
      <point x="499" y="191" type="curve" smooth="yes"/>
      <point x="552" y="191"/>
      <point x="579" y="212"/>
      <point x="579" y="255" type="curve" smooth="yes"/>
      <point x="579" y="290"/>
      <point x="552" y="316"/>
      <point x="498" y="335" type="curve" smooth="yes"/>
      <point x="485" y="340" type="line"/>
      <point x="441" y="319"/>
      <point x="420" y="291"/>
      <point x="420" y="255" type="curve" smooth="yes"/>
      <point x="420" y="212"/>
      <point x="446" y="191"/>
    </contour>
    <contour>
      <point x="502" y="397" type="curve"/>
      <point x="545" y="414"/>
      <point x="567" y="438"/>
      <point x="567" y="469" type="curve" smooth="yes"/>
      <point x="567" y="504"/>
      <point x="541" y="525"/>
      <point x="500" y="525" type="curve" smooth="yes"/>
      <point x="457" y="525"/>
      <point x="433" y="504"/>
      <point x="433" y="469" type="curve" smooth="yes"/>
      <point x="433" y="440"/>
      <point x="456" y="416"/>
    </contour>
  </outline>
</glyph>
<glyph name="circledblack9" format="2">
  <advance width="1000"/>
  <anchor x="500" y="357" name="C"/>
  <anchor x="360" y="357" name="L"/>
  <anchor x="640" y="357" name="R"/>
  <anchor x="500" y="0" name="center"/>
  <outline>
    <contour>
      <point x="500" y="-55" type="curve" smooth="yes"/>
      <point x="728" y="-55"/>
      <point x="912" y="129"/>
      <point x="912" y="357" type="curve" smooth="yes"/>
      <point x="912" y="584"/>
      <point x="728" y="769"/>
      <point x="500" y="769" type="curve" smooth="yes"/>
      <point x="272" y="769"/>
      <point x="88" y="584"/>
      <point x="88" y="357" type="curve" smooth="yes"/>
      <point x="88" y="129"/>
      <point x="272" y="-55"/>
    </contour>
    <contour>
      <point x="449" y="135" type="curve" smooth="yes"/>
      <point x="425" y="135"/>
      <point x="404" y="137"/>
      <point x="387" y="142" type="curve"/>
      <point x="387" y="202" type="line"/>
      <point x="402" y="195"/>
      <point x="424" y="192"/>
      <point x="453" y="192" type="curve" smooth="yes"/>
      <point x="537" y="192"/>
      <point x="588" y="237"/>
      <point x="594" y="346" type="curve"/>
      <point x="589" y="346" type="line"/>
      <point x="566" y="313"/>
      <point x="533" y="297"/>
      <point x="487" y="297" type="curve" smooth="yes"/>
      <point x="403" y="297"/>
      <point x="352" y="348"/>
      <point x="352" y="432" type="curve" smooth="yes"/>
      <point x="352" y="519"/>
      <point x="410" y="579"/>
      <point x="500" y="579" type="curve" smooth="yes"/>
      <point x="599" y="579"/>
      <point x="658" y="507"/>
      <point x="658" y="389" type="curve" smooth="yes"/>
      <point x="658" y="220"/>
      <point x="588" y="135"/>
    </contour>
    <contour>
      <point x="498" y="352" type="curve" smooth="yes"/>
      <point x="554" y="352"/>
      <point x="590" y="387"/>
      <point x="590" y="422" type="curve" smooth="yes"/>
      <point x="590" y="477"/>
      <point x="563" y="522"/>
      <point x="500" y="522" type="curve" smooth="yes"/>
      <point x="453" y="522"/>
      <point x="419" y="492"/>
      <point x="419" y="435" type="curve" smooth="yes"/>
      <point x="419" y="384"/>
      <point x="445" y="352"/>
    </contour>
  </outline>
</glyph>
<glyph name="circledblack91" format="2">
  <advance width="1000"/>
  <anchor x="500" y="357" name="C"/>
  <anchor x="360" y="357" name="L"/>
  <anchor x="640" y="357" name="R"/>
  <anchor x="630" y="357" name="_L"/>
  <anchor x="340" y="357" name="_R"/>
  <anchor x="500" y="0" name="center"/>
  <outline>
    <contour>
      <point x="500" y="-55" type="curve" smooth="yes"/>
      <point x="728" y="-55"/>
      <point x="912" y="129"/>
      <point x="912" y="357" type="curve" smooth="yes"/>
      <point x="912" y="584"/>
      <point x="728" y="769"/>
      <point x="500" y="769" type="curve" smooth="yes"/>
      <point x="272" y="769"/>
      <point x="88" y="584"/>
      <point x="88" y="357" type="curve" smooth="yes"/>
      <point x="88" y="129"/>
      <point x="272" y="-55"/>
    </contour>
    <contour>
      <point x="300" y="135" type="curve" smooth="yes"/>
      <point x="282" y="135"/>
      <point x="264" y="137"/>
      <point x="248" y="142" type="curve"/>
      <point x="248" y="201" type="line"/>
      <point x="264" y="195"/>
      <point x="282" y="192"/>
      <point x="302" y="192" type="curve" smooth="yes"/>
      <point x="379" y="192"/>
      <point x="417" y="240"/>
      <point x="422" y="345" type="curve"/>
      <point x="419" y="345" type="line"/>
      <point x="401" y="312"/>
      <point x="371" y="295"/>
      <point x="327" y="295" type="curve" smooth="yes"/>
      <point x="262" y="295"/>
      <point x="218" y="344"/>
      <point x="218" y="429" type="curve" smooth="yes"/>
      <point x="218" y="519"/>
      <point x="268" y="579"/>
      <point x="345" y="579" type="curve" smooth="yes"/>
      <point x="424" y="579"/>
      <point x="482" y="516"/>
      <point x="482" y="387" type="curve" smooth="yes"/>
      <point x="482" y="219"/>
      <point x="422" y="135"/>
    </contour>
    <contour>
      <point x="345" y="350" type="curve" smooth="yes"/>
      <point x="393" y="350"/>
      <point x="420" y="386"/>
      <point x="420" y="421" type="curve" smooth="yes"/>
      <point x="420" y="478"/>
      <point x="389" y="522"/>
      <point x="347" y="522" type="curve" smooth="yes"/>
      <point x="306" y="522"/>
      <point x="280" y="492"/>
      <point x="280" y="431" type="curve" smooth="yes"/>
      <point x="280" y="380"/>
      <point x="302" y="350"/>
    </contour>
    <contour>
      <point x="528" y="144" type="line"/>
      <point x="528" y="204" type="line"/>
      <point x="608" y="204" type="line"/>
      <point x="608" y="467" type="line" smooth="yes"/>
      <point x="608" y="481"/>
      <point x="609" y="495"/>
      <point x="610" y="509" type="curve"/>
      <point x="605" y="503"/>
      <point x="597" y="495"/>
      <point x="585" y="485" type="curve" smooth="yes"/>
      <point x="570" y="474"/>
      <point x="562" y="458"/>
      <point x="539" y="440" type="curve"/>
      <point x="507" y="489" type="line"/>
      <point x="604" y="572" type="line"/>
      <point x="672" y="572" type="line"/>
      <point x="672" y="204" type="line"/>
      <point x="752" y="204" type="line"/>
      <point x="752" y="144" type="line"/>
    </contour>
  </outline>
</glyph>
<glyph name="circledblack96" format="2">
  <advance width="1000"/>
  <anchor x="500" y="357" name="C"/>
  <anchor x="360" y="357" name="L"/>
  <anchor x="640" y="357" name="R"/>
  <anchor x="660" y="357" name="_L"/>
  <anchor x="340" y="357" name="_R"/>
  <anchor x="500" y="0" name="center"/>
  <outline>
    <contour>
      <point x="500" y="-55" type="curve" smooth="yes"/>
      <point x="728" y="-55"/>
      <point x="912" y="129"/>
      <point x="912" y="357" type="curve" smooth="yes"/>
      <point x="912" y="584"/>
      <point x="728" y="769"/>
      <point x="500" y="769" type="curve" smooth="yes"/>
      <point x="272" y="769"/>
      <point x="88" y="584"/>
      <point x="88" y="357" type="curve" smooth="yes"/>
      <point x="88" y="129"/>
      <point x="272" y="-55"/>
    </contour>
    <contour>
      <point x="300" y="135" type="curve" smooth="yes"/>
      <point x="282" y="135"/>
      <point x="264" y="137"/>
      <point x="248" y="142" type="curve"/>
      <point x="248" y="201" type="line"/>
      <point x="264" y="195"/>
      <point x="282" y="192"/>
      <point x="302" y="192" type="curve" smooth="yes"/>
      <point x="379" y="192"/>
      <point x="417" y="240"/>
      <point x="422" y="345" type="curve"/>
      <point x="419" y="345" type="line"/>
      <point x="401" y="312"/>
      <point x="371" y="295"/>
      <point x="327" y="295" type="curve" smooth="yes"/>
      <point x="262" y="295"/>
      <point x="218" y="344"/>
      <point x="218" y="429" type="curve" smooth="yes"/>
      <point x="218" y="519"/>
      <point x="268" y="579"/>
      <point x="345" y="579" type="curve" smooth="yes"/>
      <point x="424" y="579"/>
      <point x="482" y="516"/>
      <point x="482" y="387" type="curve" smooth="yes"/>
      <point x="482" y="219"/>
      <point x="422" y="135"/>
    </contour>
    <contour>
      <point x="345" y="350" type="curve" smooth="yes"/>
      <point x="393" y="350"/>
      <point x="420" y="386"/>
      <point x="420" y="421" type="curve" smooth="yes"/>
      <point x="420" y="478"/>
      <point x="389" y="522"/>
      <point x="347" y="522" type="curve" smooth="yes"/>
      <point x="306" y="522"/>
      <point x="280" y="492"/>
      <point x="280" y="431" type="curve" smooth="yes"/>
      <point x="280" y="380"/>
      <point x="302" y="350"/>
    </contour>
    <contour>
      <point x="655" y="135" type="curve" smooth="yes"/>
      <point x="566" y="135"/>
      <point x="518" y="208"/>
      <point x="518" y="327" type="curve" smooth="yes"/>
      <point x="518" y="495"/>
      <point x="579" y="579"/>
      <point x="700" y="579" type="curve" smooth="yes"/>
      <point x="718" y="579"/>
      <point x="736" y="577"/>
      <point x="752" y="572" type="curve"/>
      <point x="752" y="513" type="line"/>
      <point x="736" y="519"/>
      <point x="718" y="522"/>
      <point x="698" y="522" type="curve" smooth="yes"/>
      <point x="623" y="522"/>
      <point x="584" y="476"/>
      <point x="578" y="369" type="curve"/>
      <point x="581" y="369" type="line"/>
      <point x="599" y="402"/>
      <point x="629" y="419"/>
      <point x="673" y="419" type="curve" smooth="yes"/>
      <point x="739" y="419"/>
      <point x="782" y="371"/>
      <point x="782" y="285" type="curve" smooth="yes"/>
      <point x="782" y="201"/>
      <point x="730" y="135"/>
    </contour>
    <contour>
      <point x="653" y="192" type="curve" smooth="yes"/>
      <point x="694" y="192"/>
      <point x="721" y="221"/>
      <point x="721" y="283" type="curve" smooth="yes"/>
      <point x="721" y="333"/>
      <point x="699" y="364"/>
      <point x="655" y="364" type="curve" smooth="yes"/>
      <point x="607" y="364"/>
      <point x="580" y="328"/>
      <point x="580" y="293" type="curve" smooth="yes"/>
      <point x="580" y="236"/>
      <point x="611" y="192"/>
    </contour>
  </outline>
</glyph>
<glyph name="circlednumrev0" format="2">
  <advance width="1000"/>
  <anchor x="500" y="357" name="C"/>
  <anchor x="360" y="357" name="L"/>
  <anchor x="640" y="357" name="R"/>
  <anchor x="500" y="0" name="center"/>
  <outline>
    <contour>
      <point x="500" y="-55" type="curve" smooth="yes"/>
      <point x="728" y="-55"/>
      <point x="912" y="129"/>
      <point x="912" y="357" type="curve" smooth="yes"/>
      <point x="912" y="584"/>
      <point x="728" y="769"/>
      <point x="500" y="769" type="curve" smooth="yes"/>
      <point x="272" y="769"/>
      <point x="88" y="584"/>
      <point x="88" y="357" type="curve" smooth="yes"/>
      <point x="88" y="129"/>
      <point x="272" y="-55"/>
    </contour>
    <contour>
      <point x="500" y="141" type="curve" smooth="yes"/>
      <point x="412" y="141"/>
      <point x="339" y="196"/>
      <point x="339" y="363" type="curve" smooth="yes"/>
      <point x="339" y="530"/>
      <point x="412" y="586"/>
      <point x="500" y="586" type="curve" smooth="yes"/>
      <point x="588" y="586"/>
      <point x="661" y="530"/>
      <point x="661" y="363" type="curve" smooth="yes"/>
      <point x="661" y="196"/>
      <point x="588" y="141"/>
    </contour>
    <contour>
      <point x="500" y="197" type="curve" smooth="yes"/>
      <point x="559" y="197"/>
      <point x="594" y="244"/>
      <point x="594" y="363" type="curve" smooth="yes"/>
      <point x="594" y="482"/>
      <point x="559" y="530"/>
      <point x="500" y="530" type="curve" smooth="yes"/>
      <point x="441" y="530"/>
      <point x="406" y="482"/>
      <point x="406" y="363" type="curve" smooth="yes"/>
      <point x="406" y="244"/>
      <point x="443" y="197"/>
    </contour>
  </outline>
</glyph>
<glyph name="circlednumrev21" format="2">
  <advance width="1000"/>
  <anchor x="500" y="357" name="C"/>
  <anchor x="360" y="357" name="L"/>
  <anchor x="640" y="357" name="R"/>
  <anchor x="630" y="357" name="_L"/>
  <anchor x="380" y="357" name="_R"/>
  <anchor x="500" y="0" name="center"/>
  <outline>
    <contour>
      <point x="500" y="-55" type="curve" smooth="yes"/>
      <point x="728" y="-55"/>
      <point x="912" y="129"/>
      <point x="912" y="357" type="curve" smooth="yes"/>
      <point x="912" y="584"/>
      <point x="728" y="769"/>
      <point x="500" y="769" type="curve" smooth="yes"/>
      <point x="272" y="769"/>
      <point x="88" y="584"/>
      <point x="88" y="357" type="curve" smooth="yes"/>
      <point x="88" y="129"/>
      <point x="272" y="-55"/>
    </contour>
    <contour>
      <point x="247" y="143" type="line"/>
      <point x="247" y="197" type="line"/>
      <point x="345" y="309" type="line" smooth="yes"/>
      <point x="398" y="370"/>
      <point x="429" y="406"/>
      <point x="429" y="460" type="curve" smooth="yes"/>
      <point x="429" y="498"/>
      <point x="406" y="522"/>
      <point x="371" y="522" type="curve" smooth="yes"/>
      <point x="341" y="522"/>
      <point x="312" y="508"/>
      <point x="281" y="479" type="curve"/>
      <point x="250" y="525" type="line"/>
      <point x="288" y="562"/>
      <point x="330" y="580"/>
      <point x="374" y="580" type="curve" smooth="yes"/>
      <point x="449" y="580"/>
      <point x="494" y="536"/>
      <point x="494" y="462" type="curve" smooth="yes"/>
      <point x="494" y="398"/>
      <point x="450" y="348"/>
      <point x="377" y="265" type="curve" smooth="yes"/>
      <point x="309" y="189" type="line"/>
      <point x="302" y="205" type="line"/>
      <point x="493" y="205" type="line"/>
      <point x="493" y="143" type="line"/>
    </contour>
    <contour>
      <point x="528" y="144" type="line"/>
      <point x="528" y="204" type="line"/>
      <point x="608" y="204" type="line"/>
      <point x="608" y="467" type="line" smooth="yes"/>
      <point x="608" y="481"/>
      <point x="609" y="495"/>
      <point x="610" y="509" type="curve"/>
      <point x="605" y="503"/>
      <point x="597" y="495"/>
      <point x="585" y="485" type="curve" smooth="yes"/>
      <point x="570" y="474"/>
      <point x="562" y="458"/>
      <point x="539" y="440" type="curve"/>
      <point x="507" y="489" type="line"/>
      <point x="604" y="572" type="line"/>
      <point x="672" y="572" type="line"/>
      <point x="672" y="204" type="line"/>
      <point x="752" y="204" type="line"/>
      <point x="752" y="144" type="line"/>
    </contour>
  </outline>
</glyph>
<glyph name="circlednumrev24" format="2">
  <advance width="1000"/>
  <anchor x="500" y="357" name="C"/>
  <anchor x="360" y="357" name="L"/>
  <anchor x="640" y="357" name="R"/>
  <anchor x="660" y="357" name="_L"/>
  <anchor x="380" y="357" name="_R"/>
  <anchor x="500" y="0" name="center"/>
  <outline>
    <contour>
      <point x="500" y="-55" type="curve" smooth="yes"/>
      <point x="728" y="-55"/>
      <point x="912" y="129"/>
      <point x="912" y="357" type="curve" smooth="yes"/>
      <point x="912" y="584"/>
      <point x="728" y="769"/>
      <point x="500" y="769" type="curve" smooth="yes"/>
      <point x="272" y="769"/>
      <point x="88" y="584"/>
      <point x="88" y="357" type="curve" smooth="yes"/>
      <point x="88" y="129"/>
      <point x="272" y="-55"/>
    </contour>
    <contour>
      <point x="247" y="143" type="line"/>
      <point x="247" y="197" type="line"/>
      <point x="345" y="309" type="line" smooth="yes"/>
      <point x="398" y="370"/>
      <point x="429" y="406"/>
      <point x="429" y="460" type="curve" smooth="yes"/>
      <point x="429" y="498"/>
      <point x="406" y="522"/>
      <point x="371" y="522" type="curve" smooth="yes"/>
      <point x="341" y="522"/>
      <point x="312" y="508"/>
      <point x="281" y="479" type="curve"/>
      <point x="250" y="525" type="line"/>
      <point x="288" y="562"/>
      <point x="330" y="580"/>
      <point x="374" y="580" type="curve" smooth="yes"/>
      <point x="449" y="580"/>
      <point x="494" y="536"/>
      <point x="494" y="462" type="curve" smooth="yes"/>
      <point x="494" y="398"/>
      <point x="450" y="348"/>
      <point x="377" y="265" type="curve" smooth="yes"/>
      <point x="309" y="189" type="line"/>
      <point x="302" y="205" type="line"/>
      <point x="493" y="205" type="line"/>
      <point x="493" y="143" type="line"/>
    </contour>
    <contour>
      <point x="670" y="144" type="line"/>
      <point x="670" y="241" type="line"/>
      <point x="505" y="241" type="line"/>
      <point x="505" y="291" type="line"/>
      <point x="669" y="572" type="line"/>
      <point x="734" y="572" type="line"/>
      <point x="734" y="299" type="line"/>
      <point x="790" y="299" type="line"/>
      <point x="790" y="241" type="line"/>
      <point x="734" y="241" type="line"/>
      <point x="734" y="144" type="line"/>
    </contour>
    <contour>
      <point x="564" y="299" type="line"/>
      <point x="670" y="299" type="line"/>
      <point x="670" y="398" type="line" smooth="yes"/>
      <point x="670" y="439"/>
      <point x="673" y="480"/>
      <point x="674" y="513" type="curve"/>
      <point x="676" y="507" type="line"/>
      <point x="671" y="496"/>
      <point x="660" y="473"/>
      <point x="642" y="439" type="curve" smooth="yes"/>
    </contour>
  </outline>
</glyph>
<glyph name="circlednumrev25" format="2">
  <advance width="1000"/>
  <anchor x="500" y="357" name="C"/>
  <anchor x="360" y="357" name="L"/>
  <anchor x="640" y="357" name="R"/>
  <anchor x="650" y="357" name="_L"/>
  <anchor x="380" y="357" name="_R"/>
  <anchor x="500" y="0" name="center"/>
  <outline>
    <contour>
      <point x="500" y="-55" type="curve" smooth="yes"/>
      <point x="728" y="-55"/>
      <point x="912" y="129"/>
      <point x="912" y="357" type="curve" smooth="yes"/>
      <point x="912" y="584"/>
      <point x="728" y="769"/>
      <point x="500" y="769" type="curve" smooth="yes"/>
      <point x="272" y="769"/>
      <point x="88" y="584"/>
      <point x="88" y="357" type="curve" smooth="yes"/>
      <point x="88" y="129"/>
      <point x="272" y="-55"/>
    </contour>
    <contour>
      <point x="247" y="143" type="line"/>
      <point x="247" y="197" type="line"/>
      <point x="345" y="309" type="line" smooth="yes"/>
      <point x="398" y="370"/>
      <point x="429" y="406"/>
      <point x="429" y="460" type="curve" smooth="yes"/>
      <point x="429" y="498"/>
      <point x="406" y="522"/>
      <point x="371" y="522" type="curve" smooth="yes"/>
      <point x="341" y="522"/>
      <point x="312" y="508"/>
      <point x="281" y="479" type="curve"/>
      <point x="250" y="525" type="line"/>
      <point x="288" y="562"/>
      <point x="330" y="580"/>
      <point x="374" y="580" type="curve" smooth="yes"/>
      <point x="449" y="580"/>
      <point x="494" y="536"/>
      <point x="494" y="462" type="curve" smooth="yes"/>
      <point x="494" y="398"/>
      <point x="450" y="348"/>
      <point x="377" y="265" type="curve" smooth="yes"/>
      <point x="309" y="189" type="line"/>
      <point x="302" y="205" type="line"/>
      <point x="493" y="205" type="line"/>
      <point x="493" y="143" type="line"/>
    </contour>
    <contour>
      <point x="632" y="136" type="curve" smooth="yes"/>
      <point x="586" y="136"/>
      <point x="551" y="145"/>
      <point x="527" y="161" type="curve"/>
      <point x="527" y="228" type="line"/>
      <point x="558" y="205"/>
      <point x="600" y="193"/>
      <point x="629" y="193" type="curve" smooth="yes"/>
      <point x="683" y="193"/>
      <point x="711" y="221"/>
      <point x="711" y="276" type="curve" smooth="yes"/>
      <point x="711" y="327"/>
      <point x="679" y="356"/>
      <point x="628" y="356" type="curve" smooth="yes"/>
      <point x="610" y="356"/>
      <point x="588" y="352"/>
      <point x="562" y="344" type="curve"/>
      <point x="537" y="364" type="line"/>
      <point x="551" y="573" type="line"/>
      <point x="757" y="573" type="line"/>
      <point x="757" y="518" type="line"/>
      <point x="602" y="518" type="line"/>
      <point x="594" y="407" type="line"/>
      <point x="608" y="412"/>
      <point x="625" y="414"/>
      <point x="645" y="414" type="curve" smooth="yes"/>
      <point x="725" y="414"/>
      <point x="777" y="360"/>
      <point x="777" y="282" type="curve" smooth="yes"/>
      <point x="777" y="185"/>
      <point x="723" y="136"/>
    </contour>
  </outline>
</glyph>
<glyph name="circlednumrev26" format="2">
  <advance width="1000"/>
  <anchor x="500" y="357" name="C"/>
  <anchor x="360" y="357" name="L"/>
  <anchor x="640" y="357" name="R"/>
  <anchor x="660" y="357" name="_L"/>
  <anchor x="380" y="357" name="_R"/>
  <anchor x="500" y="0" name="center"/>
  <outline>
    <contour>
      <point x="500" y="-55" type="curve" smooth="yes"/>
      <point x="728" y="-55"/>
      <point x="912" y="129"/>
      <point x="912" y="357" type="curve" smooth="yes"/>
      <point x="912" y="584"/>
      <point x="728" y="769"/>
      <point x="500" y="769" type="curve" smooth="yes"/>
      <point x="272" y="769"/>
      <point x="88" y="584"/>
      <point x="88" y="357" type="curve" smooth="yes"/>
      <point x="88" y="129"/>
      <point x="272" y="-55"/>
    </contour>
    <contour>
      <point x="247" y="143" type="line"/>
      <point x="247" y="197" type="line"/>
      <point x="345" y="309" type="line" smooth="yes"/>
      <point x="398" y="370"/>
      <point x="429" y="406"/>
      <point x="429" y="460" type="curve" smooth="yes"/>
      <point x="429" y="498"/>
      <point x="406" y="522"/>
      <point x="371" y="522" type="curve" smooth="yes"/>
      <point x="341" y="522"/>
      <point x="312" y="508"/>
      <point x="281" y="479" type="curve"/>
      <point x="250" y="525" type="line"/>
      <point x="288" y="562"/>
      <point x="330" y="580"/>
      <point x="374" y="580" type="curve" smooth="yes"/>
      <point x="449" y="580"/>
      <point x="494" y="536"/>
      <point x="494" y="462" type="curve" smooth="yes"/>
      <point x="494" y="398"/>
      <point x="450" y="348"/>
      <point x="377" y="265" type="curve" smooth="yes"/>
      <point x="309" y="189" type="line"/>
      <point x="302" y="205" type="line"/>
      <point x="493" y="205" type="line"/>
      <point x="493" y="143" type="line"/>
    </contour>
    <contour>
      <point x="655" y="135" type="curve" smooth="yes"/>
      <point x="566" y="135"/>
      <point x="518" y="208"/>
      <point x="518" y="327" type="curve" smooth="yes"/>
      <point x="518" y="495"/>
      <point x="579" y="579"/>
      <point x="700" y="579" type="curve" smooth="yes"/>
      <point x="718" y="579"/>
      <point x="736" y="577"/>
      <point x="752" y="572" type="curve"/>
      <point x="752" y="513" type="line"/>
      <point x="736" y="519"/>
      <point x="718" y="522"/>
      <point x="698" y="522" type="curve" smooth="yes"/>
      <point x="623" y="522"/>
      <point x="584" y="476"/>
      <point x="578" y="369" type="curve"/>
      <point x="581" y="369" type="line"/>
      <point x="599" y="402"/>
      <point x="629" y="419"/>
      <point x="673" y="419" type="curve" smooth="yes"/>
      <point x="739" y="419"/>
      <point x="782" y="371"/>
      <point x="782" y="285" type="curve" smooth="yes"/>
      <point x="782" y="201"/>
      <point x="730" y="135"/>
    </contour>
    <contour>
      <point x="653" y="192" type="curve" smooth="yes"/>
      <point x="694" y="192"/>
      <point x="721" y="221"/>
      <point x="721" y="283" type="curve" smooth="yes"/>
      <point x="721" y="333"/>
      <point x="699" y="364"/>
      <point x="655" y="364" type="curve" smooth="yes"/>
      <point x="607" y="364"/>
      <point x="580" y="328"/>
      <point x="580" y="293" type="curve" smooth="yes"/>
      <point x="580" y="236"/>
      <point x="611" y="192"/>
    </contour>
  </outline>
</glyph>
<glyph name="circlednumrev29" format="2">
  <advance width="1000"/>
  <anchor x="500" y="357" name="C"/>
  <anchor x="360" y="357" name="L"/>
  <anchor x="640" y="357" name="R"/>
  <anchor x="660" y="357" name="_L"/>
  <anchor x="380" y="357" name="_R"/>
  <anchor x="500" y="0" name="center"/>
  <outline>
    <contour>
      <point x="500" y="-55" type="curve" smooth="yes"/>
      <point x="728" y="-55"/>
      <point x="912" y="129"/>
      <point x="912" y="357" type="curve" smooth="yes"/>
      <point x="912" y="584"/>
      <point x="728" y="769"/>
      <point x="500" y="769" type="curve" smooth="yes"/>
      <point x="272" y="769"/>
      <point x="88" y="584"/>
      <point x="88" y="357" type="curve" smooth="yes"/>
      <point x="88" y="129"/>
      <point x="272" y="-55"/>
    </contour>
    <contour>
      <point x="247" y="143" type="line"/>
      <point x="247" y="197" type="line"/>
      <point x="345" y="309" type="line" smooth="yes"/>
      <point x="398" y="370"/>
      <point x="429" y="406"/>
      <point x="429" y="460" type="curve" smooth="yes"/>
      <point x="429" y="498"/>
      <point x="406" y="522"/>
      <point x="371" y="522" type="curve" smooth="yes"/>
      <point x="341" y="522"/>
      <point x="312" y="508"/>
      <point x="281" y="479" type="curve"/>
      <point x="250" y="525" type="line"/>
      <point x="288" y="562"/>
      <point x="330" y="580"/>
      <point x="374" y="580" type="curve" smooth="yes"/>
      <point x="449" y="580"/>
      <point x="494" y="536"/>
      <point x="494" y="462" type="curve" smooth="yes"/>
      <point x="494" y="398"/>
      <point x="450" y="348"/>
      <point x="377" y="265" type="curve" smooth="yes"/>
      <point x="309" y="189" type="line"/>
      <point x="302" y="205" type="line"/>
      <point x="493" y="205" type="line"/>
      <point x="493" y="143" type="line"/>
    </contour>
    <contour>
      <point x="600" y="135" type="curve" smooth="yes"/>
      <point x="582" y="135"/>
      <point x="564" y="137"/>
      <point x="548" y="142" type="curve"/>
      <point x="548" y="201" type="line"/>
      <point x="564" y="195"/>
      <point x="582" y="192"/>
      <point x="602" y="192" type="curve" smooth="yes"/>
      <point x="679" y="192"/>
      <point x="717" y="240"/>
      <point x="722" y="345" type="curve"/>
      <point x="719" y="345" type="line"/>
      <point x="701" y="312"/>
      <point x="671" y="295"/>
      <point x="627" y="295" type="curve" smooth="yes"/>
      <point x="562" y="295"/>
      <point x="518" y="344"/>
      <point x="518" y="429" type="curve" smooth="yes"/>
      <point x="518" y="519"/>
      <point x="568" y="579"/>
      <point x="645" y="579" type="curve" smooth="yes"/>
      <point x="724" y="579"/>
      <point x="782" y="516"/>
      <point x="782" y="387" type="curve" smooth="yes"/>
      <point x="782" y="219"/>
      <point x="722" y="135"/>
    </contour>
    <contour>
      <point x="645" y="350" type="curve" smooth="yes"/>
      <point x="693" y="350"/>
      <point x="720" y="386"/>
      <point x="720" y="421" type="curve" smooth="yes"/>
      <point x="720" y="478"/>
      <point x="689" y="522"/>
      <point x="647" y="522" type="curve" smooth="yes"/>
      <point x="606" y="522"/>
      <point x="580" y="492"/>
      <point x="580" y="431" type="curve" smooth="yes"/>
      <point x="580" y="380"/>
      <point x="602" y="350"/>
    </contour>
  </outline>
</glyph>
<glyph name="circlednumrev3" format="2">
  <advance width="1000"/>
  <anchor x="500" y="357" name="C"/>
  <anchor x="360" y="357" name="L"/>
  <anchor x="640" y="357" name="R"/>
  <anchor x="500" y="0" name="center"/>
  <outline>
    <contour>
      <point x="500" y="-55" type="curve" smooth="yes"/>
      <point x="728" y="-55"/>
      <point x="912" y="129"/>
      <point x="912" y="357" type="curve" smooth="yes"/>
      <point x="912" y="584"/>
      <point x="728" y="769"/>
      <point x="500" y="769" type="curve" smooth="yes"/>
      <point x="272" y="769"/>
      <point x="88" y="584"/>
      <point x="88" y="357" type="curve" smooth="yes"/>
      <point x="88" y="129"/>
      <point x="272" y="-55"/>
    </contour>
    <contour>
      <point x="495" y="135" type="curve" smooth="yes"/>
      <point x="446" y="135"/>
      <point x="403" y="144"/>
      <point x="367" y="163" type="curve"/>
      <point x="367" y="226" type="line"/>
      <point x="413" y="203"/>
      <point x="456" y="192"/>
      <point x="496" y="192" type="curve" smooth="yes"/>
      <point x="562" y="192"/>
      <point x="594" y="217"/>
      <point x="594" y="268" type="curve" smooth="yes"/>
      <point x="594" y="314"/>
      <point x="559" y="337"/>
      <point x="487" y="337" type="curve" smooth="yes"/>
      <point x="431" y="337" type="line"/>
      <point x="431" y="392" type="line"/>
      <point x="487" y="392" type="line" smooth="yes"/>
      <point x="550" y="392"/>
      <point x="582" y="416"/>
      <point x="582" y="462" type="curve" smooth="yes"/>
      <point x="582" y="505"/>
      <point x="552" y="523"/>
      <point x="513" y="523" type="curve" smooth="yes"/>
      <point x="480" y="523"/>
      <point x="444" y="510"/>
      <point x="404" y="485" type="curve"/>
      <point x="369" y="531" type="line"/>
      <point x="412" y="563"/>
      <point x="459" y="580"/>
      <point x="512" y="580" type="curve" smooth="yes"/>
      <point x="605" y="580"/>
      <point x="652" y="534"/>
      <point x="652" y="470" type="curve" smooth="yes"/>
      <point x="652" y="416"/>
      <point x="623" y="379"/>
      <point x="564" y="363" type="curve"/>
      <point x="563" y="373" type="line"/>
      <point x="631" y="361"/>
      <point x="665" y="326"/>
      <point x="665" y="266" type="curve" smooth="yes"/>
      <point x="665" y="188"/>
      <point x="611" y="135"/>
    </contour>
  </outline>
</glyph>
<glyph name="circlednumrev32" format="2">
  <advance width="1000"/>
  <anchor x="500" y="357" name="C"/>
  <anchor x="360" y="357" name="L"/>
  <anchor x="640" y="357" name="R"/>
  <anchor x="620" y="357" name="_L"/>
  <anchor x="350" y="357" name="_R"/>
  <anchor x="500" y="0" name="center"/>
  <outline>
    <contour>
      <point x="500" y="-55" type="curve" smooth="yes"/>
      <point x="728" y="-55"/>
      <point x="912" y="129"/>
      <point x="912" y="357" type="curve" smooth="yes"/>
      <point x="912" y="584"/>
      <point x="728" y="769"/>
      <point x="500" y="769" type="curve" smooth="yes"/>
      <point x="272" y="769"/>
      <point x="88" y="584"/>
      <point x="88" y="357" type="curve" smooth="yes"/>
      <point x="88" y="129"/>
      <point x="272" y="-55"/>
    </contour>
    <contour>
      <point x="338" y="135" type="curve" smooth="yes"/>
      <point x="301" y="135"/>
      <point x="266" y="144"/>
      <point x="234" y="163" type="curve"/>
      <point x="234" y="226" type="line"/>
      <point x="271" y="203"/>
      <point x="304" y="192"/>
      <point x="332" y="192" type="curve" smooth="yes"/>
      <point x="390" y="192"/>
      <point x="418" y="217"/>
      <point x="418" y="268" type="curve" smooth="yes"/>
      <point x="418" y="314"/>
      <point x="388" y="337"/>
      <point x="328" y="337" type="curve" smooth="yes"/>
      <point x="286" y="337" type="line"/>
      <point x="286" y="392" type="line"/>
      <point x="328" y="392" type="line" smooth="yes"/>
      <point x="379" y="392"/>
      <point x="406" y="416"/>
      <point x="406" y="462" type="curve" smooth="yes"/>
      <point x="406" y="505"/>
      <point x="379" y="523"/>
      <point x="346" y="523" type="curve" smooth="yes"/>
      <point x="312" y="523"/>
      <point x="289" y="508"/>
      <point x="258" y="485" type="curve"/>
      <point x="228" y="531" type="line"/>
      <point x="266" y="563"/>
      <point x="306" y="580"/>
      <point x="348" y="580" type="curve" smooth="yes"/>
      <point x="420" y="580"/>
      <point x="471" y="544"/>
      <point x="471" y="470" type="curve" smooth="yes"/>
      <point x="471" y="415"/>
      <point x="430" y="372"/>
      <point x="381" y="367" type="curve"/>
      <point x="378" y="372" type="line"/>
      <point x="445" y="363"/>
      <point x="483" y="328"/>
      <point x="483" y="266" type="curve" smooth="yes"/>
      <point x="483" y="176"/>
      <point x="424" y="135"/>
    </contour>
    <contour>
      <point x="507" y="143" type="line"/>
      <point x="507" y="197" type="line"/>
      <point x="605" y="309" type="line" smooth="yes"/>
      <point x="658" y="370"/>
      <point x="689" y="406"/>
      <point x="689" y="460" type="curve" smooth="yes"/>
      <point x="689" y="498"/>
      <point x="666" y="522"/>
      <point x="631" y="522" type="curve" smooth="yes"/>
      <point x="601" y="522"/>
      <point x="572" y="508"/>
      <point x="541" y="479" type="curve"/>
      <point x="510" y="525" type="line"/>
      <point x="548" y="562"/>
      <point x="590" y="580"/>
      <point x="634" y="580" type="curve" smooth="yes"/>
      <point x="709" y="580"/>
      <point x="754" y="536"/>
      <point x="754" y="462" type="curve" smooth="yes"/>
      <point x="754" y="398"/>
      <point x="710" y="348"/>
      <point x="637" y="265" type="curve" smooth="yes"/>
      <point x="569" y="189" type="line"/>
      <point x="562" y="205" type="line"/>
      <point x="753" y="205" type="line"/>
      <point x="753" y="143" type="line"/>
    </contour>
  </outline>
</glyph>
<glyph name="circlednumrev33" format="2">
  <advance width="1000"/>
  <anchor x="500" y="357" name="C"/>
  <anchor x="360" y="357" name="L"/>
  <anchor x="640" y="357" name="R"/>
  <anchor x="650" y="357" name="_L"/>
  <anchor x="350" y="357" name="_R"/>
  <anchor x="500" y="0" name="center"/>
  <outline>
    <contour>
      <point x="500" y="-55" type="curve" smooth="yes"/>
      <point x="728" y="-55"/>
      <point x="912" y="129"/>
      <point x="912" y="357" type="curve" smooth="yes"/>
      <point x="912" y="584"/>
      <point x="728" y="769"/>
      <point x="500" y="769" type="curve" smooth="yes"/>
      <point x="272" y="769"/>
      <point x="88" y="584"/>
      <point x="88" y="357" type="curve" smooth="yes"/>
      <point x="88" y="129"/>
      <point x="272" y="-55"/>
    </contour>
    <contour>
      <point x="338" y="135" type="curve" smooth="yes"/>
      <point x="301" y="135"/>
      <point x="266" y="144"/>
      <point x="234" y="163" type="curve"/>
      <point x="234" y="226" type="line"/>
      <point x="271" y="203"/>
      <point x="304" y="192"/>
      <point x="332" y="192" type="curve" smooth="yes"/>
      <point x="390" y="192"/>
      <point x="418" y="217"/>
      <point x="418" y="268" type="curve" smooth="yes"/>
      <point x="418" y="314"/>
      <point x="388" y="337"/>
      <point x="328" y="337" type="curve" smooth="yes"/>
      <point x="286" y="337" type="line"/>
      <point x="286" y="392" type="line"/>
      <point x="328" y="392" type="line" smooth="yes"/>
      <point x="379" y="392"/>
      <point x="406" y="416"/>
      <point x="406" y="462" type="curve" smooth="yes"/>
      <point x="406" y="505"/>
      <point x="379" y="523"/>
      <point x="346" y="523" type="curve" smooth="yes"/>
      <point x="312" y="523"/>
      <point x="289" y="508"/>
      <point x="258" y="485" type="curve"/>
      <point x="228" y="531" type="line"/>
      <point x="266" y="563"/>
      <point x="306" y="580"/>
      <point x="348" y="580" type="curve" smooth="yes"/>
      <point x="420" y="580"/>
      <point x="471" y="544"/>
      <point x="471" y="470" type="curve" smooth="yes"/>
      <point x="471" y="415"/>
      <point x="430" y="372"/>
      <point x="381" y="367" type="curve"/>
      <point x="378" y="372" type="line"/>
      <point x="445" y="363"/>
      <point x="483" y="328"/>
      <point x="483" y="266" type="curve" smooth="yes"/>
      <point x="483" y="176"/>
      <point x="424" y="135"/>
    </contour>
    <contour>
      <point x="628" y="135" type="curve" smooth="yes"/>
      <point x="591" y="135"/>
      <point x="556" y="144"/>
      <point x="524" y="163" type="curve"/>
      <point x="524" y="226" type="line"/>
      <point x="561" y="203"/>
      <point x="594" y="192"/>
      <point x="622" y="192" type="curve" smooth="yes"/>
      <point x="680" y="192"/>
      <point x="708" y="217"/>
      <point x="708" y="268" type="curve" smooth="yes"/>
      <point x="708" y="314"/>
      <point x="678" y="337"/>
      <point x="618" y="337" type="curve" smooth="yes"/>
      <point x="576" y="337" type="line"/>
      <point x="576" y="392" type="line"/>
      <point x="618" y="392" type="line" smooth="yes"/>
      <point x="669" y="392"/>
      <point x="696" y="416"/>
      <point x="696" y="462" type="curve" smooth="yes"/>
      <point x="696" y="505"/>
      <point x="669" y="523"/>
      <point x="636" y="523" type="curve" smooth="yes"/>
      <point x="602" y="523"/>
      <point x="579" y="508"/>
      <point x="548" y="485" type="curve"/>
      <point x="518" y="531" type="line"/>
      <point x="556" y="563"/>
      <point x="596" y="580"/>
      <point x="638" y="580" type="curve" smooth="yes"/>
      <point x="710" y="580"/>
      <point x="761" y="544"/>
      <point x="761" y="470" type="curve" smooth="yes"/>
      <point x="761" y="415"/>
      <point x="720" y="372"/>
      <point x="671" y="367" type="curve"/>
      <point x="668" y="372" type="line"/>
      <point x="735" y="363"/>
      <point x="773" y="328"/>
      <point x="773" y="266" type="curve" smooth="yes"/>
      <point x="773" y="176"/>
      <point x="714" y="135"/>
    </contour>
  </outline>
</glyph>
<glyph name="circlednumrev36" format="2">
  <advance width="1000"/>
  <anchor x="500" y="357" name="C"/>
  <anchor x="360" y="357" name="L"/>
  <anchor x="640" y="357" name="R"/>
  <anchor x="660" y="357" name="_L"/>
  <anchor x="350" y="357" name="_R"/>
  <anchor x="500" y="0" name="center"/>
  <outline>
    <contour>
      <point x="500" y="-55" type="curve" smooth="yes"/>
      <point x="728" y="-55"/>
      <point x="912" y="129"/>
      <point x="912" y="357" type="curve" smooth="yes"/>
      <point x="912" y="584"/>
      <point x="728" y="769"/>
      <point x="500" y="769" type="curve" smooth="yes"/>
      <point x="272" y="769"/>
      <point x="88" y="584"/>
      <point x="88" y="357" type="curve" smooth="yes"/>
      <point x="88" y="129"/>
      <point x="272" y="-55"/>
    </contour>
    <contour>
      <point x="338" y="135" type="curve" smooth="yes"/>
      <point x="301" y="135"/>
      <point x="266" y="144"/>
      <point x="234" y="163" type="curve"/>
      <point x="234" y="226" type="line"/>
      <point x="271" y="203"/>
      <point x="304" y="192"/>
      <point x="332" y="192" type="curve" smooth="yes"/>
      <point x="390" y="192"/>
      <point x="418" y="217"/>
      <point x="418" y="268" type="curve" smooth="yes"/>
      <point x="418" y="314"/>
      <point x="388" y="337"/>
      <point x="328" y="337" type="curve" smooth="yes"/>
      <point x="286" y="337" type="line"/>
      <point x="286" y="392" type="line"/>
      <point x="328" y="392" type="line" smooth="yes"/>
      <point x="379" y="392"/>
      <point x="406" y="416"/>
      <point x="406" y="462" type="curve" smooth="yes"/>
      <point x="406" y="505"/>
      <point x="379" y="523"/>
      <point x="346" y="523" type="curve" smooth="yes"/>
      <point x="312" y="523"/>
      <point x="289" y="508"/>
      <point x="258" y="485" type="curve"/>
      <point x="228" y="531" type="line"/>
      <point x="266" y="563"/>
      <point x="306" y="580"/>
      <point x="348" y="580" type="curve" smooth="yes"/>
      <point x="420" y="580"/>
      <point x="471" y="544"/>
      <point x="471" y="470" type="curve" smooth="yes"/>
      <point x="471" y="415"/>
      <point x="430" y="372"/>
      <point x="381" y="367" type="curve"/>
      <point x="378" y="372" type="line"/>
      <point x="445" y="363"/>
      <point x="483" y="328"/>
      <point x="483" y="266" type="curve" smooth="yes"/>
      <point x="483" y="176"/>
      <point x="424" y="135"/>
    </contour>
    <contour>
      <point x="655" y="135" type="curve" smooth="yes"/>
      <point x="566" y="135"/>
      <point x="518" y="208"/>
      <point x="518" y="327" type="curve" smooth="yes"/>
      <point x="518" y="495"/>
      <point x="579" y="579"/>
      <point x="700" y="579" type="curve" smooth="yes"/>
      <point x="718" y="579"/>
      <point x="736" y="577"/>
      <point x="752" y="572" type="curve"/>
      <point x="752" y="513" type="line"/>
      <point x="736" y="519"/>
      <point x="718" y="522"/>
      <point x="698" y="522" type="curve" smooth="yes"/>
      <point x="623" y="522"/>
      <point x="584" y="476"/>
      <point x="578" y="369" type="curve"/>
      <point x="581" y="369" type="line"/>
      <point x="599" y="402"/>
      <point x="629" y="419"/>
      <point x="673" y="419" type="curve" smooth="yes"/>
      <point x="739" y="419"/>
      <point x="782" y="371"/>
      <point x="782" y="285" type="curve" smooth="yes"/>
      <point x="782" y="201"/>
      <point x="730" y="135"/>
    </contour>
    <contour>
      <point x="653" y="192" type="curve" smooth="yes"/>
      <point x="694" y="192"/>
      <point x="721" y="221"/>
      <point x="721" y="283" type="curve" smooth="yes"/>
      <point x="721" y="333"/>
      <point x="699" y="364"/>
      <point x="655" y="364" type="curve" smooth="yes"/>
      <point x="607" y="364"/>
      <point x="580" y="328"/>
      <point x="580" y="293" type="curve" smooth="yes"/>
      <point x="580" y="236"/>
      <point x="611" y="192"/>
    </contour>
  </outline>
</glyph>
<glyph name="circlednumrev38" format="2">
  <advance width="1000"/>
  <anchor x="500" y="357" name="C"/>
  <anchor x="360" y="357" name="L"/>
  <anchor x="640" y="357" name="R"/>
  <anchor x="646" y="357" name="_L"/>
  <anchor x="350" y="357" name="_R"/>
  <anchor x="500" y="0" name="center"/>
  <outline>
    <contour>
      <point x="500" y="-55" type="curve" smooth="yes"/>
      <point x="728" y="-55"/>
      <point x="912" y="129"/>
      <point x="912" y="357" type="curve" smooth="yes"/>
      <point x="912" y="584"/>
      <point x="728" y="769"/>
      <point x="500" y="769" type="curve" smooth="yes"/>
      <point x="272" y="769"/>
      <point x="88" y="584"/>
      <point x="88" y="357" type="curve" smooth="yes"/>
      <point x="88" y="129"/>
      <point x="272" y="-55"/>
    </contour>
    <contour>
      <point x="338" y="135" type="curve" smooth="yes"/>
      <point x="301" y="135"/>
      <point x="266" y="144"/>
      <point x="234" y="163" type="curve"/>
      <point x="234" y="226" type="line"/>
      <point x="271" y="203"/>
      <point x="304" y="192"/>
      <point x="332" y="192" type="curve" smooth="yes"/>
      <point x="390" y="192"/>
      <point x="418" y="217"/>
      <point x="418" y="268" type="curve" smooth="yes"/>
      <point x="418" y="314"/>
      <point x="388" y="337"/>
      <point x="328" y="337" type="curve" smooth="yes"/>
      <point x="286" y="337" type="line"/>
      <point x="286" y="392" type="line"/>
      <point x="328" y="392" type="line" smooth="yes"/>
      <point x="379" y="392"/>
      <point x="406" y="416"/>
      <point x="406" y="462" type="curve" smooth="yes"/>
      <point x="406" y="505"/>
      <point x="379" y="523"/>
      <point x="346" y="523" type="curve" smooth="yes"/>
      <point x="312" y="523"/>
      <point x="289" y="508"/>
      <point x="258" y="485" type="curve"/>
      <point x="228" y="531" type="line"/>
      <point x="266" y="563"/>
      <point x="306" y="580"/>
      <point x="348" y="580" type="curve" smooth="yes"/>
      <point x="420" y="580"/>
      <point x="471" y="544"/>
      <point x="471" y="470" type="curve" smooth="yes"/>
      <point x="471" y="415"/>
      <point x="430" y="372"/>
      <point x="381" y="367" type="curve"/>
      <point x="378" y="372" type="line"/>
      <point x="445" y="363"/>
      <point x="483" y="328"/>
      <point x="483" y="266" type="curve" smooth="yes"/>
      <point x="483" y="176"/>
      <point x="424" y="135"/>
    </contour>
    <contour>
      <point x="644" y="135" type="curve" smooth="yes"/>
      <point x="559" y="135"/>
      <point x="514" y="179"/>
      <point x="514" y="255" type="curve" smooth="yes"/>
      <point x="514" y="303"/>
      <point x="538" y="340"/>
      <point x="585" y="367" type="curve"/>
      <point x="547" y="394"/>
      <point x="526" y="417"/>
      <point x="526" y="468" type="curve" smooth="yes"/>
      <point x="526" y="536"/>
      <point x="574" y="580"/>
      <point x="644" y="580" type="curve" smooth="yes"/>
      <point x="712" y="580"/>
      <point x="759" y="537"/>
      <point x="759" y="471" type="curve" smooth="yes"/>
      <point x="759" y="430"/>
      <point x="737" y="396"/>
      <point x="693" y="370" type="curve"/>
      <point x="745" y="345"/>
      <point x="772" y="307"/>
      <point x="772" y="258" type="curve" smooth="yes"/>
      <point x="772" y="183"/>
      <point x="720" y="135"/>
    </contour>
    <contour>
      <point x="642" y="191" type="curve" smooth="yes"/>
      <point x="687" y="191"/>
      <point x="711" y="216"/>
      <point x="711" y="255" type="curve" smooth="yes"/>
      <point x="711" y="289"/>
      <point x="691" y="313"/>
      <point x="644" y="334" type="curve" smooth="yes"/>
      <point x="631" y="340" type="line"/>
      <point x="594" y="319"/>
      <point x="576" y="291"/>
      <point x="576" y="255" type="curve" smooth="yes"/>
      <point x="576" y="216"/>
      <point x="598" y="191"/>
    </contour>
    <contour>
      <point x="645" y="397" type="curve"/>
      <point x="681" y="414"/>
      <point x="698" y="438"/>
      <point x="698" y="469" type="curve" smooth="yes"/>
      <point x="698" y="504"/>
      <point x="676" y="525"/>
      <point x="643" y="525" type="curve" smooth="yes"/>
      <point x="609" y="525"/>
      <point x="588" y="504"/>
      <point x="588" y="469" type="curve" smooth="yes"/>
      <point x="588" y="440"/>
      <point x="607" y="416"/>
    </contour>
  </outline>
</glyph>
<glyph name="circlednumrev39" format="2">
  <advance width="1000"/>
  <anchor x="500" y="357" name="C"/>
  <anchor x="360" y="357" name="L"/>
  <anchor x="640" y="357" name="R"/>
  <anchor x="660" y="357" name="_L"/>
  <anchor x="350" y="357" name="_R"/>
  <anchor x="500" y="0" name="center"/>
  <outline>
    <contour>
      <point x="500" y="-55" type="curve" smooth="yes"/>
      <point x="728" y="-55"/>
      <point x="912" y="129"/>
      <point x="912" y="357" type="curve" smooth="yes"/>
      <point x="912" y="584"/>
      <point x="728" y="769"/>
      <point x="500" y="769" type="curve" smooth="yes"/>
      <point x="272" y="769"/>
      <point x="88" y="584"/>
      <point x="88" y="357" type="curve" smooth="yes"/>
      <point x="88" y="129"/>
      <point x="272" y="-55"/>
    </contour>
    <contour>
      <point x="338" y="135" type="curve" smooth="yes"/>
      <point x="301" y="135"/>
      <point x="266" y="144"/>
      <point x="234" y="163" type="curve"/>
      <point x="234" y="226" type="line"/>
      <point x="271" y="203"/>
      <point x="304" y="192"/>
      <point x="332" y="192" type="curve" smooth="yes"/>
      <point x="390" y="192"/>
      <point x="418" y="217"/>
      <point x="418" y="268" type="curve" smooth="yes"/>
      <point x="418" y="314"/>
      <point x="388" y="337"/>
      <point x="328" y="337" type="curve" smooth="yes"/>
      <point x="286" y="337" type="line"/>
      <point x="286" y="392" type="line"/>
      <point x="328" y="392" type="line" smooth="yes"/>
      <point x="379" y="392"/>
      <point x="406" y="416"/>
      <point x="406" y="462" type="curve" smooth="yes"/>
      <point x="406" y="505"/>
      <point x="379" y="523"/>
      <point x="346" y="523" type="curve" smooth="yes"/>
      <point x="312" y="523"/>
      <point x="289" y="508"/>
      <point x="258" y="485" type="curve"/>
      <point x="228" y="531" type="line"/>
      <point x="266" y="563"/>
      <point x="306" y="580"/>
      <point x="348" y="580" type="curve" smooth="yes"/>
      <point x="420" y="580"/>
      <point x="471" y="544"/>
      <point x="471" y="470" type="curve" smooth="yes"/>
      <point x="471" y="415"/>
      <point x="430" y="372"/>
      <point x="381" y="367" type="curve"/>
      <point x="378" y="372" type="line"/>
      <point x="445" y="363"/>
      <point x="483" y="328"/>
      <point x="483" y="266" type="curve" smooth="yes"/>
      <point x="483" y="176"/>
      <point x="424" y="135"/>
    </contour>
    <contour>
      <point x="600" y="135" type="curve" smooth="yes"/>
      <point x="582" y="135"/>
      <point x="564" y="137"/>
      <point x="548" y="142" type="curve"/>
      <point x="548" y="201" type="line"/>
      <point x="564" y="195"/>
      <point x="582" y="192"/>
      <point x="602" y="192" type="curve" smooth="yes"/>
      <point x="679" y="192"/>
      <point x="717" y="240"/>
      <point x="722" y="345" type="curve"/>
      <point x="719" y="345" type="line"/>
      <point x="701" y="312"/>
      <point x="671" y="295"/>
      <point x="627" y="295" type="curve" smooth="yes"/>
      <point x="562" y="295"/>
      <point x="518" y="344"/>
      <point x="518" y="429" type="curve" smooth="yes"/>
      <point x="518" y="519"/>
      <point x="568" y="579"/>
      <point x="645" y="579" type="curve" smooth="yes"/>
      <point x="724" y="579"/>
      <point x="782" y="516"/>
      <point x="782" y="387" type="curve" smooth="yes"/>
      <point x="782" y="219"/>
      <point x="722" y="135"/>
    </contour>
    <contour>
      <point x="645" y="350" type="curve" smooth="yes"/>
      <point x="693" y="350"/>
      <point x="720" y="386"/>
      <point x="720" y="421" type="curve" smooth="yes"/>
      <point x="720" y="478"/>
      <point x="689" y="522"/>
      <point x="647" y="522" type="curve" smooth="yes"/>
      <point x="606" y="522"/>
      <point x="580" y="492"/>
      <point x="580" y="431" type="curve" smooth="yes"/>
      <point x="580" y="380"/>
      <point x="602" y="350"/>
    </contour>
  </outline>
</glyph>
<glyph name="circlednumrev40" format="2">
  <advance width="1000"/>
  <anchor x="500" y="357" name="C"/>
  <anchor x="360" y="357" name="L"/>
  <anchor x="640" y="357" name="R"/>
  <anchor x="660" y="357" name="_L"/>
  <anchor x="340" y="357" name="_R"/>
  <anchor x="500" y="0" name="center"/>
  <outline>
    <contour>
      <point x="500" y="-55" type="curve" smooth="yes"/>
      <point x="728" y="-55"/>
      <point x="912" y="129"/>
      <point x="912" y="357" type="curve" smooth="yes"/>
      <point x="912" y="584"/>
      <point x="728" y="769"/>
      <point x="500" y="769" type="curve" smooth="yes"/>
      <point x="272" y="769"/>
      <point x="88" y="584"/>
      <point x="88" y="357" type="curve" smooth="yes"/>
      <point x="88" y="129"/>
      <point x="272" y="-55"/>
    </contour>
    <contour>
      <point x="370" y="144" type="line"/>
      <point x="370" y="241" type="line"/>
      <point x="205" y="241" type="line"/>
      <point x="205" y="291" type="line"/>
      <point x="369" y="572" type="line"/>
      <point x="434" y="572" type="line"/>
      <point x="434" y="299" type="line"/>
      <point x="490" y="299" type="line"/>
      <point x="490" y="241" type="line"/>
      <point x="434" y="241" type="line"/>
      <point x="434" y="144" type="line"/>
    </contour>
    <contour>
      <point x="264" y="299" type="line"/>
      <point x="370" y="299" type="line"/>
      <point x="370" y="398" type="line" smooth="yes"/>
      <point x="370" y="439"/>
      <point x="373" y="480"/>
      <point x="374" y="513" type="curve"/>
      <point x="376" y="507" type="line"/>
      <point x="371" y="496"/>
      <point x="360" y="473"/>
      <point x="342" y="439" type="curve" smooth="yes"/>
    </contour>
    <contour>
      <point x="650" y="135" type="curve" smooth="yes"/>
      <point x="564" y="135"/>
      <point x="518" y="209"/>
      <point x="518" y="359" type="curve" smooth="yes"/>
      <point x="518" y="506"/>
      <point x="564" y="580"/>
      <point x="650" y="580" type="curve" smooth="yes"/>
      <point x="736" y="580"/>
      <point x="782" y="506"/>
      <point x="782" y="359" type="curve" smooth="yes"/>
      <point x="782" y="209"/>
      <point x="736" y="135"/>
    </contour>
    <contour>
      <point x="650" y="194" type="curve" smooth="yes"/>
      <point x="693" y="194"/>
      <point x="718" y="249"/>
      <point x="718" y="359" type="curve" smooth="yes"/>
      <point x="718" y="456"/>
      <point x="687" y="522"/>
      <point x="650" y="522" type="curve" smooth="yes"/>
      <point x="595" y="522"/>
      <point x="583" y="441"/>
      <point x="583" y="358" type="curve" smooth="yes"/>
      <point x="583" y="272"/>
      <point x="596" y="194"/>
    </contour>
  </outline>
</glyph>
<glyph name="circlednumrev41" format="2">
  <advance width="1000"/>
  <anchor x="500" y="357" name="C"/>
  <anchor x="360" y="357" name="L"/>
  <anchor x="640" y="357" name="R"/>
  <anchor x="630" y="357" name="_L"/>
  <anchor x="340" y="357" name="_R"/>
  <anchor x="500" y="0" name="center"/>
  <outline>
    <contour>
      <point x="500" y="-55" type="curve" smooth="yes"/>
      <point x="728" y="-55"/>
      <point x="912" y="129"/>
      <point x="912" y="357" type="curve" smooth="yes"/>
      <point x="912" y="584"/>
      <point x="728" y="769"/>
      <point x="500" y="769" type="curve" smooth="yes"/>
      <point x="272" y="769"/>
      <point x="88" y="584"/>
      <point x="88" y="357" type="curve" smooth="yes"/>
      <point x="88" y="129"/>
      <point x="272" y="-55"/>
    </contour>
    <contour>
      <point x="370" y="144" type="line"/>
      <point x="370" y="241" type="line"/>
      <point x="205" y="241" type="line"/>
      <point x="205" y="291" type="line"/>
      <point x="369" y="572" type="line"/>
      <point x="434" y="572" type="line"/>
      <point x="434" y="299" type="line"/>
      <point x="490" y="299" type="line"/>
      <point x="490" y="241" type="line"/>
      <point x="434" y="241" type="line"/>
      <point x="434" y="144" type="line"/>
    </contour>
    <contour>
      <point x="264" y="299" type="line"/>
      <point x="370" y="299" type="line"/>
      <point x="370" y="398" type="line" smooth="yes"/>
      <point x="370" y="439"/>
      <point x="373" y="480"/>
      <point x="374" y="513" type="curve"/>
      <point x="376" y="507" type="line"/>
      <point x="371" y="496"/>
      <point x="360" y="473"/>
      <point x="342" y="439" type="curve" smooth="yes"/>
    </contour>
    <contour>
      <point x="528" y="144" type="line"/>
      <point x="528" y="204" type="line"/>
      <point x="608" y="204" type="line"/>
      <point x="608" y="467" type="line" smooth="yes"/>
      <point x="608" y="481"/>
      <point x="609" y="495"/>
      <point x="610" y="509" type="curve"/>
      <point x="605" y="503"/>
      <point x="597" y="495"/>
      <point x="585" y="485" type="curve" smooth="yes"/>
      <point x="570" y="474"/>
      <point x="562" y="458"/>
      <point x="539" y="440" type="curve"/>
      <point x="507" y="489" type="line"/>
      <point x="604" y="572" type="line"/>
      <point x="672" y="572" type="line"/>
      <point x="672" y="204" type="line"/>
      <point x="752" y="204" type="line"/>
      <point x="752" y="144" type="line"/>
    </contour>
  </outline>
</glyph>
<glyph name="circlednumrev44" format="2">
  <advance width="1000"/>
  <anchor x="500" y="357" name="C"/>
  <anchor x="360" y="357" name="L"/>
  <anchor x="640" y="357" name="R"/>
  <anchor x="660" y="357" name="_L"/>
  <anchor x="340" y="357" name="_R"/>
  <anchor x="500" y="0" name="center"/>
  <outline>
    <contour>
      <point x="500" y="-55" type="curve" smooth="yes"/>
      <point x="728" y="-55"/>
      <point x="912" y="129"/>
      <point x="912" y="357" type="curve" smooth="yes"/>
      <point x="912" y="584"/>
      <point x="728" y="769"/>
      <point x="500" y="769" type="curve" smooth="yes"/>
      <point x="272" y="769"/>
      <point x="88" y="584"/>
      <point x="88" y="357" type="curve" smooth="yes"/>
      <point x="88" y="129"/>
      <point x="272" y="-55"/>
    </contour>
    <contour>
      <point x="370" y="144" type="line"/>
      <point x="370" y="241" type="line"/>
      <point x="205" y="241" type="line"/>
      <point x="205" y="291" type="line"/>
      <point x="369" y="572" type="line"/>
      <point x="434" y="572" type="line"/>
      <point x="434" y="299" type="line"/>
      <point x="490" y="299" type="line"/>
      <point x="490" y="241" type="line"/>
      <point x="434" y="241" type="line"/>
      <point x="434" y="144" type="line"/>
    </contour>
    <contour>
      <point x="264" y="299" type="line"/>
      <point x="370" y="299" type="line"/>
      <point x="370" y="398" type="line" smooth="yes"/>
      <point x="370" y="439"/>
      <point x="373" y="480"/>
      <point x="374" y="513" type="curve"/>
      <point x="376" y="507" type="line"/>
      <point x="371" y="496"/>
      <point x="360" y="473"/>
      <point x="342" y="439" type="curve" smooth="yes"/>
    </contour>
    <contour>
      <point x="670" y="144" type="line"/>
      <point x="670" y="241" type="line"/>
      <point x="505" y="241" type="line"/>
      <point x="505" y="291" type="line"/>
      <point x="669" y="572" type="line"/>
      <point x="734" y="572" type="line"/>
      <point x="734" y="299" type="line"/>
      <point x="790" y="299" type="line"/>
      <point x="790" y="241" type="line"/>
      <point x="734" y="241" type="line"/>
      <point x="734" y="144" type="line"/>
    </contour>
    <contour>
      <point x="564" y="299" type="line"/>
      <point x="670" y="299" type="line"/>
      <point x="670" y="398" type="line" smooth="yes"/>
      <point x="670" y="439"/>
      <point x="673" y="480"/>
      <point x="674" y="513" type="curve"/>
      <point x="676" y="507" type="line"/>
      <point x="671" y="496"/>
      <point x="660" y="473"/>
      <point x="642" y="439" type="curve" smooth="yes"/>
    </contour>
  </outline>
</glyph>
<glyph name="circlednumrev45" format="2">
  <advance width="1000"/>
  <anchor x="500" y="357" name="C"/>
  <anchor x="360" y="357" name="L"/>
  <anchor x="640" y="357" name="R"/>
  <anchor x="650" y="357" name="_L"/>
  <anchor x="340" y="357" name="_R"/>
  <anchor x="500" y="0" name="center"/>
  <outline>
    <contour>
      <point x="500" y="-55" type="curve" smooth="yes"/>
      <point x="728" y="-55"/>
      <point x="912" y="129"/>
      <point x="912" y="357" type="curve" smooth="yes"/>
      <point x="912" y="584"/>
      <point x="728" y="769"/>
      <point x="500" y="769" type="curve" smooth="yes"/>
      <point x="272" y="769"/>
      <point x="88" y="584"/>
      <point x="88" y="357" type="curve" smooth="yes"/>
      <point x="88" y="129"/>
      <point x="272" y="-55"/>
    </contour>
    <contour>
      <point x="370" y="144" type="line"/>
      <point x="370" y="241" type="line"/>
      <point x="205" y="241" type="line"/>
      <point x="205" y="291" type="line"/>
      <point x="369" y="572" type="line"/>
      <point x="434" y="572" type="line"/>
      <point x="434" y="299" type="line"/>
      <point x="490" y="299" type="line"/>
      <point x="490" y="241" type="line"/>
      <point x="434" y="241" type="line"/>
      <point x="434" y="144" type="line"/>
    </contour>
    <contour>
      <point x="264" y="299" type="line"/>
      <point x="370" y="299" type="line"/>
      <point x="370" y="398" type="line" smooth="yes"/>
      <point x="370" y="439"/>
      <point x="373" y="480"/>
      <point x="374" y="513" type="curve"/>
      <point x="376" y="507" type="line"/>
      <point x="371" y="496"/>
      <point x="360" y="473"/>
      <point x="342" y="439" type="curve" smooth="yes"/>
    </contour>
    <contour>
      <point x="632" y="136" type="curve" smooth="yes"/>
      <point x="586" y="136"/>
      <point x="551" y="145"/>
      <point x="527" y="161" type="curve"/>
      <point x="527" y="228" type="line"/>
      <point x="558" y="205"/>
      <point x="600" y="193"/>
      <point x="629" y="193" type="curve" smooth="yes"/>
      <point x="683" y="193"/>
      <point x="711" y="221"/>
      <point x="711" y="276" type="curve" smooth="yes"/>
      <point x="711" y="327"/>
      <point x="679" y="356"/>
      <point x="628" y="356" type="curve" smooth="yes"/>
      <point x="610" y="356"/>
      <point x="588" y="352"/>
      <point x="562" y="344" type="curve"/>
      <point x="537" y="364" type="line"/>
      <point x="551" y="573" type="line"/>
      <point x="757" y="573" type="line"/>
      <point x="757" y="518" type="line"/>
      <point x="602" y="518" type="line"/>
      <point x="594" y="407" type="line"/>
      <point x="608" y="412"/>
      <point x="625" y="414"/>
      <point x="645" y="414" type="curve" smooth="yes"/>
      <point x="725" y="414"/>
      <point x="777" y="360"/>
      <point x="777" y="282" type="curve" smooth="yes"/>
      <point x="777" y="185"/>
      <point x="723" y="136"/>
    </contour>
  </outline>
</glyph>
<glyph name="circlednumrev50" format="2">
  <advance width="1000"/>
  <anchor x="500" y="357" name="C"/>
  <anchor x="360" y="357" name="L"/>
  <anchor x="640" y="357" name="R"/>
  <anchor x="660" y="357" name="_L"/>
  <anchor x="350" y="357" name="_R"/>
  <anchor x="500" y="0" name="center"/>
  <outline>
    <contour>
      <point x="500" y="-55" type="curve" smooth="yes"/>
      <point x="728" y="-55"/>
      <point x="912" y="129"/>
      <point x="912" y="357" type="curve" smooth="yes"/>
      <point x="912" y="584"/>
      <point x="728" y="769"/>
      <point x="500" y="769" type="curve" smooth="yes"/>
      <point x="272" y="769"/>
      <point x="88" y="584"/>
      <point x="88" y="357" type="curve" smooth="yes"/>
      <point x="88" y="129"/>
      <point x="272" y="-55"/>
    </contour>
    <contour>
      <point x="342" y="136" type="curve" smooth="yes"/>
      <point x="296" y="136"/>
      <point x="261" y="145"/>
      <point x="237" y="161" type="curve"/>
      <point x="237" y="228" type="line"/>
      <point x="268" y="205"/>
      <point x="310" y="193"/>
      <point x="339" y="193" type="curve" smooth="yes"/>
      <point x="393" y="193"/>
      <point x="421" y="221"/>
      <point x="421" y="276" type="curve" smooth="yes"/>
      <point x="421" y="327"/>
      <point x="389" y="356"/>
      <point x="338" y="356" type="curve" smooth="yes"/>
      <point x="320" y="356"/>
      <point x="298" y="352"/>
      <point x="272" y="344" type="curve"/>
      <point x="247" y="364" type="line"/>
      <point x="261" y="573" type="line"/>
      <point x="467" y="573" type="line"/>
      <point x="467" y="518" type="line"/>
      <point x="312" y="518" type="line"/>
      <point x="304" y="407" type="line"/>
      <point x="318" y="412"/>
      <point x="335" y="414"/>
      <point x="355" y="414" type="curve" smooth="yes"/>
      <point x="435" y="414"/>
      <point x="487" y="360"/>
      <point x="487" y="282" type="curve" smooth="yes"/>
      <point x="487" y="185"/>
      <point x="433" y="136"/>
    </contour>
    <contour>
      <point x="650" y="135" type="curve" smooth="yes"/>
      <point x="564" y="135"/>
      <point x="518" y="209"/>
      <point x="518" y="359" type="curve" smooth="yes"/>
      <point x="518" y="506"/>
      <point x="564" y="580"/>
      <point x="650" y="580" type="curve" smooth="yes"/>
      <point x="736" y="580"/>
      <point x="782" y="506"/>
      <point x="782" y="359" type="curve" smooth="yes"/>
      <point x="782" y="209"/>
      <point x="736" y="135"/>
    </contour>
    <contour>
      <point x="650" y="194" type="curve" smooth="yes"/>
      <point x="693" y="194"/>
      <point x="718" y="249"/>
      <point x="718" y="359" type="curve" smooth="yes"/>
      <point x="718" y="456"/>
      <point x="687" y="522"/>
      <point x="650" y="522" type="curve" smooth="yes"/>
      <point x="595" y="522"/>
      <point x="583" y="441"/>
      <point x="583" y="358" type="curve" smooth="yes"/>
      <point x="583" y="272"/>
      <point x="596" y="194"/>
    </contour>
  </outline>
</glyph>
<glyph name="circlednumrev51" format="2">
  <advance width="1000"/>
  <anchor x="500" y="357" name="C"/>
  <anchor x="360" y="357" name="L"/>
  <anchor x="640" y="357" name="R"/>
  <anchor x="630" y="357" name="_L"/>
  <anchor x="350" y="357" name="_R"/>
  <anchor x="500" y="0" name="center"/>
  <outline>
    <contour>
      <point x="500" y="-55" type="curve" smooth="yes"/>
      <point x="728" y="-55"/>
      <point x="912" y="129"/>
      <point x="912" y="357" type="curve" smooth="yes"/>
      <point x="912" y="584"/>
      <point x="728" y="769"/>
      <point x="500" y="769" type="curve" smooth="yes"/>
      <point x="272" y="769"/>
      <point x="88" y="584"/>
      <point x="88" y="357" type="curve" smooth="yes"/>
      <point x="88" y="129"/>
      <point x="272" y="-55"/>
    </contour>
    <contour>
      <point x="342" y="136" type="curve" smooth="yes"/>
      <point x="296" y="136"/>
      <point x="261" y="145"/>
      <point x="237" y="161" type="curve"/>
      <point x="237" y="228" type="line"/>
      <point x="268" y="205"/>
      <point x="310" y="193"/>
      <point x="339" y="193" type="curve" smooth="yes"/>
      <point x="393" y="193"/>
      <point x="421" y="221"/>
      <point x="421" y="276" type="curve" smooth="yes"/>
      <point x="421" y="327"/>
      <point x="389" y="356"/>
      <point x="338" y="356" type="curve" smooth="yes"/>
      <point x="320" y="356"/>
      <point x="298" y="352"/>
      <point x="272" y="344" type="curve"/>
      <point x="247" y="364" type="line"/>
      <point x="261" y="573" type="line"/>
      <point x="467" y="573" type="line"/>
      <point x="467" y="518" type="line"/>
      <point x="312" y="518" type="line"/>
      <point x="304" y="407" type="line"/>
      <point x="318" y="412"/>
      <point x="335" y="414"/>
      <point x="355" y="414" type="curve" smooth="yes"/>
      <point x="435" y="414"/>
      <point x="487" y="360"/>
      <point x="487" y="282" type="curve" smooth="yes"/>
      <point x="487" y="185"/>
      <point x="433" y="136"/>
    </contour>
    <contour>
      <point x="528" y="144" type="line"/>
      <point x="528" y="204" type="line"/>
      <point x="608" y="204" type="line"/>
      <point x="608" y="467" type="line" smooth="yes"/>
      <point x="608" y="481"/>
      <point x="609" y="495"/>
      <point x="610" y="509" type="curve"/>
      <point x="605" y="503"/>
      <point x="597" y="495"/>
      <point x="585" y="485" type="curve" smooth="yes"/>
      <point x="570" y="474"/>
      <point x="562" y="458"/>
      <point x="539" y="440" type="curve"/>
      <point x="507" y="489" type="line"/>
      <point x="604" y="572" type="line"/>
      <point x="672" y="572" type="line"/>
      <point x="672" y="204" type="line"/>
      <point x="752" y="204" type="line"/>
      <point x="752" y="144" type="line"/>
    </contour>
  </outline>
</glyph>
<glyph name="circlednumrev53" format="2">
  <advance width="1000"/>
  <anchor x="500" y="357" name="C"/>
  <anchor x="360" y="357" name="L"/>
  <anchor x="640" y="357" name="R"/>
  <anchor x="650" y="357" name="_L"/>
  <anchor x="350" y="357" name="_R"/>
  <anchor x="500" y="0" name="center"/>
  <outline>
    <contour>
      <point x="500" y="-55" type="curve" smooth="yes"/>
      <point x="728" y="-55"/>
      <point x="912" y="129"/>
      <point x="912" y="357" type="curve" smooth="yes"/>
      <point x="912" y="584"/>
      <point x="728" y="769"/>
      <point x="500" y="769" type="curve" smooth="yes"/>
      <point x="272" y="769"/>
      <point x="88" y="584"/>
      <point x="88" y="357" type="curve" smooth="yes"/>
      <point x="88" y="129"/>
      <point x="272" y="-55"/>
    </contour>
    <contour>
      <point x="342" y="136" type="curve" smooth="yes"/>
      <point x="296" y="136"/>
      <point x="261" y="145"/>
      <point x="237" y="161" type="curve"/>
      <point x="237" y="228" type="line"/>
      <point x="268" y="205"/>
      <point x="310" y="193"/>
      <point x="339" y="193" type="curve" smooth="yes"/>
      <point x="393" y="193"/>
      <point x="421" y="221"/>
      <point x="421" y="276" type="curve" smooth="yes"/>
      <point x="421" y="327"/>
      <point x="389" y="356"/>
      <point x="338" y="356" type="curve" smooth="yes"/>
      <point x="320" y="356"/>
      <point x="298" y="352"/>
      <point x="272" y="344" type="curve"/>
      <point x="247" y="364" type="line"/>
      <point x="261" y="573" type="line"/>
      <point x="467" y="573" type="line"/>
      <point x="467" y="518" type="line"/>
      <point x="312" y="518" type="line"/>
      <point x="304" y="407" type="line"/>
      <point x="318" y="412"/>
      <point x="335" y="414"/>
      <point x="355" y="414" type="curve" smooth="yes"/>
      <point x="435" y="414"/>
      <point x="487" y="360"/>
      <point x="487" y="282" type="curve" smooth="yes"/>
      <point x="487" y="185"/>
      <point x="433" y="136"/>
    </contour>
    <contour>
      <point x="628" y="135" type="curve" smooth="yes"/>
      <point x="591" y="135"/>
      <point x="556" y="144"/>
      <point x="524" y="163" type="curve"/>
      <point x="524" y="226" type="line"/>
      <point x="561" y="203"/>
      <point x="594" y="192"/>
      <point x="622" y="192" type="curve" smooth="yes"/>
      <point x="680" y="192"/>
      <point x="708" y="217"/>
      <point x="708" y="268" type="curve" smooth="yes"/>
      <point x="708" y="314"/>
      <point x="678" y="337"/>
      <point x="618" y="337" type="curve" smooth="yes"/>
      <point x="576" y="337" type="line"/>
      <point x="576" y="392" type="line"/>
      <point x="618" y="392" type="line" smooth="yes"/>
      <point x="669" y="392"/>
      <point x="696" y="416"/>
      <point x="696" y="462" type="curve" smooth="yes"/>
      <point x="696" y="505"/>
      <point x="669" y="523"/>
      <point x="636" y="523" type="curve" smooth="yes"/>
      <point x="602" y="523"/>
      <point x="579" y="508"/>
      <point x="548" y="485" type="curve"/>
      <point x="518" y="531" type="line"/>
      <point x="556" y="563"/>
      <point x="596" y="580"/>
      <point x="638" y="580" type="curve" smooth="yes"/>
      <point x="710" y="580"/>
      <point x="761" y="544"/>
      <point x="761" y="470" type="curve" smooth="yes"/>
      <point x="761" y="415"/>
      <point x="720" y="372"/>
      <point x="671" y="367" type="curve"/>
      <point x="668" y="372" type="line"/>
      <point x="735" y="363"/>
      <point x="773" y="328"/>
      <point x="773" y="266" type="curve" smooth="yes"/>
      <point x="773" y="176"/>
      <point x="714" y="135"/>
    </contour>
  </outline>
</glyph>
<glyph name="circlednumrev59" format="2">
  <advance width="1000"/>
  <anchor x="500" y="357" name="C"/>
  <anchor x="360" y="357" name="L"/>
  <anchor x="640" y="357" name="R"/>
  <anchor x="660" y="357" name="_L"/>
  <anchor x="350" y="357" name="_R"/>
  <anchor x="500" y="0" name="center"/>
  <outline>
    <contour>
      <point x="500" y="-55" type="curve" smooth="yes"/>
      <point x="728" y="-55"/>
      <point x="912" y="129"/>
      <point x="912" y="357" type="curve" smooth="yes"/>
      <point x="912" y="584"/>
      <point x="728" y="769"/>
      <point x="500" y="769" type="curve" smooth="yes"/>
      <point x="272" y="769"/>
      <point x="88" y="584"/>
      <point x="88" y="357" type="curve" smooth="yes"/>
      <point x="88" y="129"/>
      <point x="272" y="-55"/>
    </contour>
    <contour>
      <point x="342" y="136" type="curve" smooth="yes"/>
      <point x="296" y="136"/>
      <point x="261" y="145"/>
      <point x="237" y="161" type="curve"/>
      <point x="237" y="228" type="line"/>
      <point x="268" y="205"/>
      <point x="310" y="193"/>
      <point x="339" y="193" type="curve" smooth="yes"/>
      <point x="393" y="193"/>
      <point x="421" y="221"/>
      <point x="421" y="276" type="curve" smooth="yes"/>
      <point x="421" y="327"/>
      <point x="389" y="356"/>
      <point x="338" y="356" type="curve" smooth="yes"/>
      <point x="320" y="356"/>
      <point x="298" y="352"/>
      <point x="272" y="344" type="curve"/>
      <point x="247" y="364" type="line"/>
      <point x="261" y="573" type="line"/>
      <point x="467" y="573" type="line"/>
      <point x="467" y="518" type="line"/>
      <point x="312" y="518" type="line"/>
      <point x="304" y="407" type="line"/>
      <point x="318" y="412"/>
      <point x="335" y="414"/>
      <point x="355" y="414" type="curve" smooth="yes"/>
      <point x="435" y="414"/>
      <point x="487" y="360"/>
      <point x="487" y="282" type="curve" smooth="yes"/>
      <point x="487" y="185"/>
      <point x="433" y="136"/>
    </contour>
    <contour>
      <point x="600" y="135" type="curve" smooth="yes"/>
      <point x="582" y="135"/>
      <point x="564" y="137"/>
      <point x="548" y="142" type="curve"/>
      <point x="548" y="201" type="line"/>
      <point x="564" y="195"/>
      <point x="582" y="192"/>
      <point x="602" y="192" type="curve" smooth="yes"/>
      <point x="679" y="192"/>
      <point x="717" y="240"/>
      <point x="722" y="345" type="curve"/>
      <point x="719" y="345" type="line"/>
      <point x="701" y="312"/>
      <point x="671" y="295"/>
      <point x="627" y="295" type="curve" smooth="yes"/>
      <point x="562" y="295"/>
      <point x="518" y="344"/>
      <point x="518" y="429" type="curve" smooth="yes"/>
      <point x="518" y="519"/>
      <point x="568" y="579"/>
      <point x="645" y="579" type="curve" smooth="yes"/>
      <point x="724" y="579"/>
      <point x="782" y="516"/>
      <point x="782" y="387" type="curve" smooth="yes"/>
      <point x="782" y="219"/>
      <point x="722" y="135"/>
    </contour>
    <contour>
      <point x="645" y="350" type="curve" smooth="yes"/>
      <point x="693" y="350"/>
      <point x="720" y="386"/>
      <point x="720" y="421" type="curve" smooth="yes"/>
      <point x="720" y="478"/>
      <point x="689" y="522"/>
      <point x="647" y="522" type="curve" smooth="yes"/>
      <point x="606" y="522"/>
      <point x="580" y="492"/>
      <point x="580" y="431" type="curve" smooth="yes"/>
      <point x="580" y="380"/>
      <point x="602" y="350"/>
    </contour>
  </outline>
</glyph>
<glyph name="circlednumrev61" format="2">
  <advance width="1000"/>
  <anchor x="500" y="357" name="C"/>
  <anchor x="360" y="357" name="L"/>
  <anchor x="640" y="357" name="R"/>
  <anchor x="630" y="357" name="_L"/>
  <anchor x="340" y="357" name="_R"/>
  <anchor x="500" y="0" name="center"/>
  <outline>
    <contour>
      <point x="500" y="-55" type="curve" smooth="yes"/>
      <point x="728" y="-55"/>
      <point x="912" y="129"/>
      <point x="912" y="357" type="curve" smooth="yes"/>
      <point x="912" y="584"/>
      <point x="728" y="769"/>
      <point x="500" y="769" type="curve" smooth="yes"/>
      <point x="272" y="769"/>
      <point x="88" y="584"/>
      <point x="88" y="357" type="curve" smooth="yes"/>
      <point x="88" y="129"/>
      <point x="272" y="-55"/>
    </contour>
    <contour>
      <point x="355" y="135" type="curve" smooth="yes"/>
      <point x="266" y="135"/>
      <point x="218" y="208"/>
      <point x="218" y="327" type="curve" smooth="yes"/>
      <point x="218" y="495"/>
      <point x="279" y="579"/>
      <point x="400" y="579" type="curve" smooth="yes"/>
      <point x="418" y="579"/>
      <point x="436" y="577"/>
      <point x="452" y="572" type="curve"/>
      <point x="452" y="513" type="line"/>
      <point x="436" y="519"/>
      <point x="418" y="522"/>
      <point x="398" y="522" type="curve" smooth="yes"/>
      <point x="323" y="522"/>
      <point x="284" y="476"/>
      <point x="278" y="369" type="curve"/>
      <point x="281" y="369" type="line"/>
      <point x="299" y="402"/>
      <point x="329" y="419"/>
      <point x="373" y="419" type="curve" smooth="yes"/>
      <point x="439" y="419"/>
      <point x="482" y="371"/>
      <point x="482" y="285" type="curve" smooth="yes"/>
      <point x="482" y="201"/>
      <point x="430" y="135"/>
    </contour>
    <contour>
      <point x="353" y="192" type="curve" smooth="yes"/>
      <point x="394" y="192"/>
      <point x="421" y="221"/>
      <point x="421" y="283" type="curve" smooth="yes"/>
      <point x="421" y="333"/>
      <point x="399" y="364"/>
      <point x="355" y="364" type="curve" smooth="yes"/>
      <point x="307" y="364"/>
      <point x="280" y="328"/>
      <point x="280" y="293" type="curve" smooth="yes"/>
      <point x="280" y="236"/>
      <point x="311" y="192"/>
    </contour>
    <contour>
      <point x="528" y="144" type="line"/>
      <point x="528" y="204" type="line"/>
      <point x="608" y="204" type="line"/>
      <point x="608" y="467" type="line" smooth="yes"/>
      <point x="608" y="481"/>
      <point x="609" y="495"/>
      <point x="610" y="509" type="curve"/>
      <point x="605" y="503"/>
      <point x="597" y="495"/>
      <point x="585" y="485" type="curve" smooth="yes"/>
      <point x="570" y="474"/>
      <point x="562" y="458"/>
      <point x="539" y="440" type="curve"/>
      <point x="507" y="489" type="line"/>
      <point x="604" y="572" type="line"/>
      <point x="672" y="572" type="line"/>
      <point x="672" y="204" type="line"/>
      <point x="752" y="204" type="line"/>
      <point x="752" y="144" type="line"/>
    </contour>
  </outline>
</glyph>
<glyph name="circlednumrev62" format="2">
  <advance width="1000"/>
  <anchor x="500" y="357" name="C"/>
  <anchor x="360" y="357" name="L"/>
  <anchor x="640" y="357" name="R"/>
  <anchor x="620" y="357" name="_L"/>
  <anchor x="340" y="357" name="_R"/>
  <anchor x="500" y="0" name="center"/>
  <outline>
    <contour>
      <point x="500" y="-55" type="curve" smooth="yes"/>
      <point x="728" y="-55"/>
      <point x="912" y="129"/>
      <point x="912" y="357" type="curve" smooth="yes"/>
      <point x="912" y="584"/>
      <point x="728" y="769"/>
      <point x="500" y="769" type="curve" smooth="yes"/>
      <point x="272" y="769"/>
      <point x="88" y="584"/>
      <point x="88" y="357" type="curve" smooth="yes"/>
      <point x="88" y="129"/>
      <point x="272" y="-55"/>
    </contour>
    <contour>
      <point x="355" y="135" type="curve" smooth="yes"/>
      <point x="266" y="135"/>
      <point x="218" y="208"/>
      <point x="218" y="327" type="curve" smooth="yes"/>
      <point x="218" y="495"/>
      <point x="279" y="579"/>
      <point x="400" y="579" type="curve" smooth="yes"/>
      <point x="418" y="579"/>
      <point x="436" y="577"/>
      <point x="452" y="572" type="curve"/>
      <point x="452" y="513" type="line"/>
      <point x="436" y="519"/>
      <point x="418" y="522"/>
      <point x="398" y="522" type="curve" smooth="yes"/>
      <point x="323" y="522"/>
      <point x="284" y="476"/>
      <point x="278" y="369" type="curve"/>
      <point x="281" y="369" type="line"/>
      <point x="299" y="402"/>
      <point x="329" y="419"/>
      <point x="373" y="419" type="curve" smooth="yes"/>
      <point x="439" y="419"/>
      <point x="482" y="371"/>
      <point x="482" y="285" type="curve" smooth="yes"/>
      <point x="482" y="201"/>
      <point x="430" y="135"/>
    </contour>
    <contour>
      <point x="353" y="192" type="curve" smooth="yes"/>
      <point x="394" y="192"/>
      <point x="421" y="221"/>
      <point x="421" y="283" type="curve" smooth="yes"/>
      <point x="421" y="333"/>
      <point x="399" y="364"/>
      <point x="355" y="364" type="curve" smooth="yes"/>
      <point x="307" y="364"/>
      <point x="280" y="328"/>
      <point x="280" y="293" type="curve" smooth="yes"/>
      <point x="280" y="236"/>
      <point x="311" y="192"/>
    </contour>
    <contour>
      <point x="507" y="143" type="line"/>
      <point x="507" y="197" type="line"/>
      <point x="605" y="309" type="line" smooth="yes"/>
      <point x="658" y="370"/>
      <point x="689" y="406"/>
      <point x="689" y="460" type="curve" smooth="yes"/>
      <point x="689" y="498"/>
      <point x="666" y="522"/>
      <point x="631" y="522" type="curve" smooth="yes"/>
      <point x="601" y="522"/>
      <point x="572" y="508"/>
      <point x="541" y="479" type="curve"/>
      <point x="510" y="525" type="line"/>
      <point x="548" y="562"/>
      <point x="590" y="580"/>
      <point x="634" y="580" type="curve" smooth="yes"/>
      <point x="709" y="580"/>
      <point x="754" y="536"/>
      <point x="754" y="462" type="curve" smooth="yes"/>
      <point x="754" y="398"/>
      <point x="710" y="348"/>
      <point x="637" y="265" type="curve" smooth="yes"/>
      <point x="569" y="189" type="line"/>
      <point x="562" y="205" type="line"/>
      <point x="753" y="205" type="line"/>
      <point x="753" y="143" type="line"/>
    </contour>
  </outline>
</glyph>
